<?xml version="1.0" encoding="UTF-8"?>
<!--Generator: Apple Native CoreSVG 123-->
<!DOCTYPE svg
PUBLIC "-//W3C//DTD SVG 1.1//EN"
       "http://www.w3.org/Graphics/SVG/1.1/DTD/svg11.dtd">
<svg version="1.1" xmlns="http://www.w3.org/2000/svg" xmlns:xlink="http://www.w3.org/1999/xlink" width="3300" height="2200">
 <!--glyph: "uni100682.medium", point size: 100.000000, font version: "Version 15.0d7e11", template writer version: "5"-->
 <g id="Notes">
  <rect height="2200" id="artboard" style="fill:white;opacity:1" width="3300" x="0" y="0"/>
  <line id="" style="fill:none;stroke:black;opacity:1;stroke-width:0.5;" x1="263" x2="3036" y1="292" y2="292"/>
  <text style="stroke:none;fill:black;font-family:-apple-system,&quot;SF Pro Display&quot;,&quot;SF Pro Text&quot;,Helvetica,sans-serif;font-weight:bold;" transform="matrix(1 0 0 1 263 322)">Weight/Scale Variations</text>
  <text style="stroke:none;fill:black;font-family:-apple-system,&quot;SF Pro Display&quot;,&quot;SF Pro Text&quot;,Helvetica,sans-serif;text-anchor:middle;" transform="matrix(1 0 0 1 559.711 322)">Ultralight</text>
  <text style="stroke:none;fill:black;font-family:-apple-system,&quot;SF Pro Display&quot;,&quot;SF Pro Text&quot;,Helvetica,sans-serif;text-anchor:middle;" transform="matrix(1 0 0 1 856.422 322)">Thin</text>
  <text style="stroke:none;fill:black;font-family:-apple-system,&quot;SF Pro Display&quot;,&quot;SF Pro Text&quot;,Helvetica,sans-serif;text-anchor:middle;" transform="matrix(1 0 0 1 1153.13 322)">Light</text>
  <text style="stroke:none;fill:black;font-family:-apple-system,&quot;SF Pro Display&quot;,&quot;SF Pro Text&quot;,Helvetica,sans-serif;text-anchor:middle;" transform="matrix(1 0 0 1 1449.84 322)">Regular</text>
  <text style="stroke:none;fill:black;font-family:-apple-system,&quot;SF Pro Display&quot;,&quot;SF Pro Text&quot;,Helvetica,sans-serif;text-anchor:middle;" transform="matrix(1 0 0 1 1746.56 322)">Medium</text>
  <text style="stroke:none;fill:black;font-family:-apple-system,&quot;SF Pro Display&quot;,&quot;SF Pro Text&quot;,Helvetica,sans-serif;text-anchor:middle;" transform="matrix(1 0 0 1 2043.27 322)">Semibold</text>
  <text style="stroke:none;fill:black;font-family:-apple-system,&quot;SF Pro Display&quot;,&quot;SF Pro Text&quot;,Helvetica,sans-serif;text-anchor:middle;" transform="matrix(1 0 0 1 2339.98 322)">Bold</text>
  <text style="stroke:none;fill:black;font-family:-apple-system,&quot;SF Pro Display&quot;,&quot;SF Pro Text&quot;,Helvetica,sans-serif;text-anchor:middle;" transform="matrix(1 0 0 1 2636.69 322)">Heavy</text>
  <text style="stroke:none;fill:black;font-family:-apple-system,&quot;SF Pro Display&quot;,&quot;SF Pro Text&quot;,Helvetica,sans-serif;text-anchor:middle;" transform="matrix(1 0 0 1 2933.4 322)">Black</text>
  <line id="" style="fill:none;stroke:black;opacity:1;stroke-width:0.5;" x1="263" x2="3036" y1="1903" y2="1903"/>
  <g id="" transform="matrix(1 0 0 1 263 1933)">
   <path d="M 9.24805 0.830078 C 13.5547 0.830078 17.1387 -2.74414 17.1387 -7.05078 C 17.1387 -11.3574 13.5449 -14.9316 9.23828 -14.9316 C 4.94141 -14.9316 1.36719 -11.3574 1.36719 -7.05078 C 1.36719 -2.74414 4.95117 0.830078 9.24805 0.830078 Z M 9.24805 -0.654297 C 5.70312 -0.654297 2.87109 -3.49609 2.87109 -7.05078 C 2.87109 -10.6055 5.69336 -13.4473 9.23828 -13.4473 C 12.793 -13.4473 15.6348 -10.6055 15.6445 -7.05078 C 15.6543 -3.49609 12.8027 -0.654297 9.24805 -0.654297 Z M 9.22852 -3.42773 C 9.69727 -3.42773 9.9707 -3.74023 9.9707 -4.25781 L 9.9707 -6.31836 L 12.1973 -6.31836 C 12.6953 -6.31836 13.0371 -6.57227 13.0371 -7.04102 C 13.0371 -7.51953 12.7148 -7.7832 12.1973 -7.7832 L 9.9707 -7.7832 L 9.9707 -10.0098 C 9.9707 -10.5273 9.69727 -10.8496 9.22852 -10.8496 C 8.75977 -10.8496 8.50586 -10.5078 8.50586 -10.0098 L 8.50586 -7.7832 L 6.29883 -7.7832 C 5.78125 -7.7832 5.44922 -7.51953 5.44922 -7.04102 C 5.44922 -6.57227 5.80078 -6.31836 6.29883 -6.31836 L 8.50586 -6.31836 L 8.50586 -4.25781 C 8.50586 -3.75977 8.75977 -3.42773 9.22852 -3.42773 Z"/>
  </g>
  <g id="" transform="matrix(1 0 0 1 281.506 1933)">
   <path d="M 11.709 2.91016 C 17.1582 2.91016 21.6699 -1.60156 21.6699 -7.05078 C 21.6699 -12.4902 17.1484 -17.0117 11.6992 -17.0117 C 6.25977 -17.0117 1.74805 -12.4902 1.74805 -7.05078 C 1.74805 -1.60156 6.26953 2.91016 11.709 2.91016 Z M 11.709 1.25 C 7.09961 1.25 3.41797 -2.44141 3.41797 -7.05078 C 3.41797 -11.6504 7.08984 -15.3516 11.6992 -15.3516 C 16.3086 -15.3516 20 -11.6504 20.0098 -7.05078 C 20.0195 -2.44141 16.3184 1.25 11.709 1.25 Z M 11.6895 -2.41211 C 12.207 -2.41211 12.5195 -2.77344 12.5195 -3.33984 L 12.5195 -6.23047 L 15.5762 -6.23047 C 16.123 -6.23047 16.5039 -6.51367 16.5039 -7.03125 C 16.5039 -7.55859 16.1426 -7.86133 15.5762 -7.86133 L 12.5195 -7.86133 L 12.5195 -10.9277 C 12.5195 -11.5039 12.207 -11.8555 11.6895 -11.8555 C 11.1719 -11.8555 10.8789 -11.4844 10.8789 -10.9277 L 10.8789 -7.86133 L 7.83203 -7.86133 C 7.26562 -7.86133 6.89453 -7.55859 6.89453 -7.03125 C 6.89453 -6.51367 7.28516 -6.23047 7.83203 -6.23047 L 10.8789 -6.23047 L 10.8789 -3.33984 C 10.8789 -2.79297 11.1719 -2.41211 11.6895 -2.41211 Z"/>
  </g>
  <g id="" transform="matrix(1 0 0 1 304.924 1933)">
   <path d="M 14.9707 5.67383 C 21.9336 5.67383 27.6953 -0.078125 27.6953 -7.04102 C 27.6953 -14.0039 21.9238 -19.7559 14.9609 -19.7559 C 8.00781 -19.7559 2.25586 -14.0039 2.25586 -7.04102 C 2.25586 -0.078125 8.01758 5.67383 14.9707 5.67383 Z M 14.9707 3.85742 C 8.93555 3.85742 4.08203 -1.00586 4.08203 -7.04102 C 4.08203 -13.0762 8.92578 -17.9395 14.9609 -17.9395 C 21.0059 -17.9395 25.8594 -13.0762 25.8691 -7.04102 C 25.8789 -1.00586 21.0156 3.85742 14.9707 3.85742 Z M 14.9512 -1.06445 C 15.5176 -1.06445 15.8691 -1.45508 15.8691 -2.06055 L 15.8691 -6.13281 L 20.1074 -6.13281 C 20.6934 -6.13281 21.1133 -6.46484 21.1133 -7.02148 C 21.1133 -7.59766 20.7227 -7.93945 20.1074 -7.93945 L 15.8691 -7.93945 L 15.8691 -12.1875 C 15.8691 -12.8027 15.5176 -13.1934 14.9512 -13.1934 C 14.3848 -13.1934 14.0625 -12.7832 14.0625 -12.1875 L 14.0625 -7.93945 L 9.83398 -7.93945 C 9.21875 -7.93945 8.80859 -7.59766 8.80859 -7.02148 C 8.80859 -6.46484 9.23828 -6.13281 9.83398 -6.13281 L 14.0625 -6.13281 L 14.0625 -2.06055 C 14.0625 -1.47461 14.3848 -1.06445 14.9512 -1.06445 Z"/>
  </g>
  <text style="stroke:none;fill:black;font-family:-apple-system,&quot;SF Pro Display&quot;,&quot;SF Pro Text&quot;,Helvetica,sans-serif;font-weight:bold;" transform="matrix(1 0 0 1 263 1953)">Design Variations</text>
  <text style="stroke:none;fill:black;font-family:-apple-system,&quot;SF Pro Display&quot;,&quot;SF Pro Text&quot;,Helvetica,sans-serif;" transform="matrix(1 0 0 1 263 1971)">Symbols are supported in up to nine weights and three scales.</text>
  <text style="stroke:none;fill:black;font-family:-apple-system,&quot;SF Pro Display&quot;,&quot;SF Pro Text&quot;,Helvetica,sans-serif;" transform="matrix(1 0 0 1 263 1989)">For optimal layout with text and other symbols, vertically align</text>
  <text style="stroke:none;fill:black;font-family:-apple-system,&quot;SF Pro Display&quot;,&quot;SF Pro Text&quot;,Helvetica,sans-serif;" transform="matrix(1 0 0 1 263 2007)">symbols with the adjacent text.</text>
  <rect height="14" id="" style="fill:#00AEEF;stroke:none;opacity:0.4;" width="3" x="776" y="1919"/>
  <g id="" transform="matrix(1 0 0 1 779 1933)">
   <path d="M 10.5273 0 L 12.373 0 L 7.17773 -14.0918 L 5.43945 -14.0918 L 0.244141 0 L 2.08984 0 L 3.50586 -4.0332 L 9.11133 -4.0332 Z M 6.2793 -11.9531 L 6.33789 -11.9531 L 8.59375 -5.52734 L 4.02344 -5.52734 Z"/>
  </g>
  <rect height="14" id="" style="fill:#00AEEF;stroke:none;opacity:0.4;" width="3" x="791.617" y="1919"/>
  <text style="stroke:none;fill:black;font-family:-apple-system,&quot;SF Pro Display&quot;,&quot;SF Pro Text&quot;,Helvetica,sans-serif;font-weight:bold;" transform="matrix(1 0 0 1 776 1953)">Margins</text>
  <text style="stroke:none;fill:black;font-family:-apple-system,&quot;SF Pro Display&quot;,&quot;SF Pro Text&quot;,Helvetica,sans-serif;" transform="matrix(1 0 0 1 776 1971)">Leading and trailing margins on the left and right side of each symbol</text>
  <text style="stroke:none;fill:black;font-family:-apple-system,&quot;SF Pro Display&quot;,&quot;SF Pro Text&quot;,Helvetica,sans-serif;" transform="matrix(1 0 0 1 776 1989)">can be adjusted by modifying the width of the blue rectangles.</text>
  <text style="stroke:none;fill:black;font-family:-apple-system,&quot;SF Pro Display&quot;,&quot;SF Pro Text&quot;,Helvetica,sans-serif;" transform="matrix(1 0 0 1 776 2007)">Modifications are automatically applied proportionally to all</text>
  <text style="stroke:none;fill:black;font-family:-apple-system,&quot;SF Pro Display&quot;,&quot;SF Pro Text&quot;,Helvetica,sans-serif;" transform="matrix(1 0 0 1 776 2025)">scales and weights.</text>
  <g id="" transform="matrix(1 0 0 1 1289 1933)">
   <path d="M 2.83203 3.11523 L 4.375 4.6582 C 5.22461 5.48828 6.19141 5.41992 7.06055 4.46289 L 17.2754 -6.66016 C 17.7051 -6.36719 18.0957 -6.37695 18.5645 -6.47461 L 19.6094 -6.68945 L 20.3027 -5.99609 L 20.2539 -5.47852 C 20.1855 -4.95117 20.3516 -4.53125 20.8496 -4.0332 L 21.6602 -3.22266 C 22.168 -2.71484 22.8223 -2.68555 23.3008 -3.16406 L 26.5527 -6.41602 C 27.0312 -6.89453 27.0117 -7.54883 26.5039 -8.05664 L 25.6836 -8.87695 C 25.1855 -9.375 24.7754 -9.55078 24.2383 -9.47266 L 23.7109 -9.41406 L 23.0566 -10.0781 L 23.3398 -11.2207 C 23.4863 -11.7871 23.3398 -12.2559 22.7148 -12.8613 L 20.3027 -15.2539 C 16.7578 -18.7793 12.2266 -18.6719 9.11133 -15.5371 C 8.69141 -15.1074 8.64258 -14.5215 8.91602 -14.0918 C 9.15039 -13.7207 9.62891 -13.4961 10.2734 -13.6621 C 11.7871 -14.043 13.3008 -13.9258 14.7852 -12.9199 L 14.1602 -11.3379 C 13.9258 -10.752 13.9453 -10.2734 14.1797 -9.83398 L 3.01758 0.439453 C 2.08008 1.30859 1.97266 2.25586 2.83203 3.11523 Z M 10.6738 -15.1465 C 13.3398 -17.1387 16.6504 -16.8262 19.0527 -14.4141 L 21.6797 -11.8066 C 21.9141 -11.5723 21.9434 -11.3867 21.8848 -11.0938 L 21.5039 -9.53125 L 23.0762 -7.95898 L 24.043 -8.04688 C 24.3262 -8.07617 24.4141 -8.05664 24.6387 -7.83203 L 25.2637 -7.20703 L 22.5098 -4.46289 L 21.8848 -5.07812 C 21.6602 -5.30273 21.6406 -5.40039 21.6699 -5.68359 L 21.7578 -6.64062 L 20.1953 -8.20312 L 18.5742 -7.89062 C 18.291 -7.83203 18.1445 -7.83203 17.9102 -8.07617 L 15.7324 -10.2539 C 15.5078 -10.4883 15.4785 -10.625 15.6055 -10.9473 L 16.5527 -13.2227 C 14.9512 -14.7559 12.8418 -15.6055 10.8008 -14.9512 C 10.7129 -14.9219 10.6445 -14.9414 10.6152 -14.9805 C 10.5859 -15.0293 10.5859 -15.0781 10.6738 -15.1465 Z M 4.10156 2.41211 C 3.61328 1.91406 3.78906 1.61133 4.12109 1.30859 L 15.0781 -8.80859 L 16.3086 -7.57812 L 6.15234 3.34961 C 5.84961 3.68164 5.46875 3.7793 5.06836 3.37891 Z"/>
  </g>
  <text style="stroke:none;fill:black;font-family:-apple-system,&quot;SF Pro Display&quot;,&quot;SF Pro Text&quot;,Helvetica,sans-serif;font-weight:bold;" transform="matrix(1 0 0 1 1289 1953)">Exporting</text>
  <text style="stroke:none;fill:black;font-family:-apple-system,&quot;SF Pro Display&quot;,&quot;SF Pro Text&quot;,Helvetica,sans-serif;" transform="matrix(1 0 0 1 1289 1971)">Symbols should be outlined when exporting to ensure the</text>
  <text style="stroke:none;fill:black;font-family:-apple-system,&quot;SF Pro Display&quot;,&quot;SF Pro Text&quot;,Helvetica,sans-serif;" transform="matrix(1 0 0 1 1289 1989)">design is preserved when submitting to Xcode.</text>
  <text id="template-version" style="stroke:none;fill:black;font-family:-apple-system,&quot;SF Pro Display&quot;,&quot;SF Pro Text&quot;,Helvetica,sans-serif;text-anchor:end;" transform="matrix(1 0 0 1 3036 1933)">Template v.1.0</text>
  <text style="stroke:none;fill:black;font-family:-apple-system,&quot;SF Pro Display&quot;,&quot;SF Pro Text&quot;,Helvetica,sans-serif;text-anchor:end;" transform="matrix(1 0 0 1 3036 1951)">Generated from arrow.clockwise.circle.fill</text>
  <text style="stroke:none;fill:black;font-family:-apple-system,&quot;SF Pro Display&quot;,&quot;SF Pro Text&quot;,Helvetica,sans-serif;text-anchor:end;" transform="matrix(1 0 0 1 3036 1969)">Typeset at 100 points</text>
  <text style="stroke:none;fill:black;font-family:-apple-system,&quot;SF Pro Display&quot;,&quot;SF Pro Text&quot;,Helvetica,sans-serif;" transform="matrix(1 0 0 1 263 726)">Small</text>
  <text style="stroke:none;fill:black;font-family:-apple-system,&quot;SF Pro Display&quot;,&quot;SF Pro Text&quot;,Helvetica,sans-serif;" transform="matrix(1 0 0 1 263 1156)">Medium</text>
  <text style="stroke:none;fill:black;font-family:-apple-system,&quot;SF Pro Display&quot;,&quot;SF Pro Text&quot;,Helvetica,sans-serif;" transform="matrix(1 0 0 1 263 1586)">Large</text>
 </g>
 <g id="Guides">
  <g id="H-reference" style="fill:#27AAE1;stroke:none;" transform="matrix(1 0 0 1 339 696)">
   <path d="M 54.9316 0 L 57.666 0 L 30.5664 -70.459 L 28.0762 -70.459 L 0.976562 0 L 3.66211 0 L 12.9395 -24.4629 L 45.7031 -24.4629 Z M 29.1992 -67.0898 L 29.4434 -67.0898 L 44.8242 -26.709 L 13.8184 -26.709 Z"/>
  </g>
  <line id="Baseline-S" style="fill:none;stroke:#27AAE1;opacity:1;stroke-width:0.577;" x1="263" x2="3036" y1="696" y2="696"/>
  <line id="Capline-S" style="fill:none;stroke:#27AAE1;opacity:1;stroke-width:0.577;" x1="263" x2="3036" y1="625.541" y2="625.541"/>
  <g id="H-reference" style="fill:#27AAE1;stroke:none;" transform="matrix(1 0 0 1 339 1126)">
   <path d="M 54.9316 0 L 57.666 0 L 30.5664 -70.459 L 28.0762 -70.459 L 0.976562 0 L 3.66211 0 L 12.9395 -24.4629 L 45.7031 -24.4629 Z M 29.1992 -67.0898 L 29.4434 -67.0898 L 44.8242 -26.709 L 13.8184 -26.709 Z"/>
  </g>
  <line id="Baseline-M" style="fill:none;stroke:#27AAE1;opacity:1;stroke-width:0.577;" x1="263" x2="3036" y1="1126" y2="1126"/>
  <line id="Capline-M" style="fill:none;stroke:#27AAE1;opacity:1;stroke-width:0.577;" x1="263" x2="3036" y1="1055.54" y2="1055.54"/>
  <g id="H-reference" style="fill:#27AAE1;stroke:none;" transform="matrix(1 0 0 1 339 1556)">
   <path d="M 54.9316 0 L 57.666 0 L 30.5664 -70.459 L 28.0762 -70.459 L 0.976562 0 L 3.66211 0 L 12.9395 -24.4629 L 45.7031 -24.4629 Z M 29.1992 -67.0898 L 29.4434 -67.0898 L 44.8242 -26.709 L 13.8184 -26.709 Z"/>
  </g>
  <line id="Baseline-L" style="fill:none;stroke:#27AAE1;opacity:1;stroke-width:0.577;" x1="263" x2="3036" y1="1556" y2="1556"/>
  <line id="Capline-L" style="fill:none;stroke:#27AAE1;opacity:1;stroke-width:0.577;" x1="263" x2="3036" y1="1485.54" y2="1485.54"/>
  <rect height="119.336" id="left-margin" style="fill:#00AEEF;stroke:none;opacity:0.4;" width="8.74023" x="1391.3" y="1030.79"/>
  <rect height="119.336" id="right-margin" style="fill:#00AEEF;stroke:none;opacity:0.4;" width="8.74023" x="1499.65" y="1030.79"/>
 </g>
 <g id="Symbols">
  <g id="Black-L" transform="matrix(1 0 0 1 2854.05 1556)">
   <path d="M 79.3457 32.9102 C 116.748 32.9102 147.412 2.29492 147.412 -35.1074 C 147.412 -72.5586 116.748 -103.174 79.2969 -103.174 C 41.8945 -103.174 11.2793 -72.5586 11.2793 -35.1074 C 11.2793 2.29492 41.9434 32.9102 79.3457 32.9102 Z M 50.6836 -32.373 C 50.6836 -46.582 61.1816 -58.5938 74.0723 -60.4004 C 74.3652 -60.4492 74.8535 -60.498 75.0977 -60.5957 L 74.0723 -61.7188 C 73.3398 -62.6953 72.5586 -63.7207 72.5586 -65.5762 C 72.5586 -68.3594 74.6582 -71.1426 78.5645 -71.1426 C 80.4199 -71.1426 81.9336 -70.1172 83.1055 -68.9453 L 94.1406 -57.8613 C 96.3379 -55.6641 96.4844 -51.5625 94.0918 -49.1699 L 83.0078 -38.1836 C 81.9824 -37.1094 80.3711 -36.377 78.7109 -36.377 C 75.2441 -36.377 72.6562 -38.4766 72.6562 -42.2363 C 72.6562 -43.4082 72.9004 -44.5312 73.3887 -45.2148 L 74.8047 -46.8262 C 74.3652 -46.6309 73.9258 -46.3867 73.5352 -46.2891 C 67.8223 -45.3125 63.7695 -39.0625 63.7695 -32.3242 C 63.7695 -23.6816 70.6055 -16.748 79.2969 -16.748 C 87.9395 -16.748 94.873 -23.6328 94.873 -32.3242 C 94.873 -35.8887 97.8027 -38.7695 101.465 -38.7695 C 105.029 -38.7695 107.959 -35.8887 107.959 -32.3242 C 107.959 -16.5039 95.0684 -3.61328 79.2969 -3.61328 C 63.5742 -3.61328 50.6836 -16.5039 50.6836 -32.373 Z"/>
  </g>
  <g id="Heavy-L" transform="matrix(1 0 0 1 2558.39 1556)">
   <path d="M 78.2715 31.8848 C 115.088 31.8848 145.312 1.66016 145.312 -35.1074 C 145.312 -71.9238 115.039 -102.148 78.2715 -102.148 C 41.4551 -102.148 11.2793 -71.9238 11.2793 -35.1074 C 11.2793 1.66016 41.5039 31.8848 78.2715 31.8848 Z M 49.7559 -32.4219 C 49.7559 -46.9238 60.791 -58.9844 74.0234 -60.3516 C 74.4629 -60.4004 75.0977 -60.4004 75.4395 -60.4492 L 73.291 -62.6465 C 72.5586 -63.5742 71.9238 -64.5508 71.9238 -66.2109 C 71.9238 -68.7988 73.877 -71.3379 77.3438 -71.3379 C 79.0039 -71.3379 80.4199 -70.459 81.4453 -69.3848 L 92.8223 -57.9102 C 94.8242 -55.8594 94.9707 -52.1484 92.7734 -50 L 81.3477 -38.5742 C 80.3711 -37.5977 78.9062 -36.9629 77.4902 -36.9629 C 74.3652 -36.9629 72.0215 -38.916 72.0215 -42.2852 C 72.0215 -43.4082 72.2656 -44.4824 72.8027 -45.166 L 75.6836 -48.1445 C 75.0977 -47.998 74.4629 -47.8516 73.8281 -47.7539 C 66.748 -47.0703 61.5723 -40.1367 61.5723 -32.3242 C 61.5723 -22.998 68.8965 -15.5762 78.2715 -15.5762 C 87.5488 -15.5762 94.9707 -22.9492 94.9707 -32.3242 C 94.9707 -35.498 97.6074 -38.1348 100.928 -38.1348 C 104.102 -38.1348 106.738 -35.498 106.738 -32.3242 C 106.738 -16.5527 93.9453 -3.71094 78.2715 -3.71094 C 62.5488 -3.71094 49.7559 -16.5527 49.7559 -32.4219 Z"/>
  </g>
  <g id="Bold-L" transform="matrix(1 0 0 1 2262.88 1556)">
   <path d="M 77.0996 30.7129 C 113.232 30.7129 142.92 0.976562 142.92 -35.1074 C 142.92 -71.2402 113.184 -100.977 77.0508 -100.977 C 40.9668 -100.977 11.2793 -71.2402 11.2793 -35.1074 C 11.2793 0.976562 41.0156 30.7129 77.0996 30.7129 Z M 48.6816 -32.4219 C 48.6816 -47.2656 60.3027 -59.375 73.9746 -60.2539 C 74.6094 -60.3027 75.3418 -60.2539 75.8789 -60.2539 L 72.4609 -63.7207 C 71.7285 -64.5508 71.1914 -65.5273 71.1914 -66.9434 C 71.1914 -69.3359 72.998 -71.5332 75.9766 -71.5332 C 77.4414 -71.5332 78.6621 -70.8008 79.5898 -69.873 L 91.3574 -57.9102 C 93.1152 -56.1035 93.2129 -52.7832 91.3574 -50.8789 L 79.4434 -39.0137 C 78.6133 -38.1836 77.3438 -37.5977 76.0742 -37.5977 C 73.3398 -37.5977 71.2891 -39.4531 71.2891 -42.2852 C 71.2891 -43.4082 71.582 -44.3848 72.168 -45.1172 L 76.6113 -49.6094 C 75.8789 -49.6094 75.0488 -49.5117 74.1699 -49.4629 C 65.625 -48.9746 59.082 -41.3574 59.082 -32.3242 C 59.082 -22.2656 66.9922 -14.2578 77.0508 -14.2578 C 87.0605 -14.2578 95.0684 -22.2656 95.0684 -32.3242 C 95.0684 -35.1074 97.3633 -37.4512 100.293 -37.4512 C 103.076 -37.4512 105.42 -35.1074 105.42 -32.3242 C 105.42 -16.6016 92.7246 -3.85742 77.0508 -3.85742 C 61.4258 -3.85742 48.6816 -16.6016 48.6816 -32.4219 Z"/>
  </g>
  <g id="Semibold-L" transform="matrix(1 0 0 1 1966.97 1556)">
   <path d="M 76.2695 29.8828 C 111.914 29.8828 141.309 0.488281 141.309 -35.1074 C 141.309 -70.752 111.865 -100.146 76.2695 -100.146 C 40.625 -100.146 11.2793 -70.752 11.2793 -35.1074 C 11.2793 0.488281 40.6738 29.8828 76.2695 29.8828 Z M 47.998 -32.4219 C 47.998 -47.5586 59.9609 -59.668 73.9258 -60.2051 C 74.6582 -60.2539 75.5371 -60.1562 76.1719 -60.1562 L 71.875 -64.4531 C 71.1426 -65.2344 70.7031 -66.2109 70.7031 -67.4805 C 70.7031 -69.7266 72.4121 -71.6797 75.0488 -71.6797 C 76.3184 -71.6797 77.4902 -71.0938 78.3203 -70.166 L 90.332 -57.959 C 91.9434 -56.2988 92.041 -53.2715 90.332 -51.5137 L 78.1738 -39.3555 C 77.3926 -38.5742 76.2207 -38.0371 75.0977 -38.0371 C 72.6074 -38.0371 70.752 -39.7949 70.752 -42.2852 C 70.752 -43.4082 71.0938 -44.3359 71.7285 -45.0684 L 77.2461 -50.5859 C 76.4648 -50.6836 75.4395 -50.6836 74.4141 -50.6348 C 64.7949 -50.3418 57.373 -42.1875 57.373 -32.3242 C 57.373 -21.7773 65.6738 -13.3301 76.2695 -13.3301 C 86.7676 -13.3301 95.1172 -21.7773 95.1172 -32.3242 C 95.1172 -34.8145 97.2168 -36.9141 99.8535 -36.9141 C 102.393 -36.9141 104.492 -34.8145 104.492 -32.3242 C 104.492 -16.6504 91.8945 -3.95508 76.2695 -3.95508 C 60.5957 -3.95508 47.998 -16.6504 47.998 -32.4219 Z"/>
  </g>
  <g id="Medium-L" transform="matrix(1 0 0 1 1670.87 1556)">
   <path d="M 75.6836 29.248 C 110.938 29.248 140.088 0.146484 140.088 -35.1074 C 140.088 -70.4102 110.889 -99.5117 75.6348 -99.5117 C 40.3809 -99.5117 11.2793 -70.4102 11.2793 -35.1074 C 11.2793 0.146484 40.3809 29.248 75.6836 29.248 Z M 47.4609 -32.4707 C 47.4609 -47.7539 59.7168 -59.8633 73.9258 -60.2051 C 74.7559 -60.2051 75.6836 -60.1074 76.3672 -60.0586 L 71.4355 -64.9902 C 70.7031 -65.7227 70.3613 -66.748 70.3613 -67.8223 C 70.3613 -70.0195 71.9727 -71.7773 74.3164 -71.7773 C 75.4883 -71.7773 76.5625 -71.2402 77.3438 -70.4102 L 89.5996 -57.959 C 91.0645 -56.3965 91.1133 -53.5645 89.5508 -52.002 L 77.1973 -39.5508 C 76.4648 -38.8672 75.3906 -38.3789 74.3652 -38.3789 C 72.0703 -38.3789 70.3613 -40.0391 70.3613 -42.2852 C 70.3613 -43.4082 70.7031 -44.3359 71.4355 -45.0684 L 77.7832 -51.3672 C 76.8555 -51.5137 75.7324 -51.5137 74.6094 -51.5137 C 64.209 -51.3672 56.0547 -42.8223 56.0547 -32.3242 C 56.0547 -21.3867 64.6973 -12.6465 75.6348 -12.6465 C 86.5234 -12.6465 95.166 -21.3867 95.166 -32.3242 C 95.166 -34.6191 97.1191 -36.5723 99.5117 -36.5723 C 101.855 -36.5723 103.809 -34.6191 103.809 -32.3242 C 103.809 -16.6504 91.2598 -4.05273 75.6348 -4.05273 C 60.0098 -4.05273 47.4609 -16.6504 47.4609 -32.4707 Z"/>
  </g>
  <g id="Regular-L" transform="matrix(1 0 0 1 1374.97 1556)">
   <path d="M 74.8535 28.4668 C 109.668 28.4668 138.477 -0.341797 138.477 -35.1074 C 138.477 -69.9219 109.619 -98.7305 74.8047 -98.7305 C 40.0391 -98.7305 11.2793 -69.9219 11.2793 -35.1074 C 11.2793 -0.341797 40.0879 28.4668 74.8535 28.4668 Z M 46.7285 -32.4707 C 46.7285 -47.998 59.375 -60.1562 73.877 -60.1562 C 74.8535 -60.1562 75.8301 -60.0098 76.6602 -59.9121 L 70.8496 -65.7227 C 70.166 -66.4062 69.873 -67.3828 69.873 -68.3594 C 69.873 -70.3613 71.3867 -71.9238 73.3887 -71.9238 C 74.4141 -71.9238 75.3906 -71.5332 76.0742 -70.752 L 88.5742 -58.0078 C 89.8926 -56.5918 89.9414 -54.0039 88.5742 -52.6367 L 75.8789 -39.8926 C 75.2441 -39.2578 74.3164 -38.8184 73.4375 -38.8184 C 71.3867 -38.8184 69.873 -40.3809 69.873 -42.334 C 69.873 -43.4082 70.2637 -44.2871 70.9961 -45.0195 L 78.418 -52.3438 C 77.3926 -52.5879 76.123 -52.6855 74.8047 -52.6855 C 63.3789 -52.6855 54.3457 -43.6523 54.3457 -32.3242 C 54.3457 -20.8496 63.3789 -11.7676 74.8047 -11.7676 C 86.1816 -11.7676 95.2637 -20.8984 95.2637 -32.3242 C 95.2637 -34.3262 96.9727 -36.084 99.0723 -36.084 C 101.123 -36.084 102.881 -34.3262 102.881 -32.3242 C 102.881 -16.6992 90.4297 -4.15039 74.8047 -4.15039 C 59.2285 -4.15039 46.7285 -16.6992 46.7285 -32.4707 Z"/>
  </g>
  <g id="Light-L" transform="matrix(1 0 0 1 1079.18 1556)">
   <path d="M 73.9258 27.5879 C 108.301 27.5879 136.621 -0.732422 136.621 -35.1074 C 136.621 -69.4336 108.252 -97.7539 73.9258 -97.7539 C 39.5508 -97.7539 11.2793 -69.4336 11.2793 -35.1074 C 11.2793 -0.732422 39.5996 27.5879 73.9258 27.5879 Z M 46.4355 -32.373 C 46.4355 -47.6074 58.6914 -59.5215 73.3398 -59.5215 C 74.8047 -59.5215 76.2695 -59.3262 77.4902 -59.1797 L 69.9219 -66.748 C 69.3359 -67.334 69.1406 -68.1152 69.1406 -68.8965 C 69.1406 -70.5566 70.3613 -71.7773 72.0215 -71.7773 C 72.8516 -71.7773 73.6816 -71.3867 74.2676 -70.7031 L 87.1094 -57.5684 C 88.2812 -56.3477 88.2324 -54.248 87.1094 -53.0762 L 74.0234 -39.7461 C 73.5352 -39.2578 72.8027 -38.916 72.0703 -38.916 C 70.4102 -38.916 69.1895 -40.1855 69.1895 -41.748 C 69.1895 -42.627 69.4824 -43.3594 70.166 -44.0918 L 79.248 -53.0762 C 77.7832 -53.418 75.9277 -53.5645 73.9258 -53.5645 C 61.9141 -53.5645 52.4902 -44.1895 52.4902 -32.2754 C 52.4902 -20.2148 61.9141 -10.7422 73.9258 -10.7422 C 85.8398 -10.7422 95.3125 -20.2637 95.3125 -32.2754 C 95.3125 -33.8867 96.6309 -35.2539 98.3887 -35.2539 C 99.9512 -35.2539 101.318 -33.8867 101.318 -32.2754 C 101.318 -16.9434 89.2578 -4.73633 73.9258 -4.73633 C 58.6426 -4.73633 46.4355 -16.9434 46.4355 -32.373 Z"/>
  </g>
  <g id="Thin-L" transform="matrix(1 0 0 1 783.693 1556)">
   <path d="M 72.7051 26.416 C 106.494 26.416 134.18 -1.26953 134.18 -35.0586 C 134.18 -68.7988 106.494 -96.4844 72.7051 -96.4844 C 38.9648 -96.4844 11.2793 -68.7988 11.2793 -35.0586 C 11.2793 -1.26953 38.9648 26.416 72.7051 26.416 Z M 46.0449 -32.2266 C 46.0449 -47.1191 57.8125 -58.7402 72.6074 -58.7402 C 74.7559 -58.7402 76.8555 -58.4473 78.6133 -58.2031 L 68.75 -68.0664 C 68.2617 -68.5547 68.2129 -69.0918 68.2129 -69.5801 C 68.2129 -70.752 69.043 -71.582 70.2148 -71.582 C 70.8496 -71.582 71.3867 -71.2402 71.9238 -70.6543 L 85.1562 -57.0312 C 86.084 -56.0059 85.9375 -54.4922 85.1562 -53.6133 L 71.582 -39.5996 C 71.2891 -39.3066 70.752 -39.0137 70.3125 -39.0137 C 69.1406 -39.0137 68.3105 -39.9414 68.3105 -40.9668 C 68.3105 -41.6504 68.5059 -42.1875 69.1406 -42.8223 L 80.3711 -54.0527 C 78.2227 -54.5898 75.6348 -54.834 72.7051 -54.834 C 59.9609 -54.834 50 -44.873 50 -32.2266 C 50 -19.3848 59.9609 -9.42383 72.7051 -9.42383 C 85.4004 -9.42383 95.3613 -19.4824 95.3613 -32.2266 C 95.3613 -33.252 96.2402 -34.1797 97.4121 -34.1797 C 98.3887 -34.1797 99.3164 -33.252 99.3164 -32.2266 C 99.3164 -17.2363 87.6953 -5.46875 72.7051 -5.46875 C 57.8125 -5.46875 46.0449 -17.2363 46.0449 -32.2266 Z"/>
  </g>
  <g id="Ultralight-L" transform="matrix(1 0 0 1 487.616 1556)">
   <path d="M 72.1191 25.7812 C 105.566 25.7812 132.91 -1.5625 132.91 -35.0098 C 132.91 -68.5059 105.566 -95.8496 72.1191 -95.8496 C 38.623 -95.8496 11.2793 -68.5059 11.2793 -35.0098 C 11.2793 -1.5625 38.623 25.7812 72.1191 25.7812 Z M 45.8496 -32.1777 C 45.8496 -46.875 57.373 -58.3008 72.2168 -58.3008 C 74.707 -58.3008 77.0996 -57.959 79.1992 -57.7148 L 68.1641 -68.75 C 67.7246 -69.1895 67.7246 -69.6289 67.7246 -69.9219 C 67.7246 -70.8496 68.3594 -71.4844 69.2871 -71.4844 C 69.8242 -71.4844 70.2148 -71.1914 70.7031 -70.6543 L 84.1309 -56.7871 C 84.9609 -55.8594 84.7656 -54.6387 84.1309 -53.9062 L 70.3613 -39.502 C 70.166 -39.3066 69.7266 -39.0625 69.3848 -39.0625 C 68.457 -39.0625 67.8223 -39.7949 67.8223 -40.5273 C 67.8223 -41.1133 67.9688 -41.5527 68.6035 -42.1875 L 80.957 -54.5898 C 78.4668 -55.1758 75.4395 -55.4199 72.1191 -55.4199 C 58.9844 -55.4199 48.6816 -45.2637 48.6816 -32.1777 C 48.6816 -18.9941 58.9844 -8.74023 72.1191 -8.74023 C 85.1562 -8.74023 95.4102 -19.043 95.4102 -32.1777 C 95.4102 -32.959 95.9961 -33.6426 96.9238 -33.6426 C 97.6074 -33.6426 98.291 -32.959 98.291 -32.1777 C 98.291 -17.4316 86.8652 -5.85938 72.1191 -5.85938 C 57.4219 -5.85938 45.8496 -17.4316 45.8496 -32.1777 Z"/>
  </g>
  <g id="Black-M" transform="matrix(1 0 0 1 2870.97 1126)">
   <path d="M 62.4023 18.5547 C 91.9922 18.5547 116.113 -5.56641 116.113 -35.1562 C 116.113 -64.7461 91.9922 -88.8184 62.4023 -88.8184 C 32.8125 -88.8184 8.74023 -64.7461 8.74023 -35.1562 C 8.74023 -5.56641 32.8125 18.5547 62.4023 18.5547 Z M 40.3809 -32.959 C 40.3809 -43.3594 47.6562 -52.5391 57.1289 -54.4922 C 57.4707 -54.541 57.9102 -54.6387 58.1543 -54.6875 L 57.959 -55.0293 C 57.4219 -55.8105 56.6895 -56.4941 56.6895 -58.1543 C 56.6895 -60.3516 58.3984 -62.6953 61.7676 -62.6953 C 63.4277 -62.6953 64.6973 -61.7676 65.6738 -60.7422 L 73.9258 -52.4902 C 75.8301 -50.6348 75.9766 -47.2168 73.877 -45.166 L 65.625 -36.9141 C 64.7461 -36.0352 63.3789 -35.4004 61.9629 -35.4004 C 59.0332 -35.4004 56.8359 -37.0117 56.8359 -40.332 C 56.8359 -41.1621 56.9336 -42.041 57.1777 -42.5293 L 57.2754 -42.8711 C 56.8359 -42.627 56.4941 -42.3828 56.1035 -42.2363 C 53.1738 -41.2109 51.416 -37.0117 51.416 -32.959 C 51.416 -26.8066 56.25 -21.9238 62.4023 -21.9238 C 68.5547 -21.9238 73.4375 -26.7578 73.4375 -32.959 C 73.4375 -35.9863 75.8789 -38.4277 79.0039 -38.4277 C 82.0312 -38.4277 84.4727 -35.9863 84.4727 -32.959 C 84.4727 -20.8008 74.5117 -10.8398 62.4023 -10.8398 C 50.3418 -10.8398 40.3809 -20.8008 40.3809 -32.959 Z"/>
  </g>
  <g id="Heavy-M" transform="matrix(1 0 0 1 2575.19 1126)">
   <path d="M 61.5234 17.627 C 90.5273 17.627 114.258 -6.10352 114.258 -35.1562 C 114.258 -64.1602 90.5273 -87.8906 61.4746 -87.8906 C 32.4707 -87.8906 8.74023 -64.1602 8.74023 -35.1562 C 8.74023 -6.10352 32.4707 17.627 61.5234 17.627 Z M 39.4043 -33.0078 C 39.4043 -43.8477 47.3633 -53.0762 57.2266 -54.5898 C 57.6172 -54.6387 58.0566 -54.6875 58.3496 -54.7363 L 57.373 -55.8105 C 56.7871 -56.543 56.2012 -57.2754 56.2012 -58.7402 C 56.2012 -60.791 57.8125 -62.9883 60.8398 -62.9883 C 62.2559 -62.9883 63.4277 -62.1582 64.3555 -61.2305 L 72.9004 -52.6367 C 74.6094 -50.9277 74.707 -47.8027 72.8516 -45.9473 L 64.2578 -37.3535 C 63.4766 -36.5723 62.207 -35.9863 60.9863 -35.9863 C 58.3008 -35.9863 56.2988 -37.5488 56.2988 -40.5273 C 56.2988 -41.3574 56.4453 -42.1875 56.7871 -42.7246 L 58.0078 -44.0918 C 57.5684 -43.9453 57.0801 -43.75 56.6406 -43.6523 C 52.3926 -42.8711 49.4629 -38.0859 49.4629 -32.959 C 49.4629 -26.2695 54.7363 -20.9473 61.4746 -20.9473 C 68.1641 -20.9473 73.4863 -26.2207 73.4863 -32.959 C 73.4863 -35.6934 75.7324 -37.9395 78.5645 -37.9395 C 81.2988 -37.9395 83.5449 -35.6934 83.5449 -32.959 C 83.5449 -20.8008 73.6328 -10.8398 61.4746 -10.8398 C 49.3652 -10.8398 39.4043 -20.8008 39.4043 -33.0078 Z"/>
  </g>
  <g id="Bold-M" transform="matrix(1 0 0 1 2279.5 1126)">
   <path d="M 60.498 16.6016 C 88.8672 16.6016 112.207 -6.73828 112.207 -35.1562 C 112.207 -63.5742 88.8672 -86.9141 60.4492 -86.9141 C 32.0312 -86.9141 8.74023 -63.5742 8.74023 -35.1562 C 8.74023 -6.73828 32.0801 16.6016 60.498 16.6016 Z M 38.3789 -33.0566 C 38.3789 -44.3359 47.0215 -53.7109 57.373 -54.6875 C 57.7148 -54.7363 58.2031 -54.7363 58.5449 -54.7363 L 56.6895 -56.6406 C 56.1035 -57.373 55.6152 -58.1055 55.6152 -59.375 C 55.6152 -61.3281 57.1289 -63.2324 59.7168 -63.2324 C 60.9863 -63.2324 62.0605 -62.5977 62.8418 -61.7676 L 71.7285 -52.7832 C 73.2422 -51.2695 73.3398 -48.4375 71.6797 -46.8262 L 62.7441 -37.8906 C 62.0117 -37.1582 60.9375 -36.6699 59.8145 -36.6699 C 57.4707 -36.6699 55.7129 -38.1836 55.7129 -40.7227 C 55.7129 -41.5527 55.9082 -42.3828 56.3477 -42.9199 L 58.7891 -45.459 C 58.3008 -45.4102 57.8125 -45.3125 57.2754 -45.2148 C 51.5625 -44.7266 47.3145 -39.2578 47.3145 -32.959 C 47.3145 -25.6348 53.125 -19.7754 60.4492 -19.7754 C 67.7734 -19.7754 73.584 -25.6348 73.584 -32.959 C 73.584 -35.4004 75.5859 -37.4023 78.125 -37.4023 C 80.5176 -37.4023 82.5195 -35.4004 82.5195 -32.959 C 82.5195 -20.752 72.6074 -10.8398 60.4492 -10.8398 C 48.291 -10.8398 38.3789 -20.752 38.3789 -33.0566 Z"/>
  </g>
  <g id="Semibold-M" transform="matrix(1 0 0 1 1983.5 1126)">
   <path d="M 59.7656 15.8691 C 87.7441 15.8691 110.791 -7.17773 110.791 -35.1562 C 110.791 -63.1348 87.6953 -86.1816 59.7656 -86.1816 C 31.7871 -86.1816 8.74023 -63.1348 8.74023 -35.1562 C 8.74023 -7.17773 31.7871 15.8691 59.7656 15.8691 Z M 37.6465 -33.0566 C 37.6465 -44.7266 46.7773 -54.1504 57.4219 -54.7363 C 57.8613 -54.7852 58.3496 -54.7852 58.6914 -54.7363 L 56.2012 -57.2754 C 55.6641 -57.9102 55.2246 -58.6914 55.2246 -59.8145 C 55.2246 -61.7188 56.6895 -63.4277 58.9844 -63.4277 C 60.1074 -63.4277 61.084 -62.8906 61.7676 -62.1582 L 70.8984 -52.9297 C 72.2656 -51.5137 72.3633 -48.9258 70.8984 -47.4121 L 61.7188 -38.2812 C 61.0352 -37.5977 60.0098 -37.1094 59.0332 -37.1094 C 56.8848 -37.1094 55.2734 -38.623 55.2734 -40.8203 C 55.2734 -41.748 55.5176 -42.5293 56.0059 -43.0664 L 59.3262 -46.4355 C 58.8379 -46.3867 58.3008 -46.3379 57.7148 -46.3379 C 50.9766 -45.9961 45.8008 -40.0391 45.8008 -32.959 C 45.8008 -25.1953 51.9531 -18.9941 59.7656 -18.9941 C 67.4805 -18.9941 73.6816 -25.1953 73.6816 -32.959 C 73.6816 -35.1562 75.4883 -37.0117 77.7832 -37.0117 C 79.9805 -37.0117 81.8359 -35.1562 81.8359 -32.959 C 81.8359 -20.752 71.9727 -10.8398 59.7656 -10.8398 C 47.5586 -10.8398 37.6465 -20.752 37.6465 -33.0566 Z"/>
  </g>
  <g id="Medium-M" transform="matrix(1 0 0 1 1687.3 1126)">
   <path d="M 59.2285 15.332 C 86.9141 15.332 109.766 -7.51953 109.766 -35.1562 C 109.766 -62.793 86.8652 -85.6445 59.1797 -85.6445 C 31.543 -85.6445 8.74023 -62.793 8.74023 -35.1562 C 8.74023 -7.51953 31.5918 15.332 59.2285 15.332 Z M 37.1094 -33.1055 C 37.1094 -44.9707 46.6309 -54.4434 57.4707 -54.834 C 57.9102 -54.834 58.4473 -54.7852 58.7891 -54.7852 L 55.8594 -57.7148 C 55.2734 -58.3496 54.9316 -59.1309 54.9316 -60.1562 C 54.9316 -62.0117 56.3477 -63.5742 58.3984 -63.5742 C 59.4238 -63.5742 60.3516 -63.1348 60.9863 -62.4023 L 70.2637 -52.9785 C 71.5332 -51.6602 71.6309 -49.2188 70.2637 -47.9004 L 60.8887 -38.5254 C 60.2539 -37.8906 59.375 -37.5 58.4473 -37.5 C 56.4453 -37.5 54.9805 -38.916 54.9805 -40.918 C 54.9805 -41.8457 55.2246 -42.627 55.7617 -43.2129 L 59.7656 -47.1191 C 59.2773 -47.168 58.6426 -47.168 58.0566 -47.1191 C 50.5371 -46.9727 44.6777 -40.6738 44.6777 -32.959 C 44.6777 -24.9023 51.123 -18.4082 59.1797 -18.4082 C 67.2852 -18.4082 73.7305 -24.9023 73.7305 -32.959 C 73.7305 -35.0098 75.4395 -36.7188 77.5391 -36.7188 C 79.5898 -36.7188 81.2988 -35.0098 81.2988 -32.959 C 81.2988 -20.752 71.4355 -10.8398 59.1797 -10.8398 C 46.9727 -10.8398 37.1094 -20.752 37.1094 -33.1055 Z"/>
  </g>
  <g id="Regular-M" transform="matrix(1 0 0 1 1391.3 1126)">
   <path d="M 58.5449 14.6484 C 85.791 14.6484 108.35 -7.95898 108.35 -35.1562 C 108.35 -62.4023 85.7422 -84.9609 58.4961 -84.9609 C 31.2988 -84.9609 8.74023 -62.4023 8.74023 -35.1562 C 8.74023 -7.95898 31.3477 14.6484 58.5449 14.6484 Z M 36.377 -33.1543 C 36.377 -45.3125 46.3867 -54.8828 57.5684 -54.8828 C 58.0078 -54.8828 58.5449 -54.834 58.8867 -54.7852 L 55.3711 -58.3008 C 54.834 -58.8867 54.541 -59.7168 54.541 -60.5957 C 54.541 -62.3535 55.8594 -63.7695 57.666 -63.7695 C 58.5449 -63.7695 59.375 -63.4277 59.9609 -62.793 L 69.4824 -53.0762 C 70.6055 -51.9043 70.7031 -49.6582 69.4824 -48.4863 L 59.8633 -38.916 C 59.2773 -38.3301 58.4961 -37.9395 57.666 -37.9395 C 55.9082 -37.9395 54.541 -39.3555 54.541 -41.0645 C 54.541 -41.9922 54.8828 -42.7734 55.4688 -43.3594 L 60.3027 -48.0957 C 59.8145 -48.1934 59.1309 -48.1934 58.4961 -48.1934 C 50 -48.1934 43.2129 -41.4551 43.2129 -33.0078 C 43.2129 -24.4629 50 -17.627 58.4961 -17.627 C 66.9922 -17.627 73.7793 -24.4629 73.7793 -33.0078 C 73.7793 -34.8145 75.3418 -36.3281 77.1973 -36.3281 C 79.0527 -36.3281 80.6152 -34.8145 80.6152 -33.0078 C 80.6152 -20.752 70.752 -10.791 58.4961 -10.791 C 46.2402 -10.791 36.377 -20.752 36.377 -33.1543 Z"/>
  </g>
  <g id="Light-M" transform="matrix(1 0 0 1 1095.42 1126)">
   <path d="M 57.7148 13.8184 C 84.5215 13.8184 106.689 -8.30078 106.689 -35.1562 C 106.689 -61.9629 84.5215 -84.1309 57.666 -84.1309 C 30.8594 -84.1309 8.74023 -61.9629 8.74023 -35.1562 C 8.74023 -8.30078 30.9082 13.8184 57.7148 13.8184 Z M 36.1328 -33.0566 C 36.1328 -45.0195 45.8008 -54.3457 57.0801 -54.3457 C 57.959 -54.3457 58.9355 -54.1992 59.668 -54.1016 L 54.5898 -59.1797 C 54.1016 -59.7168 53.9062 -60.4004 53.9062 -61.084 C 53.9062 -62.5 54.9805 -63.623 56.4453 -63.623 C 57.1777 -63.623 57.8613 -63.3301 58.3496 -62.7441 L 68.1641 -52.7344 C 69.1406 -51.709 69.1406 -49.8535 68.1641 -48.877 L 58.2031 -38.7695 C 57.7637 -38.3301 57.0801 -38.0371 56.4453 -38.0371 C 55.0293 -38.0371 53.9551 -39.1602 53.9551 -40.5273 C 53.9551 -41.3086 54.1992 -41.9434 54.7363 -42.5293 L 61.0352 -48.7305 C 60.1074 -48.9746 58.9355 -49.0234 57.666 -49.0234 C 48.6328 -49.0234 41.5039 -41.9434 41.5039 -32.959 C 41.5039 -23.877 48.6328 -16.6992 57.666 -16.6992 C 66.6992 -16.6992 73.8281 -23.9258 73.8281 -32.959 C 73.8281 -34.375 75.0488 -35.5957 76.5625 -35.5957 C 77.9785 -35.5957 79.248 -34.375 79.248 -32.959 C 79.248 -20.9473 69.6777 -11.3281 57.666 -11.3281 C 45.7031 -11.3281 36.1328 -20.9473 36.1328 -33.0566 Z"/>
  </g>
  <g id="Thin-M" transform="matrix(1 0 0 1 799.806 1126)">
   <path d="M 56.6406 12.793 C 82.9102 12.793 104.492 -8.78906 104.492 -35.1074 C 104.492 -61.377 82.9102 -82.959 56.5918 -82.959 C 30.3223 -82.959 8.74023 -61.377 8.74023 -35.1074 C 8.74023 -8.78906 30.3223 12.793 56.6406 12.793 Z M 35.791 -32.959 C 35.791 -44.5801 45.0195 -53.6133 56.3965 -53.6133 C 57.959 -53.6133 59.4238 -53.418 60.6934 -53.2715 L 53.5645 -60.4004 C 53.125 -60.791 53.0762 -61.2793 53.0762 -61.7188 C 53.0762 -62.6953 53.8086 -63.4277 54.834 -63.4277 C 55.3223 -63.4277 55.8105 -63.1836 56.25 -62.6953 L 66.4062 -52.2461 C 67.1875 -51.416 67.0898 -50.0977 66.4062 -49.3652 L 56.0059 -38.623 C 55.7617 -38.3789 55.2734 -38.1348 54.8828 -38.1348 C 53.8574 -38.1348 53.125 -38.916 53.125 -39.8438 C 53.125 -40.4297 53.2715 -40.8691 53.8086 -41.4062 L 62.0605 -49.6094 C 60.5469 -50 58.6426 -50.1465 56.5918 -50.1465 C 46.875 -50.1465 39.2578 -42.5781 39.2578 -32.9102 C 39.2578 -23.1445 46.875 -15.5273 56.5918 -15.5273 C 66.2598 -15.5273 73.877 -23.1934 73.877 -32.9102 C 73.877 -33.8379 74.6582 -34.668 75.6836 -34.668 C 76.5625 -34.668 77.3926 -33.8379 77.3926 -32.9102 C 77.3926 -21.2402 68.3105 -12.0117 56.5918 -12.0117 C 44.9707 -12.0117 35.791 -21.2402 35.791 -32.959 Z"/>
  </g>
  <g id="Ultralight-M" transform="matrix(1 0 0 1 503.656 1126)">
   <path d="M 56.0547 12.2559 C 82.0801 12.2559 103.369 -9.0332 103.369 -35.0586 C 103.369 -61.084 82.0801 -82.373 56.0547 -82.373 C 30.0293 -82.373 8.74023 -61.084 8.74023 -35.0586 C 8.74023 -9.0332 30.0293 12.2559 56.0547 12.2559 Z M 35.5957 -32.9102 C 35.5957 -44.3359 44.6289 -53.2227 56.1035 -53.2227 C 57.9102 -53.2227 59.668 -52.9785 61.1816 -52.7832 L 53.0273 -60.9863 C 52.6367 -61.377 52.6367 -61.7188 52.6367 -62.0117 C 52.6367 -62.793 53.1738 -63.3789 54.0039 -63.3789 C 54.3945 -63.3789 54.7852 -63.1348 55.127 -62.6953 L 65.5273 -52.002 C 66.1621 -51.2695 66.0645 -50.2441 65.5273 -49.6094 L 54.8828 -38.5742 C 54.7363 -38.3789 54.3457 -38.1836 54.0527 -38.1836 C 53.2715 -38.1836 52.6855 -38.8184 52.6855 -39.4531 C 52.6855 -39.9414 52.832 -40.332 53.3203 -40.8203 L 62.5488 -50.0488 C 60.7422 -50.4883 58.5449 -50.6836 56.0547 -50.6836 C 45.9961 -50.6836 38.1348 -42.8711 38.1348 -32.9102 C 38.1348 -22.7539 45.9961 -14.8926 56.0547 -14.8926 C 66.0645 -14.8926 73.9258 -22.8516 73.9258 -32.9102 C 73.9258 -33.5449 74.4629 -34.1797 75.2441 -34.1797 C 75.8789 -34.1797 76.4648 -33.5449 76.4648 -32.9102 C 76.4648 -21.3867 67.5781 -12.3535 56.0547 -12.3535 C 44.6289 -12.3535 35.5957 -21.3867 35.5957 -32.9102 Z"/>
  </g>
  <g id="Black-S" transform="matrix(1 0 0 1 2884.57 696)">
   <path d="M 48.8281 6.83594 C 71.9727 6.83594 90.8203 -12.0117 90.8203 -35.1562 C 90.8203 -58.3008 71.9727 -77.1484 48.8281 -77.1484 C 25.6836 -77.1484 6.83594 -58.3008 6.83594 -35.1562 C 6.83594 -12.0117 25.6836 6.83594 48.8281 6.83594 Z M 31.543 -33.4473 C 31.543 -41.6504 37.3047 -48.8281 44.7754 -50.3418 C 45.0195 -50.3906 45.3613 -50.4395 45.5566 -50.4883 L 45.3613 -50.7812 C 44.9219 -51.416 44.3848 -51.9531 44.3848 -53.2227 C 44.3848 -54.9316 45.7031 -56.7871 48.3398 -56.7871 C 49.6094 -56.7871 50.5859 -56.0547 51.3672 -55.2734 L 57.8613 -48.7793 C 59.3262 -47.3145 59.4238 -44.6777 57.8125 -43.0664 L 51.3184 -36.5723 C 50.6348 -35.8887 49.5605 -35.4004 48.4863 -35.4004 C 46.1914 -35.4004 44.4824 -36.6699 44.4824 -39.2578 C 44.4824 -39.8926 44.5801 -40.5762 44.7754 -40.9668 L 44.9219 -41.3086 C 44.5801 -41.1133 44.2871 -40.918 43.9941 -40.8203 C 41.6016 -40.0391 40.1367 -36.7188 40.1367 -33.4473 C 40.1367 -28.6133 43.9453 -24.7559 48.8281 -24.7559 C 53.6621 -24.7559 57.5195 -28.5645 57.5195 -33.4473 C 57.5195 -35.791 59.4238 -37.6953 61.8652 -37.6953 C 64.209 -37.6953 66.1133 -35.791 66.1133 -33.4473 C 66.1133 -23.9258 58.3008 -16.1133 48.8281 -16.1133 C 39.3555 -16.1133 31.543 -23.9258 31.543 -33.4473 Z"/>
  </g>
  <g id="Heavy-S" transform="matrix(1 0 0 1 2588.47 696)">
   <path d="M 48.2422 6.20117 C 70.9961 6.20117 89.5996 -12.4023 89.5996 -35.1562 C 89.5996 -57.9102 70.9961 -76.5625 48.1934 -76.5625 C 25.4395 -76.5625 6.83594 -57.9102 6.83594 -35.1562 C 6.83594 -12.4023 25.4395 6.20117 48.2422 6.20117 Z M 30.8594 -33.4961 C 30.8594 -42.041 37.1582 -49.3164 44.9219 -50.4883 C 45.1172 -50.4883 45.4102 -50.5371 45.6055 -50.5859 L 44.9707 -51.2695 C 44.5312 -51.8555 44.043 -52.4414 44.043 -53.6133 C 44.043 -55.2734 45.3613 -56.9824 47.7539 -56.9824 C 48.877 -56.9824 49.8047 -56.3477 50.5371 -55.6641 L 57.1777 -48.9258 C 58.5449 -47.5586 58.6426 -45.1172 57.1777 -43.6035 L 50.4395 -36.9629 C 49.8047 -36.3281 48.8281 -35.8398 47.8516 -35.8398 C 45.7031 -35.8398 44.1406 -37.1094 44.1406 -39.4531 C 44.1406 -40.1367 44.2871 -40.8203 44.5312 -41.2109 L 45.3613 -42.1875 C 45.0684 -42.041 44.7754 -41.8945 44.5312 -41.7969 C 41.1621 -41.2109 38.8184 -37.4512 38.8184 -33.4473 C 38.8184 -28.2227 42.9688 -24.0723 48.1934 -24.0723 C 53.418 -24.0723 57.5684 -28.2227 57.5684 -33.4473 C 57.5684 -35.6445 59.375 -37.4023 61.6211 -37.4023 C 63.7695 -37.4023 65.5762 -35.6445 65.5762 -33.4473 C 65.5762 -23.877 57.7637 -16.0645 48.1934 -16.0645 C 38.6719 -16.0645 30.8594 -23.877 30.8594 -33.4961 Z"/>
  </g>
  <g id="Bold-S" transform="matrix(1 0 0 1 2292.44 696)">
   <path d="M 47.5586 5.51758 C 69.873 5.51758 88.2324 -12.8418 88.2324 -35.1562 C 88.2324 -57.5195 69.873 -75.8789 47.5098 -75.8789 C 25.1953 -75.8789 6.83594 -57.5195 6.83594 -35.1562 C 6.83594 -12.8418 25.1953 5.51758 47.5586 5.51758 Z M 30.0781 -33.5449 C 30.0781 -42.4805 36.9629 -49.8535 45.0684 -50.6348 C 45.2148 -50.6348 45.5078 -50.6836 45.6543 -50.6836 L 44.5801 -51.8066 C 44.0918 -52.3926 43.7012 -53.0273 43.7012 -54.0527 C 43.7012 -55.6641 44.9707 -57.2266 47.0703 -57.2266 C 48.0469 -57.2266 48.9258 -56.6895 49.5605 -56.0547 L 56.4453 -49.0723 C 57.666 -47.8516 57.7637 -45.5566 56.4453 -44.2383 L 49.5117 -37.3535 C 48.9258 -36.7676 47.998 -36.377 47.1191 -36.377 C 45.2148 -36.377 43.75 -37.5977 43.75 -39.6484 C 43.75 -40.3809 43.9453 -41.0645 44.2871 -41.5039 L 45.8984 -43.1641 C 45.6543 -43.0664 45.3613 -42.9688 45.1172 -42.9199 C 40.6738 -42.5293 37.4023 -38.2812 37.4023 -33.4473 C 37.4023 -27.832 41.8457 -23.3398 47.5098 -23.3398 C 53.1738 -23.3398 57.666 -27.832 57.666 -33.4473 C 57.666 -35.4492 59.2773 -37.0605 61.3281 -37.0605 C 63.3301 -37.0605 64.9414 -35.4492 64.9414 -33.4473 C 64.9414 -23.8281 57.1289 -15.9668 47.5098 -15.9668 C 37.9395 -15.9668 30.0781 -23.8281 30.0781 -33.5449 Z"/>
  </g>
  <g id="Semibold-S" transform="matrix(1 0 0 1 1996.2 696)">
   <path d="M 47.0703 5.0293 C 69.0918 5.0293 87.3047 -13.1348 87.3047 -35.2051 C 87.3047 -57.2266 69.0918 -75.4395 47.0215 -75.4395 C 25 -75.4395 6.83594 -57.2266 6.83594 -35.2051 C 6.83594 -13.1348 25.0488 5.0293 47.0703 5.0293 Z M 29.541 -33.5938 C 29.541 -42.7734 36.8652 -50.2441 45.166 -50.7324 C 45.3125 -50.7324 45.5566 -50.7324 45.7031 -50.7324 L 44.2871 -52.1973 C 43.7988 -52.7344 43.457 -53.418 43.457 -54.3457 C 43.457 -55.957 44.6777 -57.373 46.582 -57.373 C 47.5098 -57.373 48.3398 -56.9336 48.877 -56.3477 L 55.957 -49.2188 C 57.0801 -48.0469 57.1777 -45.8984 55.957 -44.6777 L 48.8281 -37.6465 C 48.291 -37.1094 47.4609 -36.7188 46.6309 -36.7188 C 44.8242 -36.7188 43.5059 -37.9395 43.5059 -39.7949 C 43.5059 -40.5762 43.7012 -41.2109 44.0918 -41.6992 L 46.2402 -43.7988 C 45.9961 -43.75 45.752 -43.7012 45.5078 -43.6523 C 40.3809 -43.4082 36.377 -38.8672 36.377 -33.4961 C 36.377 -27.5391 41.1133 -22.8027 47.0215 -22.8027 C 52.9785 -22.8027 57.7148 -27.5391 57.7148 -33.4961 C 57.7148 -35.3027 59.2285 -36.8652 61.1328 -36.8652 C 62.9883 -36.8652 64.5508 -35.3027 64.5508 -33.4961 C 64.5508 -23.8281 56.6895 -15.918 47.0215 -15.918 C 37.4023 -15.918 29.541 -23.8281 29.541 -33.5938 Z"/>
  </g>
  <g id="Medium-S" transform="matrix(1 0 0 1 1699.83 696)">
   <path d="M 46.7285 4.6875 C 68.5547 4.6875 86.6211 -13.3789 86.6211 -35.2051 C 86.6211 -56.9824 68.5059 -75.0977 46.6797 -75.0977 C 24.8535 -75.0977 6.83594 -56.9824 6.83594 -35.2051 C 6.83594 -13.3789 24.9023 4.6875 46.7285 4.6875 Z M 29.1504 -33.5938 C 29.1504 -43.0176 36.7676 -50.5371 45.2148 -50.7812 C 45.3613 -50.7812 45.6055 -50.7812 45.752 -50.7812 L 44.043 -52.4902 C 43.6035 -52.9785 43.2617 -53.7109 43.2617 -54.541 C 43.2617 -56.1523 44.4824 -57.4707 46.2402 -57.4707 C 47.0703 -57.4707 47.8516 -57.1289 48.3887 -56.543 L 55.5664 -49.3164 C 56.5918 -48.1934 56.6895 -46.1426 55.5664 -45.0195 L 48.3398 -37.8906 C 47.8027 -37.3535 47.0215 -36.9629 46.2402 -36.9629 C 44.5801 -36.9629 43.2617 -38.2324 43.2617 -39.8926 C 43.2617 -40.6738 43.5547 -41.3574 43.9453 -41.7969 L 46.4844 -44.3359 C 46.2891 -44.2871 46.0449 -44.2871 45.8008 -44.2383 C 40.0879 -44.0918 35.6445 -39.3066 35.6445 -33.4961 C 35.6445 -27.3438 40.5273 -22.4121 46.6797 -22.4121 C 52.832 -22.4121 57.7148 -27.3438 57.7148 -33.4961 C 57.7148 -35.2051 59.1797 -36.6699 60.9863 -36.6699 C 62.7441 -36.6699 64.209 -35.2051 64.209 -33.4961 C 64.209 -23.7793 56.3477 -15.918 46.6797 -15.918 C 37.0117 -15.918 29.1504 -23.7793 29.1504 -33.5938 Z"/>
  </g>
  <g id="Regular-S" transform="matrix(1 0 0 1 1403.58 696)">
   <path d="M 46.2402 4.19922 C 67.7734 4.19922 85.6934 -13.6719 85.6934 -35.2051 C 85.6934 -56.7383 67.7246 -74.6094 46.1914 -74.6094 C 24.707 -74.6094 6.83594 -56.7383 6.83594 -35.2051 C 6.83594 -13.6719 24.7559 4.19922 46.2402 4.19922 Z M 28.6133 -33.6426 C 28.6133 -43.3105 36.6211 -50.8789 45.3125 -50.8789 C 45.459 -50.8789 45.6543 -50.8789 45.752 -50.8789 L 43.75 -52.8809 C 43.3105 -53.3691 43.0176 -54.1016 43.0176 -54.8828 C 43.0176 -56.3965 44.1895 -57.666 45.752 -57.666 C 46.5332 -57.666 47.2656 -57.373 47.7539 -56.8359 L 55.0781 -49.4141 C 56.0059 -48.3887 56.1035 -46.4844 55.0781 -45.4102 L 47.7051 -38.1836 C 47.168 -37.6465 46.4844 -37.3047 45.752 -37.3047 C 44.1895 -37.3047 43.0176 -38.5254 43.0176 -40.0391 C 43.0176 -40.8691 43.3105 -41.5039 43.7988 -41.9922 L 46.8262 -44.9707 C 46.6797 -44.9707 46.3867 -45.0195 46.1914 -45.0195 C 39.7949 -45.0195 34.668 -39.8926 34.668 -33.4961 C 34.668 -27.0508 39.7949 -21.875 46.1914 -21.875 C 52.6367 -21.875 57.7637 -27.0508 57.7637 -33.4961 C 57.7637 -35.1074 59.1309 -36.4746 60.791 -36.4746 C 62.4512 -36.4746 63.8184 -35.1074 63.8184 -33.4961 C 63.8184 -23.7793 55.957 -15.8691 46.1914 -15.8691 C 36.4746 -15.8691 28.6133 -23.7793 28.6133 -33.6426 Z"/>
  </g>
  <g id="Light-S" transform="matrix(1 0 0 1 1107.6 696)">
   <path d="M 45.5078 3.51562 C 66.6992 3.51562 84.2285 -14.0137 84.2285 -35.1562 C 84.2285 -56.3477 66.6504 -73.877 45.5078 -73.877 C 24.3164 -73.877 6.83594 -56.3477 6.83594 -35.1562 C 6.83594 -14.0137 24.3652 3.51562 45.5078 3.51562 Z M 28.3691 -33.5449 C 28.3691 -43.0176 36.084 -50.3906 44.873 -50.3906 C 45.4102 -50.3906 45.9961 -50.3418 46.4355 -50.293 L 43.0664 -53.6621 C 42.627 -54.1016 42.4805 -54.6875 42.4805 -55.2734 C 42.4805 -56.543 43.4082 -57.5195 44.6777 -57.5195 C 45.3125 -57.5195 45.8984 -57.2754 46.3379 -56.7871 L 53.9062 -49.0723 C 54.7363 -48.1934 54.7363 -46.6309 53.9062 -45.752 L 46.2402 -38.0859 C 45.8496 -37.6465 45.2637 -37.4023 44.6777 -37.4023 C 43.4082 -37.4023 42.4805 -38.3789 42.4805 -39.5996 C 42.4805 -40.2832 42.7246 -40.8203 43.1641 -41.2598 L 47.5098 -45.5566 C 46.9727 -45.7031 46.2402 -45.752 45.5078 -45.752 C 38.623 -45.752 33.1543 -40.2832 33.1543 -33.4473 C 33.1543 -26.5625 38.623 -21.0938 45.5078 -21.0938 C 52.3438 -21.0938 57.8125 -26.5625 57.8125 -33.4473 C 57.8125 -34.7168 58.8867 -35.791 60.2051 -35.791 C 61.4746 -35.791 62.5977 -34.7168 62.5977 -33.4473 C 62.5977 -23.9746 54.9805 -16.3086 45.5078 -16.3086 C 35.9863 -16.3086 28.3691 -23.9746 28.3691 -33.5449 Z"/>
  </g>
  <g id="Thin-S" transform="matrix(1 0 0 1 811.867 696)">
   <path d="M 44.5801 2.58789 C 65.2832 2.58789 82.2754 -14.4043 82.2754 -35.1562 C 82.2754 -55.8594 65.2344 -72.8516 44.5312 -72.8516 C 23.8281 -72.8516 6.83594 -55.8594 6.83594 -35.1562 C 6.83594 -14.4043 23.877 2.58789 44.5801 2.58789 Z M 28.0762 -33.4473 C 28.0762 -42.627 35.4004 -49.7559 44.3359 -49.7559 C 45.4102 -49.7559 46.4355 -49.6094 47.3145 -49.5117 L 42.1387 -54.6875 C 41.7969 -55.0293 41.748 -55.4688 41.748 -55.8594 C 41.748 -56.7383 42.3828 -57.373 43.2617 -57.373 C 43.7012 -57.373 44.0918 -57.1777 44.4336 -56.7871 L 52.3438 -48.6816 C 52.9785 -47.9492 52.9297 -46.8262 52.3438 -46.1914 L 44.2871 -37.9395 C 44.043 -37.6953 43.6523 -37.5 43.2617 -37.5 C 42.3828 -37.5 41.748 -38.1836 41.748 -38.9648 C 41.748 -39.4531 41.8945 -39.8438 42.334 -40.2832 L 48.3887 -46.3379 C 47.3145 -46.582 45.9961 -46.6797 44.5312 -46.6797 C 37.0605 -46.6797 31.2012 -40.8691 31.2012 -33.4473 C 31.2012 -25.9277 37.0605 -20.0195 44.5312 -20.0195 C 52.002 -20.0195 57.8613 -25.9277 57.8613 -33.4473 C 57.8613 -34.2285 58.5449 -34.9609 59.4727 -34.9609 C 60.2539 -34.9609 60.9863 -34.2285 60.9863 -33.4473 C 60.9863 -24.2188 53.7598 -16.8945 44.5312 -16.8945 C 35.3516 -16.8945 28.0762 -24.2188 28.0762 -33.4473 Z"/>
  </g>
  <g id="Ultralight-S" transform="matrix(1 0 0 1 515.644 696)">
   <path d="M 44.043 2.09961 C 64.502 2.09961 81.2988 -14.6484 81.2988 -35.1074 C 81.2988 -55.5664 64.502 -72.3145 44.043 -72.3145 C 23.584 -72.3145 6.83594 -55.5664 6.83594 -35.1074 C 6.83594 -14.6484 23.584 2.09961 44.043 2.09961 Z M 27.9297 -33.3984 C 27.9297 -42.4316 35.0586 -49.4629 43.9941 -49.4629 C 45.3613 -49.4629 46.6797 -49.2676 47.8027 -49.1211 L 41.6504 -55.2246 C 41.3574 -55.5664 41.3574 -55.8594 41.3574 -56.1523 C 41.3574 -56.8359 41.8457 -57.2754 42.4805 -57.2754 C 42.8711 -57.2754 43.1641 -57.0801 43.5059 -56.7383 L 51.5625 -48.4375 C 52.0996 -47.8516 52.002 -46.9238 51.5625 -46.4355 L 43.3105 -37.8418 C 43.1152 -37.6953 42.8223 -37.5488 42.5293 -37.5488 C 41.8457 -37.5488 41.4062 -38.0859 41.4062 -38.623 C 41.4062 -39.0625 41.5039 -39.3555 41.8945 -39.7461 L 48.877 -46.7285 C 47.5098 -47.0703 45.8984 -47.2168 44.043 -47.2168 C 36.2793 -47.2168 30.1758 -41.1621 30.1758 -33.3984 C 30.1758 -25.5859 36.2793 -19.4824 44.043 -19.4824 C 51.8066 -19.4824 57.9102 -25.6348 57.9102 -33.3984 C 57.9102 -33.9844 58.3984 -34.5215 59.082 -34.5215 C 59.6191 -34.5215 60.1562 -33.9844 60.1562 -33.3984 C 60.1562 -24.3164 53.125 -17.2363 44.043 -17.2363 C 35.0586 -17.2363 27.9297 -24.3164 27.9297 -33.3984 Z"/>
  </g>
 </g>
</svg>
