<?xml version="1.0" encoding="UTF-8"?>
<!--Generator: Apple Native CoreSVG 123-->
<!DOCTYPE svg
PUBLIC "-//W3C//DTD SVG 1.1//EN"
       "http://www.w3.org/Graphics/SVG/1.1/DTD/svg11.dtd">
<svg version="1.1" xmlns="http://www.w3.org/2000/svg" xmlns:xlink="http://www.w3.org/1999/xlink" width="3300" height="2200">
 <!--glyph: "uni100580.medium", point size: 100.000000, font version: "Version 15.0d7e11", template writer version: "5"-->
 <g id="Notes">
  <rect height="2200" id="artboard" style="fill:white;opacity:1" width="3300" x="0" y="0"/>
  <line id="" style="fill:none;stroke:black;opacity:1;stroke-width:0.5;" x1="263" x2="3036" y1="292" y2="292"/>
  <text style="stroke:none;fill:black;font-family:-apple-system,&quot;SF Pro Display&quot;,&quot;SF Pro Text&quot;,Helvetica,sans-serif;font-weight:bold;" transform="matrix(1 0 0 1 263 322)">Weight/Scale Variations</text>
  <text style="stroke:none;fill:black;font-family:-apple-system,&quot;SF Pro Display&quot;,&quot;SF Pro Text&quot;,Helvetica,sans-serif;text-anchor:middle;" transform="matrix(1 0 0 1 559.711 322)">Ultralight</text>
  <text style="stroke:none;fill:black;font-family:-apple-system,&quot;SF Pro Display&quot;,&quot;SF Pro Text&quot;,Helvetica,sans-serif;text-anchor:middle;" transform="matrix(1 0 0 1 856.422 322)">Thin</text>
  <text style="stroke:none;fill:black;font-family:-apple-system,&quot;SF Pro Display&quot;,&quot;SF Pro Text&quot;,Helvetica,sans-serif;text-anchor:middle;" transform="matrix(1 0 0 1 1153.13 322)">Light</text>
  <text style="stroke:none;fill:black;font-family:-apple-system,&quot;SF Pro Display&quot;,&quot;SF Pro Text&quot;,Helvetica,sans-serif;text-anchor:middle;" transform="matrix(1 0 0 1 1449.84 322)">Regular</text>
  <text style="stroke:none;fill:black;font-family:-apple-system,&quot;SF Pro Display&quot;,&quot;SF Pro Text&quot;,Helvetica,sans-serif;text-anchor:middle;" transform="matrix(1 0 0 1 1746.56 322)">Medium</text>
  <text style="stroke:none;fill:black;font-family:-apple-system,&quot;SF Pro Display&quot;,&quot;SF Pro Text&quot;,Helvetica,sans-serif;text-anchor:middle;" transform="matrix(1 0 0 1 2043.27 322)">Semibold</text>
  <text style="stroke:none;fill:black;font-family:-apple-system,&quot;SF Pro Display&quot;,&quot;SF Pro Text&quot;,Helvetica,sans-serif;text-anchor:middle;" transform="matrix(1 0 0 1 2339.98 322)">Bold</text>
  <text style="stroke:none;fill:black;font-family:-apple-system,&quot;SF Pro Display&quot;,&quot;SF Pro Text&quot;,Helvetica,sans-serif;text-anchor:middle;" transform="matrix(1 0 0 1 2636.69 322)">Heavy</text>
  <text style="stroke:none;fill:black;font-family:-apple-system,&quot;SF Pro Display&quot;,&quot;SF Pro Text&quot;,Helvetica,sans-serif;text-anchor:middle;" transform="matrix(1 0 0 1 2933.4 322)">Black</text>
  <line id="" style="fill:none;stroke:black;opacity:1;stroke-width:0.5;" x1="263" x2="3036" y1="1903" y2="1903"/>
  <g id="" transform="matrix(1 0 0 1 263 1933)">
   <path d="M 9.24805 0.830078 C 13.5547 0.830078 17.1387 -2.74414 17.1387 -7.05078 C 17.1387 -11.3574 13.5449 -14.9316 9.23828 -14.9316 C 4.94141 -14.9316 1.36719 -11.3574 1.36719 -7.05078 C 1.36719 -2.74414 4.95117 0.830078 9.24805 0.830078 Z M 9.24805 -0.654297 C 5.70312 -0.654297 2.87109 -3.49609 2.87109 -7.05078 C 2.87109 -10.6055 5.69336 -13.4473 9.23828 -13.4473 C 12.793 -13.4473 15.6348 -10.6055 15.6445 -7.05078 C 15.6543 -3.49609 12.8027 -0.654297 9.24805 -0.654297 Z M 9.22852 -3.42773 C 9.69727 -3.42773 9.9707 -3.74023 9.9707 -4.25781 L 9.9707 -6.31836 L 12.1973 -6.31836 C 12.6953 -6.31836 13.0371 -6.57227 13.0371 -7.04102 C 13.0371 -7.51953 12.7148 -7.7832 12.1973 -7.7832 L 9.9707 -7.7832 L 9.9707 -10.0098 C 9.9707 -10.5273 9.69727 -10.8496 9.22852 -10.8496 C 8.75977 -10.8496 8.50586 -10.5078 8.50586 -10.0098 L 8.50586 -7.7832 L 6.29883 -7.7832 C 5.78125 -7.7832 5.44922 -7.51953 5.44922 -7.04102 C 5.44922 -6.57227 5.80078 -6.31836 6.29883 -6.31836 L 8.50586 -6.31836 L 8.50586 -4.25781 C 8.50586 -3.75977 8.75977 -3.42773 9.22852 -3.42773 Z"/>
  </g>
  <g id="" transform="matrix(1 0 0 1 281.506 1933)">
   <path d="M 11.709 2.91016 C 17.1582 2.91016 21.6699 -1.60156 21.6699 -7.05078 C 21.6699 -12.4902 17.1484 -17.0117 11.6992 -17.0117 C 6.25977 -17.0117 1.74805 -12.4902 1.74805 -7.05078 C 1.74805 -1.60156 6.26953 2.91016 11.709 2.91016 Z M 11.709 1.25 C 7.09961 1.25 3.41797 -2.44141 3.41797 -7.05078 C 3.41797 -11.6504 7.08984 -15.3516 11.6992 -15.3516 C 16.3086 -15.3516 20 -11.6504 20.0098 -7.05078 C 20.0195 -2.44141 16.3184 1.25 11.709 1.25 Z M 11.6895 -2.41211 C 12.207 -2.41211 12.5195 -2.77344 12.5195 -3.33984 L 12.5195 -6.23047 L 15.5762 -6.23047 C 16.123 -6.23047 16.5039 -6.51367 16.5039 -7.03125 C 16.5039 -7.55859 16.1426 -7.86133 15.5762 -7.86133 L 12.5195 -7.86133 L 12.5195 -10.9277 C 12.5195 -11.5039 12.207 -11.8555 11.6895 -11.8555 C 11.1719 -11.8555 10.8789 -11.4844 10.8789 -10.9277 L 10.8789 -7.86133 L 7.83203 -7.86133 C 7.26562 -7.86133 6.89453 -7.55859 6.89453 -7.03125 C 6.89453 -6.51367 7.28516 -6.23047 7.83203 -6.23047 L 10.8789 -6.23047 L 10.8789 -3.33984 C 10.8789 -2.79297 11.1719 -2.41211 11.6895 -2.41211 Z"/>
  </g>
  <g id="" transform="matrix(1 0 0 1 304.924 1933)">
   <path d="M 14.9707 5.67383 C 21.9336 5.67383 27.6953 -0.078125 27.6953 -7.04102 C 27.6953 -14.0039 21.9238 -19.7559 14.9609 -19.7559 C 8.00781 -19.7559 2.25586 -14.0039 2.25586 -7.04102 C 2.25586 -0.078125 8.01758 5.67383 14.9707 5.67383 Z M 14.9707 3.85742 C 8.93555 3.85742 4.08203 -1.00586 4.08203 -7.04102 C 4.08203 -13.0762 8.92578 -17.9395 14.9609 -17.9395 C 21.0059 -17.9395 25.8594 -13.0762 25.8691 -7.04102 C 25.8789 -1.00586 21.0156 3.85742 14.9707 3.85742 Z M 14.9512 -1.06445 C 15.5176 -1.06445 15.8691 -1.45508 15.8691 -2.06055 L 15.8691 -6.13281 L 20.1074 -6.13281 C 20.6934 -6.13281 21.1133 -6.46484 21.1133 -7.02148 C 21.1133 -7.59766 20.7227 -7.93945 20.1074 -7.93945 L 15.8691 -7.93945 L 15.8691 -12.1875 C 15.8691 -12.8027 15.5176 -13.1934 14.9512 -13.1934 C 14.3848 -13.1934 14.0625 -12.7832 14.0625 -12.1875 L 14.0625 -7.93945 L 9.83398 -7.93945 C 9.21875 -7.93945 8.80859 -7.59766 8.80859 -7.02148 C 8.80859 -6.46484 9.23828 -6.13281 9.83398 -6.13281 L 14.0625 -6.13281 L 14.0625 -2.06055 C 14.0625 -1.47461 14.3848 -1.06445 14.9512 -1.06445 Z"/>
  </g>
  <text style="stroke:none;fill:black;font-family:-apple-system,&quot;SF Pro Display&quot;,&quot;SF Pro Text&quot;,Helvetica,sans-serif;font-weight:bold;" transform="matrix(1 0 0 1 263 1953)">Design Variations</text>
  <text style="stroke:none;fill:black;font-family:-apple-system,&quot;SF Pro Display&quot;,&quot;SF Pro Text&quot;,Helvetica,sans-serif;" transform="matrix(1 0 0 1 263 1971)">Symbols are supported in up to nine weights and three scales.</text>
  <text style="stroke:none;fill:black;font-family:-apple-system,&quot;SF Pro Display&quot;,&quot;SF Pro Text&quot;,Helvetica,sans-serif;" transform="matrix(1 0 0 1 263 1989)">For optimal layout with text and other symbols, vertically align</text>
  <text style="stroke:none;fill:black;font-family:-apple-system,&quot;SF Pro Display&quot;,&quot;SF Pro Text&quot;,Helvetica,sans-serif;" transform="matrix(1 0 0 1 263 2007)">symbols with the adjacent text.</text>
  <rect height="14" id="" style="fill:#00AEEF;stroke:none;opacity:0.4;" width="3" x="776" y="1919"/>
  <g id="" transform="matrix(1 0 0 1 779 1933)">
   <path d="M 10.5273 0 L 12.373 0 L 7.17773 -14.0918 L 5.43945 -14.0918 L 0.244141 0 L 2.08984 0 L 3.50586 -4.0332 L 9.11133 -4.0332 Z M 6.2793 -11.9531 L 6.33789 -11.9531 L 8.59375 -5.52734 L 4.02344 -5.52734 Z"/>
  </g>
  <rect height="14" id="" style="fill:#00AEEF;stroke:none;opacity:0.4;" width="3" x="791.617" y="1919"/>
  <text style="stroke:none;fill:black;font-family:-apple-system,&quot;SF Pro Display&quot;,&quot;SF Pro Text&quot;,Helvetica,sans-serif;font-weight:bold;" transform="matrix(1 0 0 1 776 1953)">Margins</text>
  <text style="stroke:none;fill:black;font-family:-apple-system,&quot;SF Pro Display&quot;,&quot;SF Pro Text&quot;,Helvetica,sans-serif;" transform="matrix(1 0 0 1 776 1971)">Leading and trailing margins on the left and right side of each symbol</text>
  <text style="stroke:none;fill:black;font-family:-apple-system,&quot;SF Pro Display&quot;,&quot;SF Pro Text&quot;,Helvetica,sans-serif;" transform="matrix(1 0 0 1 776 1989)">can be adjusted by modifying the width of the blue rectangles.</text>
  <text style="stroke:none;fill:black;font-family:-apple-system,&quot;SF Pro Display&quot;,&quot;SF Pro Text&quot;,Helvetica,sans-serif;" transform="matrix(1 0 0 1 776 2007)">Modifications are automatically applied proportionally to all</text>
  <text style="stroke:none;fill:black;font-family:-apple-system,&quot;SF Pro Display&quot;,&quot;SF Pro Text&quot;,Helvetica,sans-serif;" transform="matrix(1 0 0 1 776 2025)">scales and weights.</text>
  <g id="" transform="matrix(1 0 0 1 1289 1933)">
   <path d="M 2.83203 3.11523 L 4.375 4.6582 C 5.22461 5.48828 6.19141 5.41992 7.06055 4.46289 L 17.2754 -6.66016 C 17.7051 -6.36719 18.0957 -6.37695 18.5645 -6.47461 L 19.6094 -6.68945 L 20.3027 -5.99609 L 20.2539 -5.47852 C 20.1855 -4.95117 20.3516 -4.53125 20.8496 -4.0332 L 21.6602 -3.22266 C 22.168 -2.71484 22.8223 -2.68555 23.3008 -3.16406 L 26.5527 -6.41602 C 27.0312 -6.89453 27.0117 -7.54883 26.5039 -8.05664 L 25.6836 -8.87695 C 25.1855 -9.375 24.7754 -9.55078 24.2383 -9.47266 L 23.7109 -9.41406 L 23.0566 -10.0781 L 23.3398 -11.2207 C 23.4863 -11.7871 23.3398 -12.2559 22.7148 -12.8613 L 20.3027 -15.2539 C 16.7578 -18.7793 12.2266 -18.6719 9.11133 -15.5371 C 8.69141 -15.1074 8.64258 -14.5215 8.91602 -14.0918 C 9.15039 -13.7207 9.62891 -13.4961 10.2734 -13.6621 C 11.7871 -14.043 13.3008 -13.9258 14.7852 -12.9199 L 14.1602 -11.3379 C 13.9258 -10.752 13.9453 -10.2734 14.1797 -9.83398 L 3.01758 0.439453 C 2.08008 1.30859 1.97266 2.25586 2.83203 3.11523 Z M 10.6738 -15.1465 C 13.3398 -17.1387 16.6504 -16.8262 19.0527 -14.4141 L 21.6797 -11.8066 C 21.9141 -11.5723 21.9434 -11.3867 21.8848 -11.0938 L 21.5039 -9.53125 L 23.0762 -7.95898 L 24.043 -8.04688 C 24.3262 -8.07617 24.4141 -8.05664 24.6387 -7.83203 L 25.2637 -7.20703 L 22.5098 -4.46289 L 21.8848 -5.07812 C 21.6602 -5.30273 21.6406 -5.40039 21.6699 -5.68359 L 21.7578 -6.64062 L 20.1953 -8.20312 L 18.5742 -7.89062 C 18.291 -7.83203 18.1445 -7.83203 17.9102 -8.07617 L 15.7324 -10.2539 C 15.5078 -10.4883 15.4785 -10.625 15.6055 -10.9473 L 16.5527 -13.2227 C 14.9512 -14.7559 12.8418 -15.6055 10.8008 -14.9512 C 10.7129 -14.9219 10.6445 -14.9414 10.6152 -14.9805 C 10.5859 -15.0293 10.5859 -15.0781 10.6738 -15.1465 Z M 4.10156 2.41211 C 3.61328 1.91406 3.78906 1.61133 4.12109 1.30859 L 15.0781 -8.80859 L 16.3086 -7.57812 L 6.15234 3.34961 C 5.84961 3.68164 5.46875 3.7793 5.06836 3.37891 Z"/>
  </g>
  <text style="stroke:none;fill:black;font-family:-apple-system,&quot;SF Pro Display&quot;,&quot;SF Pro Text&quot;,Helvetica,sans-serif;font-weight:bold;" transform="matrix(1 0 0 1 1289 1953)">Exporting</text>
  <text style="stroke:none;fill:black;font-family:-apple-system,&quot;SF Pro Display&quot;,&quot;SF Pro Text&quot;,Helvetica,sans-serif;" transform="matrix(1 0 0 1 1289 1971)">Symbols should be outlined when exporting to ensure the</text>
  <text style="stroke:none;fill:black;font-family:-apple-system,&quot;SF Pro Display&quot;,&quot;SF Pro Text&quot;,Helvetica,sans-serif;" transform="matrix(1 0 0 1 1289 1989)">design is preserved when submitting to Xcode.</text>
  <text id="template-version" style="stroke:none;fill:black;font-family:-apple-system,&quot;SF Pro Display&quot;,&quot;SF Pro Text&quot;,Helvetica,sans-serif;text-anchor:end;" transform="matrix(1 0 0 1 3036 1933)">Template v.1.0</text>
  <text style="stroke:none;fill:black;font-family:-apple-system,&quot;SF Pro Display&quot;,&quot;SF Pro Text&quot;,Helvetica,sans-serif;text-anchor:end;" transform="matrix(1 0 0 1 3036 1951)">Generated from antenna.radiowaves.left.and.right</text>
  <text style="stroke:none;fill:black;font-family:-apple-system,&quot;SF Pro Display&quot;,&quot;SF Pro Text&quot;,Helvetica,sans-serif;text-anchor:end;" transform="matrix(1 0 0 1 3036 1969)">Typeset at 100 points</text>
  <text style="stroke:none;fill:black;font-family:-apple-system,&quot;SF Pro Display&quot;,&quot;SF Pro Text&quot;,Helvetica,sans-serif;" transform="matrix(1 0 0 1 263 726)">Small</text>
  <text style="stroke:none;fill:black;font-family:-apple-system,&quot;SF Pro Display&quot;,&quot;SF Pro Text&quot;,Helvetica,sans-serif;" transform="matrix(1 0 0 1 263 1156)">Medium</text>
  <text style="stroke:none;fill:black;font-family:-apple-system,&quot;SF Pro Display&quot;,&quot;SF Pro Text&quot;,Helvetica,sans-serif;" transform="matrix(1 0 0 1 263 1586)">Large</text>
 </g>
 <g id="Guides">
  <g id="H-reference" style="fill:#27AAE1;stroke:none;" transform="matrix(1 0 0 1 339 696)">
   <path d="M 54.9316 0 L 57.666 0 L 30.5664 -70.459 L 28.0762 -70.459 L 0.976562 0 L 3.66211 0 L 12.9395 -24.4629 L 45.7031 -24.4629 Z M 29.1992 -67.0898 L 29.4434 -67.0898 L 44.8242 -26.709 L 13.8184 -26.709 Z"/>
  </g>
  <line id="Baseline-S" style="fill:none;stroke:#27AAE1;opacity:1;stroke-width:0.577;" x1="263" x2="3036" y1="696" y2="696"/>
  <line id="Capline-S" style="fill:none;stroke:#27AAE1;opacity:1;stroke-width:0.577;" x1="263" x2="3036" y1="625.541" y2="625.541"/>
  <g id="H-reference" style="fill:#27AAE1;stroke:none;" transform="matrix(1 0 0 1 339 1126)">
   <path d="M 54.9316 0 L 57.666 0 L 30.5664 -70.459 L 28.0762 -70.459 L 0.976562 0 L 3.66211 0 L 12.9395 -24.4629 L 45.7031 -24.4629 Z M 29.1992 -67.0898 L 29.4434 -67.0898 L 44.8242 -26.709 L 13.8184 -26.709 Z"/>
  </g>
  <line id="Baseline-M" style="fill:none;stroke:#27AAE1;opacity:1;stroke-width:0.577;" x1="263" x2="3036" y1="1126" y2="1126"/>
  <line id="Capline-M" style="fill:none;stroke:#27AAE1;opacity:1;stroke-width:0.577;" x1="263" x2="3036" y1="1055.54" y2="1055.54"/>
  <g id="H-reference" style="fill:#27AAE1;stroke:none;" transform="matrix(1 0 0 1 339 1556)">
   <path d="M 54.9316 0 L 57.666 0 L 30.5664 -70.459 L 28.0762 -70.459 L 0.976562 0 L 3.66211 0 L 12.9395 -24.4629 L 45.7031 -24.4629 Z M 29.1992 -67.0898 L 29.4434 -67.0898 L 44.8242 -26.709 L 13.8184 -26.709 Z"/>
  </g>
  <line id="Baseline-L" style="fill:none;stroke:#27AAE1;opacity:1;stroke-width:0.577;" x1="263" x2="3036" y1="1556" y2="1556"/>
  <line id="Capline-L" style="fill:none;stroke:#27AAE1;opacity:1;stroke-width:0.577;" x1="263" x2="3036" y1="1485.54" y2="1485.54"/>
  <rect height="119.336" id="left-margin" style="fill:#00AEEF;stroke:none;opacity:0.4;" width="8.74023" x="1389.27" y="1030.79"/>
  <rect height="119.336" id="right-margin" style="fill:#00AEEF;stroke:none;opacity:0.4;" width="8.74023" x="1501.68" y="1030.79"/>
 </g>
 <g id="Symbols">
  <g id="Black-L" transform="matrix(1 0 0 1 2846.22 1556)">
   <path d="M 40.4297 -3.02734 C 43.3105 -6.54297 42.2852 -10.7422 39.209 -14.1602 C 31.4453 -22.8027 27.2461 -35.2539 27.2461 -48.7305 C 27.2461 -62.1582 31.4453 -74.6094 39.209 -83.252 C 42.2852 -86.6699 43.3105 -90.8691 40.4297 -94.3848 C 37.3047 -98.1934 31.8848 -98.7305 27.3926 -94.043 C 17.2363 -83.4961 11.2793 -66.2598 11.2793 -48.7305 C 11.2793 -31.1035 16.6504 -14.5508 27.3926 -3.36914 C 31.8848 1.31836 37.3047 0.78125 40.4297 -3.02734 Z M 133.984 -3.02734 C 137.061 0.78125 142.48 1.31836 147.021 -3.36914 C 157.715 -14.5508 163.086 -31.1035 163.086 -48.7305 C 163.086 -66.2598 157.178 -83.4961 147.021 -94.043 C 142.48 -98.7305 137.061 -98.1934 133.984 -94.3848 C 131.104 -90.8691 132.08 -86.6699 135.205 -83.252 C 142.969 -74.6094 147.168 -62.1582 147.168 -48.7305 C 147.168 -35.2539 142.969 -22.8027 135.205 -14.1602 C 132.08 -10.7422 131.104 -6.54297 133.984 -3.02734 Z M 61.1328 -22.6074 C 63.7207 -25.9766 62.8906 -30.0293 60.4004 -33.5938 C 57.9102 -37.0605 55.957 -43.4082 55.957 -48.7305 C 55.957 -54.0527 57.9102 -60.4004 60.4004 -63.916 C 62.8906 -67.4316 63.7207 -71.4844 61.1328 -74.8535 C 58.252 -78.6621 52.3926 -78.9062 48.3398 -74.6094 C 42.8711 -68.5547 39.9902 -58.8867 39.9902 -48.7305 C 39.9902 -38.5742 42.8711 -28.9062 48.3398 -22.9004 C 52.3926 -18.5547 58.252 -18.7988 61.1328 -22.6074 Z M 113.232 -22.6074 C 116.162 -18.7988 122.021 -18.5547 126.074 -22.9004 C 131.494 -28.9062 134.424 -38.5742 134.424 -48.7305 C 134.424 -58.8867 131.494 -68.5547 126.074 -74.6094 C 122.021 -78.9062 116.162 -78.6621 113.232 -74.8535 C 110.645 -71.4844 111.475 -67.4316 113.965 -63.916 C 116.455 -60.4004 118.457 -54.0527 118.457 -48.7305 C 118.457 -43.4082 116.455 -37.0605 113.965 -33.5938 C 111.475 -30.0293 110.645 -25.9766 113.232 -22.6074 Z M 87.207 26.5137 C 91.9434 26.5137 94.9707 23.1445 94.9707 17.8223 L 94.9707 -35.6445 C 99.4141 -38.2812 102.441 -43.1641 102.441 -48.7305 C 102.441 -57.1777 95.6055 -64.0137 87.207 -64.0137 C 78.7598 -64.0137 71.9238 -57.1777 71.9238 -48.7305 C 71.9238 -43.1641 74.9512 -38.2812 79.4434 -35.5957 L 79.4434 17.8223 C 79.4434 22.9492 82.666 26.5137 87.207 26.5137 Z"/>
  </g>
  <g id="Heavy-L" transform="matrix(1 0 0 1 2552.02 1556)">
   <path d="M 39.0137 -4.00391 C 41.6016 -7.12891 40.7227 -10.9863 37.8906 -14.1113 C 29.9316 -22.9004 25.5371 -35.3516 25.5371 -48.9258 C 25.5371 -62.4512 29.9316 -74.9023 37.8906 -83.7402 C 40.7227 -86.8652 41.6016 -90.6738 39.0137 -93.7988 C 36.2305 -97.168 31.3965 -97.6074 27.4414 -93.457 C 17.2363 -82.8125 11.2793 -66.1133 11.2793 -48.9258 C 11.2793 -31.6895 16.7969 -15.5273 27.4414 -4.3457 C 31.3965 -0.244141 36.2305 -0.634766 39.0137 -4.00391 Z M 130.322 -4.00391 C 133.105 -0.634766 137.939 -0.244141 141.895 -4.3457 C 152.539 -15.5273 158.057 -31.6895 158.057 -48.9258 C 158.057 -66.1133 152.1 -82.8125 141.895 -93.457 C 137.939 -97.6074 133.105 -97.168 130.322 -93.7988 C 127.686 -90.6738 128.613 -86.8652 131.396 -83.7402 C 139.404 -74.9023 143.799 -62.4512 143.799 -48.9258 C 143.799 -35.3516 139.404 -22.9004 131.396 -14.1113 C 128.613 -10.9863 127.686 -7.12891 130.322 -4.00391 Z M 59.1797 -23.1934 C 61.5723 -26.2207 60.791 -29.8828 58.4473 -33.1055 C 55.5664 -36.9141 53.6133 -43.2617 53.6133 -48.9258 C 53.6133 -54.5898 55.6641 -60.8887 58.4473 -64.7461 C 60.791 -68.0176 61.5723 -71.6797 59.1797 -74.707 C 56.543 -78.0762 51.3184 -78.2715 47.7539 -74.4141 C 42.2852 -68.2617 39.3555 -58.8379 39.3555 -48.9258 C 39.3555 -39.0137 42.2852 -29.6387 47.7539 -23.4863 C 51.3184 -19.5801 56.543 -19.7754 59.1797 -23.1934 Z M 110.107 -23.1934 C 112.744 -19.7754 117.969 -19.5801 121.533 -23.4863 C 127.002 -29.6387 129.98 -39.0137 129.98 -48.9258 C 129.98 -58.8379 127.002 -68.2617 121.533 -74.4141 C 117.969 -78.2715 112.744 -78.0762 110.107 -74.707 C 107.764 -71.6797 108.545 -68.0176 110.84 -64.7461 C 113.672 -60.8887 115.723 -54.5898 115.723 -48.9258 C 115.723 -43.2617 113.721 -36.9141 110.84 -33.1055 C 108.545 -29.8828 107.764 -26.2207 110.107 -23.1934 Z M 84.668 25.4883 C 88.916 25.4883 91.5527 22.4609 91.5527 17.7734 L 91.5527 -36.6211 C 95.8496 -39.0625 98.7793 -43.6523 98.7793 -48.9258 C 98.7793 -56.7383 92.4805 -63.0859 84.668 -63.0859 C 76.8555 -63.0859 70.5566 -56.7383 70.5566 -48.9258 C 70.5566 -43.6523 73.4375 -39.0137 77.7832 -36.6211 L 77.7832 17.7734 C 77.7832 22.3145 80.6152 25.4883 84.668 25.4883 Z"/>
  </g>
  <g id="Bold-L" transform="matrix(1 0 0 1 2258.17 1556)">
   <path d="M 126.221 -5.12695 C 128.613 -2.24609 132.812 -1.95312 136.133 -5.41992 C 146.68 -16.6016 152.344 -32.2754 152.344 -49.1699 C 152.344 -65.9668 146.436 -82.0312 136.133 -92.8711 C 132.812 -96.3379 128.613 -96.0449 126.221 -93.1641 C 123.926 -90.4297 124.707 -87.0605 127.197 -84.2773 C 135.449 -75.2441 139.99 -62.793 139.99 -49.1699 C 139.99 -35.498 135.449 -23.0469 127.197 -14.0137 C 124.707 -11.2305 123.926 -7.86133 126.221 -5.12695 Z M 37.4512 -5.12695 C 39.7461 -7.86133 38.9648 -11.2305 36.4258 -14.0137 C 28.2227 -23.0469 23.6328 -35.498 23.6328 -49.1699 C 23.6328 -62.793 28.2227 -75.2441 36.4258 -84.2773 C 38.9648 -87.0605 39.7461 -90.4297 37.4512 -93.1641 C 35.0098 -96.0449 30.8105 -96.3379 27.5391 -92.8711 C 17.2363 -82.0312 11.2793 -65.9668 11.2793 -49.1699 C 11.2793 -32.2754 16.9434 -16.6016 27.5391 -5.41992 C 30.8105 -1.95312 35.0098 -2.24609 37.4512 -5.12695 Z M 106.641 -23.8281 C 108.984 -20.8984 113.525 -20.752 116.504 -24.1211 C 121.973 -30.4199 125.049 -39.502 125.049 -49.1699 C 125.049 -58.7891 121.973 -67.8711 116.504 -74.1699 C 113.525 -77.5391 108.984 -77.3926 106.641 -74.5117 C 104.492 -71.8262 105.273 -68.6035 107.373 -65.7227 C 110.547 -61.4746 112.695 -55.2246 112.695 -49.1699 C 112.695 -43.0664 110.645 -36.7188 107.373 -32.6172 C 105.273 -29.6875 104.492 -26.4648 106.641 -23.8281 Z M 57.0312 -23.8281 C 59.1309 -26.4648 58.3984 -29.6875 56.2988 -32.6172 C 52.9785 -36.7188 50.9766 -43.0664 50.9766 -49.1699 C 50.9766 -55.2246 53.125 -61.4746 56.2988 -65.7227 C 58.3984 -68.6035 59.1309 -71.8262 57.0312 -74.5117 C 54.6875 -77.3926 50.1465 -77.5391 47.168 -74.1699 C 41.6504 -67.8711 38.623 -58.7891 38.623 -49.1699 C 38.623 -39.502 41.6504 -30.4199 47.168 -24.1211 C 50.1465 -20.752 54.6875 -20.8984 57.0312 -23.8281 Z M 81.8359 24.3652 C 85.498 24.3652 87.7441 21.7285 87.7441 17.7246 L 87.7441 -37.7441 C 91.8945 -39.8926 94.6777 -44.1895 94.6777 -49.1699 C 94.6777 -56.2988 88.9648 -62.0605 81.8359 -62.0605 C 74.6582 -62.0605 68.9453 -56.2988 68.9453 -49.1699 C 68.9453 -44.1895 71.7285 -39.8438 75.8789 -37.7441 L 75.8789 17.7246 C 75.8789 21.6309 78.3203 24.3652 81.8359 24.3652 Z"/>
  </g>
  <g id="Semibold-L" transform="matrix(1 0 0 1 1963.41 1556)">
   <path d="M 36.377 -5.9082 C 38.4277 -8.34961 37.7441 -11.377 35.4492 -13.9648 C 27.0508 -23.1445 22.3145 -35.5957 22.3145 -49.3164 C 22.3145 -62.9883 27.0508 -75.4395 35.4492 -84.6191 C 37.7441 -87.207 38.4277 -90.2832 36.377 -92.6758 C 34.1797 -95.2637 30.4199 -95.459 27.5879 -92.4316 C 17.2363 -81.4941 11.2793 -65.8691 11.2793 -49.3164 C 11.2793 -32.7148 17.0898 -17.334 27.5879 -6.20117 C 30.4199 -3.17383 34.1797 -3.32031 36.377 -5.9082 Z M 123.389 -5.9082 C 125.537 -3.32031 129.297 -3.17383 132.178 -6.20117 C 142.676 -17.334 148.438 -32.7148 148.438 -49.3164 C 148.438 -65.8691 142.48 -81.4941 132.178 -92.4316 C 129.297 -95.459 125.537 -95.2637 123.389 -92.6758 C 121.289 -90.2832 121.973 -87.207 124.268 -84.6191 C 132.715 -75.4395 137.402 -62.9883 137.402 -49.3164 C 137.402 -35.5957 132.715 -23.1445 124.268 -13.9648 C 121.973 -11.377 121.289 -8.34961 123.389 -5.9082 Z M 55.5176 -24.2676 C 57.4707 -26.6602 56.7383 -29.5898 54.7852 -32.2754 C 51.1719 -36.5723 49.1699 -42.9688 49.1699 -49.3164 C 49.1699 -55.6641 51.3672 -61.8652 54.7852 -66.3574 C 56.7383 -69.043 57.4707 -71.9727 55.5176 -74.3652 C 53.3691 -76.9531 49.3164 -77.0508 46.7285 -74.0234 C 41.2109 -67.627 38.1348 -58.7891 38.1348 -49.3164 C 38.1348 -39.8438 41.2109 -30.957 46.7285 -24.5605 C 49.3164 -21.5332 53.3691 -21.6797 55.5176 -24.2676 Z M 104.248 -24.2676 C 106.348 -21.6797 110.4 -21.5332 112.988 -24.5605 C 118.506 -30.957 121.631 -39.8438 121.631 -49.3164 C 121.631 -58.7891 118.506 -67.627 112.988 -74.0234 C 110.4 -77.0508 106.348 -76.9531 104.248 -74.3652 C 102.246 -71.9727 103.027 -69.043 104.932 -66.3574 C 108.398 -61.8652 110.596 -55.6641 110.596 -49.3164 C 110.596 -42.9688 108.545 -36.5723 104.932 -32.2754 C 102.979 -29.5898 102.246 -26.6602 104.248 -24.2676 Z M 79.8828 23.584 C 83.1055 23.584 85.1562 21.2402 85.1562 17.6758 L 85.1562 -38.5254 C 89.1113 -40.4785 91.8945 -44.5801 91.8945 -49.3164 C 91.8945 -56.0059 86.5234 -61.3281 79.8828 -61.3281 C 73.1934 -61.3281 67.8711 -56.0059 67.8711 -49.3164 C 67.8711 -44.5801 70.6055 -40.4785 74.6094 -38.5254 L 74.6094 17.6758 C 74.6094 21.1426 76.7578 23.584 79.8828 23.584 Z"/>
  </g>
  <g id="Medium-L" transform="matrix(1 0 0 1 1668.16 1556)">
   <path d="M 35.5469 -6.49414 C 37.4512 -8.69141 36.8164 -11.5234 34.668 -13.916 C 26.123 -23.2422 21.3379 -35.6934 21.3379 -49.4141 C 21.3379 -63.1348 26.123 -75.5859 34.668 -84.9121 C 36.8164 -87.3047 37.4512 -90.1367 35.5469 -92.334 C 33.5449 -94.6777 30.127 -94.7754 27.6367 -92.0898 C 17.2363 -81.1035 11.2793 -65.8203 11.2793 -49.4141 C 11.2793 -33.0078 17.1387 -17.8711 27.6367 -6.73828 C 30.127 -4.05273 33.5449 -4.15039 35.5469 -6.49414 Z M 121.24 -6.49414 C 123.242 -4.15039 126.66 -4.05273 129.15 -6.73828 C 139.6 -17.8711 145.508 -33.0078 145.508 -49.4141 C 145.508 -65.8203 139.551 -81.1035 129.15 -92.0898 C 126.66 -94.7754 123.242 -94.6777 121.24 -92.334 C 119.336 -90.1367 119.971 -87.3047 122.07 -84.9121 C 130.615 -75.5859 135.449 -63.1348 135.449 -49.4141 C 135.449 -35.6934 130.615 -23.2422 122.07 -13.916 C 119.971 -11.5234 119.336 -8.69141 121.24 -6.49414 Z M 102.393 -24.5605 C 104.395 -22.2656 108.057 -22.168 110.352 -24.9023 C 115.869 -31.3965 119.043 -40.0879 119.043 -49.4141 C 119.043 -58.7402 115.869 -67.4316 110.352 -73.9258 C 108.057 -76.709 104.395 -76.6113 102.393 -74.2676 C 100.537 -72.0703 101.27 -69.3848 103.125 -66.8457 C 106.738 -62.1582 108.984 -56.0059 108.984 -49.4141 C 108.984 -42.8711 106.982 -36.4746 103.125 -31.9824 C 101.27 -29.4922 100.537 -26.7578 102.393 -24.5605 Z M 54.3457 -24.5605 C 56.25 -26.7578 55.5176 -29.4922 53.6621 -31.9824 C 49.8047 -36.4746 47.8027 -42.8711 47.8027 -49.4141 C 47.8027 -56.0059 50 -62.1582 53.6621 -66.8457 C 55.4688 -69.3848 56.25 -72.0703 54.3457 -74.2676 C 52.3926 -76.6113 48.7305 -76.709 46.4355 -73.9258 C 40.8691 -67.4316 37.7441 -58.7402 37.7441 -49.4141 C 37.7441 -40.0879 40.8691 -31.3965 46.4355 -24.9023 C 48.7305 -22.168 52.3926 -22.2656 54.3457 -24.5605 Z M 78.3691 22.998 C 81.3477 22.998 83.1543 20.8496 83.1543 17.627 L 83.1543 -39.1113 C 87.0605 -40.918 89.7461 -44.873 89.7461 -49.4141 C 89.7461 -55.7617 84.7168 -60.791 78.3691 -60.791 C 72.0703 -60.791 67.041 -55.7617 67.041 -49.4141 C 67.041 -44.8242 69.7266 -40.918 73.584 -39.1113 L 73.584 17.627 C 73.584 20.8008 75.5371 22.998 78.3691 22.998 Z"/>
  </g>
  <g id="Regular-L" transform="matrix(1 0 0 1 1373.4 1556)">
   <path d="M 118.457 -7.22656 C 120.166 -5.22461 123.193 -5.22461 125.244 -7.4707 C 135.645 -18.6035 141.602 -33.4473 141.602 -49.5605 C 141.602 -65.7227 135.645 -80.5664 125.244 -91.6504 C 123.193 -93.8965 120.166 -93.8965 118.457 -91.8945 C 116.748 -89.9902 117.285 -87.4512 119.189 -85.2539 C 127.93 -75.8301 132.861 -63.3789 132.861 -49.5605 C 132.861 -35.791 127.93 -23.3398 119.189 -13.8672 C 117.285 -11.7188 116.748 -9.17969 118.457 -7.22656 Z M 34.4727 -7.22656 C 36.1328 -9.17969 35.5957 -11.7188 33.6914 -13.8672 C 25 -23.3398 20.0195 -35.791 20.0195 -49.5605 C 20.0195 -63.3789 25 -75.8301 33.6914 -85.2539 C 35.5957 -87.4512 36.1328 -89.9902 34.4727 -91.8945 C 32.7148 -93.8965 29.7363 -93.8965 27.6855 -91.6504 C 17.2363 -80.5664 11.2793 -65.7227 11.2793 -49.5605 C 11.2793 -33.4473 17.2363 -18.6035 27.6855 -7.4707 C 29.7363 -5.22461 32.7148 -5.22461 34.4727 -7.22656 Z M 100 -25 C 101.807 -22.998 104.98 -22.9492 106.934 -25.3418 C 112.451 -31.9336 115.674 -40.4297 115.674 -49.5605 C 115.674 -58.6914 112.451 -67.1875 106.934 -73.7793 C 104.98 -76.1719 101.807 -76.123 100 -74.1211 C 98.3398 -72.2168 99.0723 -69.8242 100.732 -67.4805 C 104.639 -62.5488 106.885 -56.3965 106.885 -49.5605 C 106.885 -42.7246 104.883 -36.377 100.732 -31.6406 C 99.0234 -29.3457 98.3398 -26.9531 100 -25 Z M 52.8809 -25 C 54.5898 -26.9531 53.8574 -29.3457 52.1484 -31.6406 C 48.0469 -36.377 45.9961 -42.7246 45.9961 -49.5605 C 45.9961 -56.3965 48.291 -62.5488 52.1484 -67.4805 C 53.8574 -69.8242 54.5898 -72.2168 52.8809 -74.1211 C 51.123 -76.123 47.9004 -76.1719 45.9961 -73.7793 C 40.4297 -67.1875 37.2559 -58.6914 37.2559 -49.5605 C 37.2559 -40.4297 40.4297 -31.9336 45.9961 -25.3418 C 47.9004 -22.9492 51.123 -22.998 52.8809 -25 Z M 76.4648 22.2168 C 79.0039 22.2168 80.5664 20.3613 80.5664 17.5781 L 80.5664 -39.9414 C 84.3262 -41.5039 86.9629 -45.2148 86.9629 -49.5605 C 86.9629 -55.4199 82.3242 -60.1074 76.4648 -60.1074 C 70.6055 -60.1074 65.9668 -55.4199 65.9668 -49.5605 C 65.9668 -45.2148 68.5547 -41.5039 72.3145 -39.8926 L 72.3145 17.5781 C 72.3145 20.3125 74.0234 22.2168 76.4648 22.2168 Z"/>
  </g>
  <g id="Light-L" transform="matrix(1 0 0 1 1079.01 1556)">
   <path d="M 32.9102 -8.44727 C 34.1797 -9.91211 33.7402 -11.8652 32.2754 -13.4766 C 23.2422 -22.998 17.9688 -35.6445 17.9688 -49.7559 C 17.9688 -63.8672 23.2422 -76.5137 32.2754 -86.0352 C 33.7402 -87.6465 34.1797 -89.5996 32.9102 -91.0645 C 31.543 -92.5781 29.248 -92.5781 27.6855 -90.918 C 17.3828 -80.127 11.2793 -65.625 11.2793 -49.7559 C 11.2793 -33.8867 17.3828 -19.3848 27.6855 -8.59375 C 29.248 -6.93359 31.543 -6.93359 32.9102 -8.44727 Z M 115.381 -8.44727 C 116.699 -6.93359 118.994 -6.93359 120.557 -8.59375 C 130.859 -19.3848 136.963 -33.8867 136.963 -49.7559 C 136.963 -65.625 130.859 -80.127 120.557 -90.918 C 118.994 -92.5781 116.699 -92.5781 115.381 -91.0645 C 114.062 -89.5996 114.502 -87.6465 115.967 -86.0352 C 125 -76.5137 130.273 -63.8672 130.273 -49.7559 C 130.273 -35.6445 125 -22.998 115.967 -13.4766 C 114.502 -11.8652 114.062 -9.91211 115.381 -8.44727 Z M 97.6074 -25.9766 C 98.9746 -24.4629 101.367 -24.4141 102.832 -26.2207 C 108.496 -32.4707 111.719 -40.7715 111.719 -49.7559 C 111.719 -58.7402 108.496 -67.041 102.832 -73.291 C 101.367 -75.0977 98.9746 -75.0488 97.6074 -73.5352 C 96.3379 -72.0703 96.875 -70.2148 98.1445 -68.5059 C 102.393 -63.3301 105.029 -56.9824 105.029 -49.7559 C 105.029 -42.5293 102.783 -35.791 98.1445 -31.0059 C 96.8262 -29.3457 96.3379 -27.4414 97.6074 -25.9766 Z M 50.6348 -25.9766 C 51.9043 -27.4414 51.416 -29.3457 50.0977 -31.0059 C 45.459 -35.791 43.2129 -42.5293 43.2129 -49.7559 C 43.2129 -56.9824 45.8496 -63.3301 50.0977 -68.5059 C 51.3672 -70.2148 51.9043 -72.0703 50.6348 -73.5352 C 49.3164 -75.0488 46.875 -75.0977 45.4102 -73.291 C 39.7461 -67.041 36.5234 -58.7402 36.5234 -49.7559 C 36.5234 -40.7715 39.7461 -32.4707 45.4102 -26.2207 C 46.875 -24.4141 49.3164 -24.4629 50.6348 -25.9766 Z M 74.1211 21.4355 C 76.0742 21.4355 77.2949 19.9707 77.2949 17.8711 L 77.2949 -40.918 C 80.9082 -42.2363 83.4961 -45.6543 83.4961 -49.7559 C 83.4961 -54.9805 79.3457 -59.1309 74.1211 -59.1309 C 68.8965 -59.1309 64.7461 -54.9805 64.7461 -49.7559 C 64.7461 -45.6543 67.2852 -42.2363 70.9473 -40.918 L 70.9473 17.8711 C 70.9473 19.9707 72.2168 21.4355 74.1211 21.4355 Z"/>
  </g>
  <g id="Thin-L" transform="matrix(1 0 0 1 785.377 1556)">
   <path d="M 111.279 -10.0586 C 112.061 -9.17969 113.428 -9.17969 114.355 -10.1074 C 124.561 -20.459 130.811 -34.4727 130.811 -50 C 130.811 -65.5273 124.561 -79.5898 114.355 -89.8926 C 113.428 -90.8203 112.061 -90.8203 111.279 -89.9414 C 110.547 -89.1113 110.84 -87.8906 111.67 -87.0117 C 121.191 -77.3926 126.855 -64.5508 126.855 -50 C 126.855 -35.498 121.191 -22.6074 111.67 -12.9883 C 110.84 -12.1094 110.547 -10.8887 111.279 -10.0586 Z M 30.8105 -10.0586 C 31.543 -10.8887 31.25 -12.1094 30.4199 -12.9883 C 20.8984 -22.6074 15.2344 -35.498 15.2344 -50 C 15.2344 -64.5508 20.8984 -77.3926 30.4199 -87.0117 C 31.25 -87.8906 31.543 -89.1113 30.8105 -89.9414 C 30.0293 -90.8203 28.6621 -90.8203 27.7344 -89.8926 C 17.5293 -79.5898 11.2793 -65.5273 11.2793 -50 C 11.2793 -34.4727 17.5293 -20.459 27.7344 -10.1074 C 28.6621 -9.17969 30.0293 -9.17969 30.8105 -10.0586 Z M 94.3848 -27.2949 C 95.166 -26.416 96.582 -26.3672 97.4609 -27.3438 C 103.223 -33.2031 106.494 -41.2598 106.494 -50 C 106.494 -58.7402 103.223 -66.7969 97.4609 -72.6562 C 96.582 -73.6328 95.166 -73.6328 94.3848 -72.7051 C 93.7012 -71.9238 93.9941 -70.752 94.7754 -69.8242 C 99.4629 -64.4043 102.588 -57.7637 102.588 -50 C 102.588 -42.2363 100.049 -35.0098 94.7754 -30.1758 C 93.8965 -29.3457 93.7012 -28.0762 94.3848 -27.2949 Z M 47.7051 -27.2949 C 48.3887 -28.0762 48.1445 -29.3457 47.3145 -30.1758 C 42.041 -35.0098 39.502 -42.2363 39.502 -50 C 39.502 -57.7637 42.627 -64.4043 47.3145 -69.8242 C 48.0957 -70.752 48.3887 -71.9238 47.7051 -72.7051 C 46.875 -73.6328 45.5078 -73.6328 44.6289 -72.6562 C 38.8672 -66.7969 35.5957 -58.7402 35.5957 -50 C 35.5957 -41.2598 38.8672 -33.2031 44.6289 -27.3438 C 45.5078 -26.3672 46.875 -26.416 47.7051 -27.2949 Z M 71.0449 20.3613 C 72.2168 20.3613 72.998 19.4824 72.998 18.2129 L 72.998 -42.3828 C 76.416 -43.2129 78.9062 -46.2891 78.9062 -50 C 78.9062 -54.3945 75.4395 -57.8613 71.0449 -57.8613 C 66.6504 -57.8613 63.1836 -54.3945 63.1836 -50 C 63.1836 -46.2891 65.6738 -43.2129 69.0918 -42.3828 L 69.0918 18.2129 C 69.0918 19.4824 69.873 20.3613 71.0449 20.3613 Z"/>
  </g>
  <g id="Ultralight-L" transform="matrix(1 0 0 1 490.253 1556)">
   <path d="M 109.18 -10.8887 C 109.717 -10.3516 110.596 -10.3516 111.133 -10.8887 C 121.338 -20.9961 127.637 -34.7656 127.637 -50.1465 C 127.637 -65.4785 121.338 -79.2969 111.133 -89.4043 C 110.596 -89.9414 109.717 -89.9414 109.18 -89.3555 C 108.74 -88.8672 108.984 -87.9883 109.473 -87.5488 C 119.238 -77.8809 125.098 -64.8438 125.098 -50.1465 C 125.098 -35.4004 119.238 -22.3633 109.473 -12.6953 C 108.984 -12.2559 108.74 -11.377 109.18 -10.8887 Z M 29.7363 -10.8887 C 30.1758 -11.377 29.9805 -12.2559 29.4922 -12.6953 C 19.7266 -22.3633 13.8184 -35.4004 13.8184 -50.1465 C 13.8184 -64.8438 19.7266 -77.8809 29.4922 -87.5488 C 29.9805 -87.9883 30.1758 -88.8672 29.7363 -89.3555 C 29.248 -89.9414 28.3203 -89.9414 27.7832 -89.4043 C 17.5781 -79.2969 11.2793 -65.4785 11.2793 -50.1465 C 11.2793 -34.7656 17.5781 -20.9961 27.7832 -10.8887 C 28.3203 -10.3516 29.248 -10.3516 29.7363 -10.8887 Z M 92.7734 -27.9297 C 93.2617 -27.3926 94.1406 -27.3926 94.7266 -27.9297 C 100.537 -33.5938 103.857 -41.5039 103.857 -50.1465 C 103.857 -58.7402 100.537 -66.6504 94.7266 -72.3633 C 94.1406 -72.8516 93.2617 -72.8516 92.7734 -72.3145 C 92.334 -71.8262 92.5293 -71.0449 93.0176 -70.5078 C 97.9492 -64.9902 101.318 -58.1543 101.318 -50.1465 C 101.318 -42.1387 98.6816 -34.5703 93.0176 -29.7363 C 92.4316 -29.2969 92.334 -28.418 92.7734 -27.9297 Z M 46.1914 -27.9297 C 46.582 -28.418 46.4844 -29.2969 45.8984 -29.7363 C 40.2832 -34.5703 37.6465 -42.1387 37.6465 -50.1465 C 37.6465 -58.1543 40.9668 -64.9902 45.8984 -70.5078 C 46.4355 -71.0449 46.582 -71.8262 46.1914 -72.3145 C 45.6543 -72.8516 44.7754 -72.8516 44.2383 -72.3633 C 38.3789 -66.6504 35.1074 -58.7402 35.1074 -50.1465 C 35.1074 -41.5039 38.3789 -33.5938 44.2383 -27.9297 C 44.7754 -27.3926 45.6543 -27.3926 46.1914 -27.9297 Z M 69.4824 19.7754 C 70.2148 19.7754 70.752 19.1895 70.752 18.3594 L 70.752 -43.1152 C 74.1211 -43.75 76.5625 -46.582 76.5625 -50.1465 C 76.5625 -54.1016 73.4375 -57.2266 69.4824 -57.2266 C 65.4785 -57.2266 62.3535 -54.1016 62.3535 -50.1465 C 62.3535 -46.582 64.8438 -43.75 68.1641 -43.1152 L 68.1641 18.3594 C 68.1641 19.2383 68.7012 19.7754 69.4824 19.7754 Z"/>
  </g>
  <g id="Black-M" transform="matrix(1 0 0 1 2863.65 1126)">
   <path d="M 107.129 -9.57031 C 109.766 -6.29883 114.307 -5.76172 118.359 -9.81445 C 126.709 -18.3594 130.762 -31.543 130.762 -45.5078 C 130.762 -59.375 126.123 -73.3398 118.359 -81.1523 C 114.307 -85.2539 109.766 -84.668 107.129 -81.3965 C 104.736 -78.4668 105.615 -74.9512 108.105 -72.2168 C 114.014 -65.7227 117.188 -56.0059 117.188 -45.5078 C 117.188 -35.0098 114.014 -25.2441 108.105 -18.7988 C 105.615 -16.0645 104.736 -12.5488 107.129 -9.57031 Z M 32.373 -9.57031 C 34.7656 -12.5488 33.8867 -16.0645 31.3965 -18.7988 C 25.4883 -25.2441 22.3145 -35.0098 22.3145 -45.5078 C 22.3145 -56.0059 25.4883 -65.7227 31.3965 -72.2168 C 33.8867 -74.9512 34.7656 -78.4668 32.373 -81.3965 C 29.7363 -84.668 25.1465 -85.2539 21.1426 -81.1523 C 13.4277 -73.3398 8.74023 -59.375 8.74023 -45.5078 C 8.74023 -31.543 12.793 -18.3594 21.1426 -9.81445 C 25.1465 -5.76172 29.7363 -6.29883 32.373 -9.57031 Z M 90.6738 -25.1953 C 93.0664 -21.9238 98.0469 -21.6797 101.611 -25.3418 C 105.859 -29.6387 108.008 -37.4023 108.008 -45.5078 C 108.008 -53.6621 105.859 -61.4258 101.611 -65.7227 C 98.0469 -69.3848 93.0664 -69.1406 90.6738 -65.8691 C 88.623 -63.0371 89.1602 -59.668 91.1621 -56.8359 C 92.8223 -54.4922 94.4824 -49.3652 94.4824 -45.5078 C 94.4824 -41.6992 92.8223 -36.5723 91.1621 -34.2285 C 89.1602 -31.3965 88.623 -28.0273 90.6738 -25.1953 Z M 48.8281 -25.1953 C 50.8789 -28.0273 50.293 -31.3965 48.291 -34.2285 C 46.6309 -36.5723 45.0195 -41.6992 45.0195 -45.5078 C 45.0195 -49.3652 46.6309 -54.4922 48.291 -56.8359 C 50.293 -59.668 50.8789 -63.0371 48.8281 -65.8691 C 46.4355 -69.1406 41.4551 -69.3848 37.8906 -65.7227 C 33.6426 -61.4258 31.4453 -53.6621 31.4453 -45.5078 C 31.4453 -37.4023 33.6426 -29.6387 37.8906 -25.3418 C 41.4551 -21.6797 46.4355 -21.9238 48.8281 -25.1953 Z M 69.7266 13.5742 C 73.8281 13.5742 76.416 10.6445 76.416 6.05469 L 76.416 -34.7168 C 80.0293 -36.9629 82.4707 -40.9668 82.4707 -45.5078 C 82.4707 -52.5391 76.7578 -58.252 69.7266 -58.252 C 62.7441 -58.252 57.0312 -52.5391 57.0312 -45.5078 C 57.0312 -40.9668 59.4727 -36.9141 63.0859 -34.668 L 63.0859 6.05469 C 63.0859 10.498 65.8691 13.5742 69.7266 13.5742 Z"/>
  </g>
  <g id="Heavy-M" transform="matrix(1 0 0 1 2569.11 1126)">
   <path d="M 103.906 -10.3516 C 106.299 -7.42188 110.449 -6.98242 113.965 -10.5957 C 122.266 -19.1895 126.416 -32.0312 126.416 -45.7031 C 126.416 -59.2773 121.826 -72.7051 113.965 -80.7617 C 110.449 -84.375 106.299 -83.9355 103.906 -81.0059 C 101.709 -78.3203 102.49 -75.0977 104.834 -72.5098 C 110.889 -65.8691 114.209 -56.2012 114.209 -45.7031 C 114.209 -35.1562 110.889 -25.4883 104.834 -18.7988 C 102.49 -16.2598 101.709 -13.0371 103.906 -10.3516 Z M 31.25 -10.3516 C 33.4473 -13.0371 32.666 -16.2598 30.3223 -18.7988 C 24.2676 -25.4883 20.9961 -35.1562 20.9961 -45.7031 C 20.9961 -56.2012 24.2676 -65.8691 30.3223 -72.5098 C 32.666 -75.0977 33.4473 -78.3203 31.25 -81.0059 C 28.8574 -83.9355 24.707 -84.375 21.1914 -80.7617 C 13.3789 -72.7051 8.74023 -59.2773 8.74023 -45.7031 C 8.74023 -32.0312 12.8906 -19.1895 21.1914 -10.5957 C 24.707 -6.98242 28.8574 -7.42188 31.25 -10.3516 Z M 47.2656 -25.5859 C 49.2188 -28.125 48.6328 -31.25 46.7285 -33.8867 C 44.7754 -36.5234 43.1641 -41.5527 43.1641 -45.7031 C 43.1641 -49.8535 44.8242 -54.834 46.7285 -57.5195 C 48.6328 -60.1562 49.2188 -63.2324 47.2656 -65.8203 C 45.0684 -68.75 40.5762 -68.9453 37.4512 -65.6738 C 33.2031 -61.084 30.957 -53.6133 30.957 -45.7031 C 30.957 -37.793 33.2031 -30.2734 37.4512 -25.7324 C 40.5762 -22.4609 45.0684 -22.6562 47.2656 -25.5859 Z M 87.8906 -25.5859 C 90.0879 -22.6562 94.5801 -22.4609 97.7539 -25.7324 C 101.953 -30.2734 104.199 -37.793 104.199 -45.7031 C 104.199 -53.6133 101.953 -61.084 97.7539 -65.6738 C 94.5801 -68.9453 90.0879 -68.75 87.8906 -65.8203 C 85.9375 -63.2324 86.5234 -60.1562 88.4277 -57.5195 C 90.3809 -54.834 91.9922 -49.8535 91.9922 -45.7031 C 91.9922 -41.5527 90.3809 -36.5234 88.4277 -33.8867 C 86.5234 -31.25 85.9375 -28.125 87.8906 -25.5859 Z M 67.5781 12.6465 C 71.2402 12.6465 73.5352 10.0586 73.5352 5.95703 L 73.5352 -35.5469 C 77.002 -37.5977 79.3945 -41.3574 79.3945 -45.7031 C 79.3945 -52.1973 74.1211 -57.5195 67.5781 -57.5195 C 61.084 -57.5195 55.8105 -52.1973 55.8105 -45.7031 C 55.8105 -41.3574 58.1055 -37.5977 61.6211 -35.5469 L 61.6211 5.95703 C 61.6211 9.91211 64.0625 12.6465 67.5781 12.6465 Z"/>
  </g>
  <g id="Bold-M" transform="matrix(1 0 0 1 2274.82 1126)">
   <path d="M 100.342 -11.2305 C 102.441 -8.69141 106.104 -8.39844 109.033 -11.4746 C 117.285 -20.1172 121.582 -32.5684 121.582 -45.8984 C 121.582 -59.1309 116.992 -71.9727 109.033 -80.2734 C 106.104 -83.3496 102.441 -83.0566 100.342 -80.5176 C 98.3398 -78.1738 99.0234 -75.293 101.172 -72.9004 C 107.422 -66.0156 110.84 -56.3965 110.84 -45.8984 C 110.84 -35.3516 107.422 -25.7324 101.172 -18.8477 C 99.0234 -16.4551 98.3398 -13.5742 100.342 -11.2305 Z M 29.9805 -11.2305 C 31.9824 -13.5742 31.2988 -16.4551 29.1504 -18.8477 C 22.9004 -25.7324 19.4824 -35.3516 19.4824 -45.8984 C 19.4824 -56.3965 22.9004 -66.0156 29.1504 -72.9004 C 31.2988 -75.293 31.9824 -78.1738 29.9805 -80.5176 C 27.8809 -83.0566 24.2188 -83.3496 21.2891 -80.2734 C 13.3789 -71.9727 8.74023 -59.1309 8.74023 -45.8984 C 8.74023 -32.5684 13.0371 -20.1172 21.2891 -11.4746 C 24.2188 -8.39844 27.8809 -8.69141 29.9805 -11.2305 Z M 84.7656 -25.9766 C 86.7676 -23.4375 90.7227 -23.291 93.4082 -26.2207 C 97.6074 -31.0059 99.9512 -38.2324 99.9512 -45.8984 C 99.9512 -53.5156 97.6074 -60.7422 93.4082 -65.5762 C 90.7227 -68.5059 86.7676 -68.3594 84.7656 -65.7715 C 82.959 -63.4766 83.5938 -60.7422 85.3516 -58.252 C 87.5977 -55.2246 89.209 -50.3418 89.209 -45.8984 C 89.209 -41.4062 87.6465 -36.5234 85.3516 -33.4961 C 83.5938 -31.0547 82.959 -28.2715 84.7656 -25.9766 Z M 45.5078 -25.9766 C 47.3633 -28.2715 46.7285 -31.0547 44.9707 -33.4961 C 42.6758 -36.5234 41.1133 -41.4062 41.1133 -45.8984 C 41.1133 -50.3418 42.7246 -55.2246 44.9707 -58.252 C 46.7285 -60.7422 47.3633 -63.4766 45.5078 -65.7715 C 43.5547 -68.3594 39.5996 -68.5059 36.9141 -65.5762 C 32.666 -60.7422 30.3711 -53.5156 30.3711 -45.8984 C 30.3711 -38.2324 32.666 -31.0059 36.9141 -26.2207 C 39.5996 -23.291 43.5547 -23.4375 45.5078 -25.9766 Z M 65.1367 11.6699 C 68.3594 11.6699 70.3613 9.375 70.3613 5.81055 L 70.3613 -36.4746 C 73.6816 -38.3301 75.9277 -41.8457 75.9277 -45.8984 C 75.9277 -51.8555 71.1426 -56.6406 65.1367 -56.6406 C 59.1797 -56.6406 54.3945 -51.8555 54.3945 -45.8984 C 54.3945 -41.8457 56.6406 -38.2812 59.9609 -36.4746 L 59.9609 5.81055 C 59.9609 9.27734 62.1094 11.6699 65.1367 11.6699 Z"/>
  </g>
  <g id="Semibold-M" transform="matrix(1 0 0 1 1979.77 1126)">
   <path d="M 29.1016 -11.8164 C 30.957 -13.9648 30.3223 -16.6016 28.3203 -18.8477 C 21.9727 -25.8789 18.457 -35.498 18.457 -45.9961 C 18.457 -56.4941 21.9727 -66.1133 28.3203 -73.1445 C 30.3223 -75.3906 30.957 -78.0762 29.1016 -80.1758 C 27.1973 -82.4707 23.877 -82.666 21.3379 -79.9316 C 13.3301 -71.4844 8.74023 -59.0332 8.74023 -45.9961 C 8.74023 -32.959 13.1348 -20.752 21.3379 -12.0605 C 23.877 -9.32617 27.1973 -9.52148 29.1016 -11.8164 Z M 97.8516 -11.8164 C 99.7559 -9.52148 103.076 -9.32617 105.664 -12.0605 C 113.818 -20.752 118.262 -32.959 118.262 -45.9961 C 118.262 -59.0332 113.672 -71.4844 105.664 -79.9316 C 103.076 -82.666 99.7559 -82.4707 97.8516 -80.1758 C 96.0449 -78.0762 96.6309 -75.3906 98.6328 -73.1445 C 104.98 -66.1133 108.496 -56.4941 108.496 -45.9961 C 108.496 -35.498 104.98 -25.8789 98.6328 -18.8477 C 96.6309 -16.6016 96.0449 -13.9648 97.8516 -11.8164 Z M 44.3359 -26.2695 C 46.0449 -28.3691 45.4102 -30.9082 43.75 -33.252 C 41.2109 -36.4746 39.6973 -41.3086 39.6973 -45.9961 C 39.6973 -50.6836 41.3086 -55.4688 43.75 -58.7891 C 45.4102 -61.1328 46.0449 -63.6719 44.3359 -65.7715 C 42.4805 -68.0664 38.916 -68.1641 36.5723 -65.4785 C 32.3242 -60.5469 29.9805 -53.4668 29.9805 -45.9961 C 29.9805 -38.5254 32.3242 -31.4941 36.5723 -26.5137 C 38.916 -23.877 42.4805 -23.9746 44.3359 -26.2695 Z M 82.666 -26.2695 C 84.5215 -23.9746 88.0859 -23.877 90.3809 -26.5137 C 94.6289 -31.4941 97.0215 -38.5254 97.0215 -45.9961 C 97.0215 -53.4668 94.6289 -60.5469 90.3809 -65.4785 C 88.0859 -68.1641 84.5215 -68.0664 82.666 -65.7715 C 80.9082 -63.6719 81.543 -61.1328 83.252 -58.7891 C 85.6934 -55.4688 87.2559 -50.6836 87.2559 -45.9961 C 87.2559 -41.3086 85.7422 -36.4746 83.252 -33.252 C 81.543 -30.9082 80.9082 -28.3691 82.666 -26.2695 Z M 63.4766 10.9863 C 66.3574 10.9863 68.1641 8.88672 68.1641 5.71289 L 68.1641 -37.1582 C 71.3379 -38.8184 73.5352 -42.1387 73.5352 -45.9961 C 73.5352 -51.6113 69.043 -56.0547 63.4766 -56.0547 C 57.9102 -56.0547 53.4668 -51.6113 53.4668 -45.9961 C 53.4668 -42.1387 55.6152 -38.8184 58.8379 -37.1094 L 58.8379 5.71289 C 58.8379 8.78906 60.7422 10.9863 63.4766 10.9863 Z"/>
  </g>
  <g id="Medium-M" transform="matrix(1 0 0 1 1684.32 1126)">
   <path d="M 95.9961 -12.2559 C 97.7539 -10.1562 100.83 -10.0586 103.076 -12.5 C 111.23 -21.2402 115.723 -33.2031 115.723 -46.0938 C 115.723 -58.9844 111.133 -71.0938 103.076 -79.6875 C 100.83 -82.1289 97.7539 -82.0312 95.9961 -79.9316 C 94.2871 -77.9785 94.8242 -75.4883 96.7285 -73.3398 C 103.174 -66.2109 106.738 -56.6406 106.738 -46.0938 C 106.738 -35.5957 103.174 -26.0254 96.7285 -18.8965 C 94.8242 -16.748 94.2871 -14.2578 95.9961 -12.2559 Z M 28.4668 -12.2559 C 30.1758 -14.2578 29.5898 -16.748 27.7344 -18.8965 C 21.2891 -26.0254 17.7246 -35.5957 17.7246 -46.0938 C 17.7246 -56.6406 21.2891 -66.2109 27.7344 -73.3398 C 29.5898 -75.4883 30.1758 -77.9785 28.4668 -79.9316 C 26.709 -82.0312 23.6328 -82.1289 21.3867 -79.6875 C 13.3301 -71.0938 8.74023 -58.9844 8.74023 -46.0938 C 8.74023 -33.2031 13.2324 -21.2402 21.3867 -12.5 C 23.6328 -10.0586 26.709 -10.1562 28.4668 -12.2559 Z M 81.0059 -26.4648 C 82.7637 -24.3652 86.084 -24.3164 88.1348 -26.7578 C 92.3828 -31.8848 94.7754 -38.7695 94.7754 -46.0938 C 94.7754 -53.4668 92.3828 -60.3516 88.1348 -65.4297 C 86.084 -67.9199 82.7637 -67.8223 81.0059 -65.7715 C 79.3457 -63.7695 80.0293 -61.4258 81.6406 -59.1797 C 84.2285 -55.6641 85.791 -50.9766 85.791 -46.0938 C 85.791 -41.2598 84.3262 -36.4746 81.6406 -33.0566 C 80.0293 -30.8105 79.3457 -28.418 81.0059 -26.4648 Z M 43.457 -26.4648 C 45.0684 -28.418 44.4336 -30.8105 42.8223 -33.0566 C 40.1367 -36.4746 38.623 -41.2598 38.623 -46.0938 C 38.623 -50.9766 40.2344 -55.6641 42.8223 -59.1797 C 44.4336 -61.4258 45.0684 -63.7695 43.457 -65.7715 C 41.6992 -67.8223 38.3789 -67.9199 36.3281 -65.4297 C 32.0801 -60.3516 29.6875 -53.4668 29.6875 -46.0938 C 29.6875 -38.7695 32.0801 -31.8848 36.3281 -26.7578 C 38.3789 -24.3164 41.6992 -24.3652 43.457 -26.4648 Z M 62.207 10.4492 C 64.8438 10.4492 66.5039 8.54492 66.5039 5.66406 L 66.5039 -37.6465 C 69.5801 -39.209 71.7285 -42.3828 71.7285 -46.0938 C 71.7285 -51.416 67.5293 -55.6152 62.207 -55.6152 C 56.9336 -55.6152 52.7344 -51.416 52.7344 -46.0938 C 52.7344 -42.3828 54.834 -39.1602 57.959 -37.6465 L 57.959 5.66406 C 57.959 8.49609 59.7168 10.4492 62.207 10.4492 Z"/>
  </g>
  <g id="Regular-M" transform="matrix(1 0 0 1 1389.27 1126)">
   <path d="M 93.5547 -12.8418 C 95.1172 -11.0352 97.8516 -11.0352 99.707 -13.0859 C 107.812 -21.875 112.402 -33.5938 112.402 -46.2402 C 112.402 -58.8867 107.812 -70.6055 99.707 -79.3945 C 97.8516 -81.4453 95.1172 -81.4453 93.5547 -79.6387 C 91.9922 -77.8809 92.4805 -75.5859 94.2383 -73.584 C 100.781 -66.3086 104.443 -56.7383 104.443 -46.2402 C 104.443 -35.7422 100.781 -26.1719 94.2383 -18.8965 C 92.4805 -16.8945 91.9922 -14.5996 93.5547 -12.8418 Z M 27.5879 -12.8418 C 29.1504 -14.5996 28.6621 -16.8945 26.9043 -18.8965 C 20.3613 -26.1719 16.6992 -35.7422 16.6992 -46.2402 C 16.6992 -56.7383 20.3613 -66.3086 26.9043 -73.584 C 28.6621 -75.5859 29.1504 -77.8809 27.5879 -79.6387 C 26.0254 -81.4453 23.291 -81.4453 21.4355 -79.3945 C 13.3301 -70.6055 8.74023 -58.8867 8.74023 -46.2402 C 8.74023 -33.5938 13.3301 -21.875 21.4355 -13.0859 C 23.291 -11.0352 26.0254 -11.0352 27.5879 -12.8418 Z M 42.2363 -26.7578 C 43.7988 -28.5156 43.1641 -30.7129 41.6016 -32.8125 C 38.6719 -36.4258 37.2559 -41.1621 37.2559 -46.2402 C 37.2559 -51.3184 38.8184 -55.9082 41.6016 -59.668 C 43.1152 -61.8164 43.7988 -63.9648 42.2363 -65.7227 C 40.625 -67.5781 37.6953 -67.627 35.9863 -65.3809 C 31.7383 -60.1074 29.2969 -53.418 29.2969 -46.2402 C 29.2969 -39.0625 31.7383 -32.373 35.9863 -27.0996 C 37.6953 -24.8535 40.625 -24.9023 42.2363 -26.7578 Z M 78.9062 -26.7578 C 80.5176 -24.9023 83.4473 -24.8535 85.1562 -27.0996 C 89.4043 -32.373 91.8457 -39.0625 91.8457 -46.2402 C 91.8457 -53.418 89.4043 -60.1074 85.1562 -65.3809 C 83.4473 -67.627 80.5176 -67.5781 78.9062 -65.7227 C 77.3438 -63.9648 78.0273 -61.8164 79.541 -59.668 C 82.3242 -55.9082 83.8867 -51.3184 83.8867 -46.2402 C 83.8867 -41.1621 82.4707 -36.4258 79.541 -32.8125 C 77.9785 -30.7129 77.3438 -28.5156 78.9062 -26.7578 Z M 60.5957 9.76562 C 62.8906 9.76562 64.3066 8.10547 64.3066 5.56641 L 64.3066 -38.2812 C 67.2852 -39.6973 69.3359 -42.7246 69.3359 -46.2402 C 69.3359 -51.123 65.4785 -55.0781 60.5957 -55.0781 C 55.6641 -55.0781 51.8066 -51.123 51.8066 -46.2402 C 51.8066 -42.7246 53.8574 -39.6973 56.8359 -38.2812 L 56.8359 5.56641 C 56.8359 8.05664 58.3496 9.76562 60.5957 9.76562 Z"/>
  </g>
  <g id="Light-M" transform="matrix(1 0 0 1 1094.64 1126)">
   <path d="M 26.1719 -13.916 C 27.3438 -15.2832 27.002 -17.041 25.6348 -18.5547 C 18.7988 -25.8789 14.8438 -35.5957 14.8438 -46.3867 C 14.8438 -57.1777 18.7988 -66.8945 25.6348 -74.2676 C 27.002 -75.7812 27.3438 -77.5391 26.1719 -78.8574 C 25 -80.2734 22.9004 -80.2734 21.4355 -78.7109 C 13.4277 -70.2148 8.74023 -58.8379 8.74023 -46.3867 C 8.74023 -33.9844 13.4277 -22.6074 21.4355 -14.1113 C 22.9004 -12.5488 25 -12.5488 26.1719 -13.916 Z M 90.7715 -13.916 C 91.9922 -12.5488 94.0918 -12.5488 95.5078 -14.1113 C 103.564 -22.6074 108.252 -33.9844 108.252 -46.3867 C 108.252 -58.8379 103.564 -70.2148 95.5078 -78.7109 C 94.0918 -80.2734 91.9922 -80.2734 90.7715 -78.8574 C 89.5996 -77.5391 89.9902 -75.7812 91.3086 -74.2676 C 98.1934 -66.8945 102.148 -57.1777 102.148 -46.3867 C 102.148 -35.5957 98.1934 -25.8789 91.3086 -18.5547 C 89.9902 -17.041 89.5996 -15.2832 90.7715 -13.916 Z M 76.709 -27.6367 C 77.9785 -26.2207 80.1758 -26.2207 81.543 -27.8809 C 85.8398 -32.8613 88.3301 -39.4043 88.3301 -46.3867 C 88.3301 -53.418 85.8398 -59.9609 81.543 -64.9414 C 80.1758 -66.6016 77.9785 -66.6016 76.709 -65.1855 C 75.5371 -63.8672 76.0742 -62.1582 77.2461 -60.5469 C 80.3711 -56.6406 82.2266 -51.8555 82.2266 -46.3867 C 82.2266 -40.9668 80.6152 -35.9375 77.2461 -32.2266 C 76.0254 -30.6641 75.5371 -28.9551 76.709 -27.6367 Z M 40.2344 -27.6367 C 41.4062 -28.9551 40.9668 -30.6641 39.7461 -32.2266 C 36.377 -35.9375 34.7168 -40.9668 34.7168 -46.3867 C 34.7168 -51.8555 36.6211 -56.6406 39.7461 -60.5469 C 40.918 -62.1582 41.4062 -63.8672 40.2344 -65.1855 C 39.0137 -66.6016 36.7676 -66.6016 35.4492 -64.9414 C 31.1035 -59.9609 28.6133 -53.418 28.6133 -46.3867 C 28.6133 -39.4043 31.1035 -32.8613 35.4492 -27.8809 C 36.7676 -26.2207 39.0137 -26.2207 40.2344 -27.6367 Z M 58.4961 9.0332 C 60.2539 9.0332 61.377 7.71484 61.377 5.81055 L 61.377 -39.209 C 64.2578 -40.332 66.2598 -43.1152 66.2598 -46.3867 C 66.2598 -50.7324 62.8418 -54.1992 58.4961 -54.1992 C 54.1504 -54.1992 50.7324 -50.7324 50.7324 -46.3867 C 50.7324 -43.1152 52.7344 -40.332 55.6152 -39.209 L 55.6152 5.81055 C 55.6152 7.71484 56.7871 9.0332 58.4961 9.0332 Z"/>
  </g>
  <g id="Thin-M" transform="matrix(1 0 0 1 800.709 1126)">
   <path d="M 24.3164 -15.3809 C 25 -16.1621 24.7559 -17.2852 23.9746 -18.0664 C 16.6992 -25.5371 12.4023 -35.4492 12.4023 -46.6309 C 12.4023 -57.8125 16.6992 -67.7246 23.9746 -75.1465 C 24.7559 -75.9766 25 -77.0996 24.3164 -77.8809 C 23.584 -78.7109 22.3145 -78.7109 21.4844 -77.832 C 13.5254 -69.7266 8.74023 -58.7402 8.74023 -46.6309 C 8.74023 -34.5215 13.5254 -23.5352 21.4844 -15.4297 C 22.3145 -14.5508 23.584 -14.5508 24.3164 -15.3809 Z M 87.1094 -15.3809 C 87.8418 -14.5508 89.1113 -14.5508 89.9414 -15.4297 C 97.9004 -23.5352 102.686 -34.5215 102.686 -46.6309 C 102.686 -58.7402 97.9004 -69.7266 89.9414 -77.832 C 89.1113 -78.7109 87.8418 -78.7109 87.1094 -77.8809 C 86.4258 -77.0996 86.7188 -75.9766 87.4512 -75.1465 C 94.7266 -67.7246 99.0723 -57.8125 99.0723 -46.6309 C 99.0723 -35.4492 94.7266 -25.5371 87.4512 -18.0664 C 86.7188 -17.2852 86.4258 -16.1621 87.1094 -15.3809 Z M 37.5977 -28.8086 C 38.2812 -29.541 38.0371 -30.6641 37.2559 -31.4941 C 33.3008 -35.2051 31.4453 -40.7227 31.4453 -46.6309 C 31.4453 -52.5391 33.7402 -57.6172 37.2559 -61.7676 C 37.9883 -62.6465 38.2812 -63.6719 37.5977 -64.4531 C 36.8652 -65.2832 35.5469 -65.2832 34.7656 -64.4043 C 30.3223 -59.7168 27.7832 -53.4668 27.7832 -46.6309 C 27.7832 -39.7949 30.3223 -33.4961 34.7656 -28.8574 C 35.5469 -27.9297 36.8652 -27.9785 37.5977 -28.8086 Z M 73.8281 -28.8086 C 74.5605 -27.9785 75.8789 -27.9297 76.709 -28.8574 C 81.1523 -33.4961 83.6914 -39.7949 83.6914 -46.6309 C 83.6914 -53.4668 81.1523 -59.7168 76.709 -64.4043 C 75.8789 -65.2832 74.5605 -65.2832 73.8281 -64.4531 C 73.1934 -63.6719 73.4863 -62.6465 74.1699 -61.7676 C 77.7344 -57.6172 80.0293 -52.5391 80.0293 -46.6309 C 80.0293 -40.7227 78.125 -35.2051 74.1699 -31.4941 C 73.4375 -30.6641 73.1934 -29.541 73.8281 -28.8086 Z M 55.7129 8.05664 C 56.7871 8.05664 57.5195 7.27539 57.5195 6.10352 L 57.5195 -40.4297 C 60.2051 -41.2109 62.1582 -43.6523 62.1582 -46.6309 C 62.1582 -50.1953 59.3262 -53.0762 55.7129 -53.0762 C 52.1484 -53.0762 49.3164 -50.1953 49.3164 -46.6309 C 49.3164 -43.6523 51.2207 -41.2109 53.9551 -40.4297 L 53.9551 6.10352 C 53.9551 7.27539 54.6875 8.05664 55.7129 8.05664 Z"/>
  </g>
  <g id="Ultralight-M" transform="matrix(1 0 0 1 505.414 1126)">
   <path d="M 85.2539 -16.1133 C 85.7422 -15.5762 86.5723 -15.5762 87.1094 -16.1133 C 95.0195 -24.0234 99.8535 -34.7656 99.8535 -46.7285 C 99.8535 -58.6914 95.0195 -69.4336 87.1094 -77.3438 C 86.5723 -77.8809 85.7422 -77.8809 85.2539 -77.3438 C 84.8145 -76.8555 85.0098 -76.0742 85.498 -75.6348 C 92.9688 -68.1152 97.5098 -58.1055 97.5098 -46.7285 C 97.5098 -35.4004 92.9688 -25.3418 85.498 -17.8711 C 85.0098 -17.3828 84.8145 -16.6016 85.2539 -16.1133 Z M 23.3887 -16.1133 C 23.7793 -16.6016 23.584 -17.3828 23.1445 -17.8711 C 15.625 -25.3418 11.1328 -35.4004 11.1328 -46.7285 C 11.1328 -58.1055 15.625 -68.1152 23.1445 -75.6348 C 23.584 -76.0742 23.7793 -76.8555 23.3887 -77.3438 C 22.9004 -77.8809 22.0703 -77.8809 21.5332 -77.3438 C 13.623 -69.4336 8.74023 -58.6914 8.74023 -46.7285 C 8.74023 -34.7656 13.623 -24.0234 21.5332 -16.1133 C 22.0703 -15.5762 22.9004 -15.5762 23.3887 -16.1133 Z M 72.3633 -29.3945 C 72.8516 -28.8574 73.6816 -28.8574 74.2188 -29.3945 C 78.7109 -33.8379 81.2988 -39.9902 81.2988 -46.7285 C 81.2988 -53.4668 78.7109 -59.6191 74.2188 -64.1113 C 73.6816 -64.5996 72.8516 -64.5996 72.3633 -64.0625 C 71.9727 -63.623 72.1191 -62.8906 72.6074 -62.3535 C 76.3672 -58.1055 78.9062 -52.8809 78.9062 -46.7285 C 78.9062 -40.625 76.9043 -34.8633 72.6074 -31.1035 C 72.0703 -30.6641 71.9727 -29.8828 72.3633 -29.3945 Z M 36.2305 -29.3945 C 36.6699 -29.8828 36.5234 -30.6641 35.9863 -31.1035 C 31.7383 -34.8633 29.7363 -40.625 29.7363 -46.7285 C 29.7363 -52.8809 32.2266 -58.1055 35.9863 -62.3535 C 36.4746 -62.8906 36.6699 -63.623 36.2305 -64.0625 C 35.7422 -64.5996 34.9121 -64.5996 34.375 -64.1113 C 29.8828 -59.6191 27.3438 -53.4668 27.3438 -46.7285 C 27.3438 -39.9902 29.8828 -33.8379 34.375 -29.3945 C 34.9121 -28.8574 35.7422 -28.8574 36.2305 -29.3945 Z M 54.2969 7.56836 C 55.0293 7.56836 55.5176 7.03125 55.5176 6.25 L 55.5176 -41.1133 C 58.1055 -41.6504 60.0586 -43.9453 60.0586 -46.7285 C 60.0586 -49.9512 57.5195 -52.4902 54.2969 -52.4902 C 51.123 -52.4902 48.584 -49.9512 48.584 -46.7285 C 48.584 -43.9453 50.4883 -41.6504 53.125 -41.1133 L 53.125 6.25 C 53.125 7.03125 53.5645 7.56836 54.2969 7.56836 Z"/>
  </g>
  <g id="Black-S" transform="matrix(1 0 0 1 2878.91 696)">
   <path d="M 83.6914 -15.1855 C 85.7422 -12.6465 89.3066 -12.207 92.4316 -15.3809 C 98.9746 -22.0703 102.148 -32.373 102.148 -43.3105 C 102.148 -54.1504 98.5352 -65.0391 92.4316 -71.1914 C 89.3066 -74.3652 85.7422 -73.9258 83.6914 -71.3867 C 81.8359 -69.0918 82.5195 -66.3574 84.4727 -64.209 C 89.1113 -59.1309 91.6016 -51.5137 91.6016 -43.3105 C 91.6016 -35.0586 89.1113 -27.4414 84.4727 -22.3633 C 82.5195 -20.2148 81.8359 -17.4805 83.6914 -15.1855 Z M 25.293 -15.1855 C 27.1484 -17.4805 26.4648 -20.2148 24.5117 -22.3633 C 19.873 -27.4414 17.3828 -35.0586 17.3828 -43.3105 C 17.3828 -51.5137 19.873 -59.1309 24.5117 -64.209 C 26.4648 -66.3574 27.1484 -69.0918 25.293 -71.3867 C 23.2422 -73.9258 19.6777 -74.3652 16.5527 -71.1914 C 10.498 -65.0391 6.83594 -54.1504 6.83594 -43.3105 C 6.83594 -32.373 10.0098 -22.0703 16.5527 -15.3809 C 19.6777 -12.207 23.2422 -12.6465 25.293 -15.1855 Z M 38.1348 -27.3926 C 39.7461 -29.5898 39.3066 -32.2266 37.7441 -34.4238 C 36.4258 -36.2793 35.1562 -40.2832 35.1562 -43.3105 C 35.1562 -46.3379 36.4258 -50.3418 37.7441 -52.1973 C 39.3066 -54.3945 39.7461 -57.0312 38.1348 -59.2285 C 36.2793 -61.7676 32.4219 -61.9629 29.6387 -59.1309 C 26.3184 -55.7129 24.6094 -49.6582 24.6094 -43.3105 C 24.6094 -36.9629 26.3184 -30.9082 29.6387 -27.4902 C 32.4219 -24.6582 36.2793 -24.8535 38.1348 -27.3926 Z M 70.8496 -27.3926 C 72.7051 -24.8535 76.5625 -24.6582 79.3457 -27.4902 C 82.666 -30.9082 84.375 -36.9629 84.375 -43.3105 C 84.375 -49.6582 82.666 -55.7129 79.3457 -59.1309 C 76.5625 -61.9629 72.7051 -61.7676 70.8496 -59.2285 C 69.2383 -57.0312 69.6777 -54.3945 71.2402 -52.1973 C 72.5586 -50.3418 73.8281 -46.3379 73.8281 -43.3105 C 73.8281 -40.2832 72.5586 -36.2793 71.2402 -34.4238 C 69.6777 -32.2266 69.2383 -29.5898 70.8496 -27.3926 Z M 54.4922 2.92969 C 57.666 2.92969 59.668 0.683594 59.668 -2.88086 L 59.668 -34.8633 C 62.5 -36.6211 64.4043 -39.7461 64.4043 -43.3105 C 64.4043 -48.7793 59.9609 -53.2227 54.4922 -53.2227 C 49.0234 -53.2227 44.5801 -48.7793 44.5801 -43.3105 C 44.5801 -39.7461 46.4844 -36.6211 49.3164 -34.8633 L 49.3164 -2.88086 C 49.3164 0.537109 51.4648 2.92969 54.4922 2.92969 Z"/>
  </g>
  <g id="Heavy-S" transform="matrix(1 0 0 1 2583.61 696)">
   <path d="M 24.5605 -15.6738 C 26.3184 -17.7734 25.7324 -20.3613 23.8281 -22.4121 C 19.1406 -27.6367 16.6016 -35.2051 16.6016 -43.4082 C 16.6016 -51.6113 19.1406 -59.1797 23.8281 -64.4043 C 25.7324 -66.4551 26.3184 -69.043 24.5605 -71.1426 C 22.7051 -73.4863 19.3848 -73.8281 16.6016 -70.9473 C 10.4492 -64.5996 6.83594 -54.0527 6.83594 -43.4082 C 6.83594 -32.7148 10.1074 -22.6074 16.6016 -15.8691 C 19.3848 -12.9883 22.7051 -13.3301 24.5605 -15.6738 Z M 81.543 -15.6738 C 83.4473 -13.3301 86.7676 -12.9883 89.5508 -15.8691 C 96.0449 -22.6074 99.3164 -32.7148 99.3164 -43.4082 C 99.3164 -54.0527 95.7031 -64.5996 89.5508 -70.9473 C 86.7676 -73.8281 83.4473 -73.4863 81.543 -71.1426 C 79.7852 -69.043 80.4199 -66.4551 82.2754 -64.4043 C 87.0117 -59.1797 89.5508 -51.6113 89.5508 -43.4082 C 89.5508 -35.2051 87.0117 -27.6367 82.2754 -22.4121 C 80.4199 -20.3613 79.7852 -17.7734 81.543 -15.6738 Z M 68.9453 -27.5879 C 70.7031 -25.2441 74.2676 -25.0977 76.7578 -27.7344 C 80.0781 -31.3477 81.8359 -37.207 81.8359 -43.4082 C 81.8359 -49.6094 80.0781 -55.5176 76.7578 -59.1309 C 74.2676 -61.7676 70.7031 -61.5723 68.9453 -59.2773 C 67.3828 -57.2266 67.8711 -54.7363 69.3848 -52.5879 C 70.8984 -50.5371 72.1191 -46.6309 72.1191 -43.4082 C 72.1191 -40.1855 70.8984 -36.3281 69.3848 -34.2285 C 67.8711 -32.0801 67.3828 -29.6387 68.9453 -27.5879 Z M 37.1582 -27.5879 C 38.7207 -29.6387 38.2812 -32.0801 36.7188 -34.2285 C 35.2539 -36.3281 34.0332 -40.1855 34.0332 -43.4082 C 34.0332 -46.6309 35.2539 -50.5371 36.7188 -52.5879 C 38.2812 -54.7363 38.7207 -57.2266 37.1582 -59.2773 C 35.4004 -61.5723 31.8359 -61.7676 29.3457 -59.1309 C 26.0254 -55.5176 24.2676 -49.6094 24.2676 -43.4082 C 24.2676 -37.207 26.0254 -31.3477 29.3457 -27.7344 C 31.8359 -25.0977 35.4004 -25.2441 37.1582 -27.5879 Z M 53.0762 2.34375 C 55.957 2.34375 57.8125 0.244141 57.8125 -2.97852 L 57.8125 -35.4004 C 60.5469 -37.0605 62.4023 -40.0391 62.4023 -43.4082 C 62.4023 -48.584 58.2031 -52.7344 53.0762 -52.7344 C 47.9004 -52.7344 43.75 -48.584 43.75 -43.4082 C 43.75 -39.9902 45.6055 -37.0117 48.3398 -35.4004 L 48.3398 -2.97852 C 48.3398 0.146484 50.293 2.34375 53.0762 2.34375 Z"/>
  </g>
  <g id="Bold-S" transform="matrix(1 0 0 1 2288.51 696)">
   <path d="M 23.7793 -16.1621 C 25.4395 -18.1152 24.8535 -20.5078 23.0957 -22.4609 C 18.3105 -27.8809 15.6738 -35.3516 15.6738 -43.5547 C 15.6738 -51.709 18.3105 -59.1797 23.0957 -64.5996 C 24.8535 -66.5527 25.4395 -68.9453 23.7793 -70.8984 C 22.0703 -72.998 19.043 -73.1934 16.6504 -70.6543 C 10.4492 -64.0625 6.83594 -53.9551 6.83594 -43.5547 C 6.83594 -33.0566 10.2051 -23.2422 16.6504 -16.4062 C 19.043 -13.8672 22.0703 -14.0625 23.7793 -16.1621 Z M 79.1504 -16.1621 C 80.9082 -14.0625 83.8867 -13.8672 86.2793 -16.4062 C 92.7734 -23.2422 96.0938 -33.0566 96.0938 -43.5547 C 96.0938 -53.9551 92.5293 -64.0625 86.2793 -70.6543 C 83.8867 -73.1934 80.9082 -72.998 79.1504 -70.8984 C 77.5391 -68.9453 78.0762 -66.5527 79.834 -64.5996 C 84.668 -59.1797 87.2559 -51.709 87.2559 -43.5547 C 87.2559 -35.3516 84.668 -27.8809 79.834 -22.4609 C 78.0762 -20.5078 77.5391 -18.1152 79.1504 -16.1621 Z M 66.8457 -27.7832 C 68.5059 -25.6836 71.7285 -25.5859 73.9258 -27.9785 C 77.1973 -31.8359 79.0039 -37.5488 79.0039 -43.5547 C 79.0039 -49.5605 77.1973 -55.2734 73.9258 -59.082 C 71.7285 -61.5234 68.5059 -61.377 66.8457 -59.3262 C 65.332 -57.4219 65.8691 -55.127 67.334 -53.0762 C 68.9941 -50.7324 70.166 -46.9727 70.166 -43.5547 C 70.166 -40.1367 69.043 -36.377 67.334 -34.0332 C 65.8691 -31.9336 65.332 -29.6875 66.8457 -27.7832 Z M 36.084 -27.7832 C 37.5977 -29.6875 37.1094 -31.9336 35.6445 -34.0332 C 33.9355 -36.377 32.7637 -40.1367 32.7637 -43.5547 C 32.7637 -46.9727 33.9355 -50.7324 35.6445 -53.0762 C 37.0605 -55.127 37.5977 -57.4219 36.084 -59.3262 C 34.4238 -61.377 31.2012 -61.5234 29.0527 -59.082 C 25.7324 -55.2734 23.9258 -49.5605 23.9258 -43.5547 C 23.9258 -37.5488 25.7324 -31.8359 29.0527 -27.9785 C 31.2012 -25.5859 34.4238 -25.6836 36.084 -27.7832 Z M 51.4648 1.66016 C 54.1016 1.66016 55.7129 -0.244141 55.7129 -3.125 L 55.7129 -36.0352 C 58.3496 -37.5 60.1074 -40.332 60.1074 -43.5547 C 60.1074 -48.3398 56.25 -52.1973 51.4648 -52.1973 C 46.6797 -52.1973 42.8223 -48.3398 42.8223 -43.5547 C 42.8223 -40.332 44.5801 -37.5 47.2168 -36.0352 L 47.2168 -3.125 C 47.2168 -0.341797 48.9746 1.66016 51.4648 1.66016 Z"/>
  </g>
  <g id="Semibold-S" transform="matrix(1 0 0 1 1992.9 696)">
   <path d="M 23.2422 -16.5527 C 24.8047 -18.3594 24.2676 -20.6055 22.5586 -22.5098 C 17.7246 -28.0273 15.0391 -35.498 15.0391 -43.6035 C 15.0391 -51.7578 17.7246 -59.2285 22.5586 -64.6973 C 24.2676 -66.6504 24.8047 -68.8965 23.2422 -70.7031 C 21.6309 -72.6562 18.8477 -72.7539 16.6992 -70.5078 C 10.4004 -63.7207 6.83594 -53.9062 6.83594 -43.6035 C 6.83594 -33.3008 10.2539 -23.6816 16.6992 -16.748 C 18.8477 -14.4531 21.6309 -14.5996 23.2422 -16.5527 Z M 77.4902 -16.5527 C 79.1016 -14.5996 81.9336 -14.4531 84.082 -16.748 C 90.4785 -23.6816 93.8965 -33.3008 93.8965 -43.6035 C 93.8965 -53.9062 90.3809 -63.7207 84.082 -70.5078 C 81.9336 -72.7539 79.1016 -72.6562 77.4902 -70.7031 C 75.9766 -68.8965 76.4648 -66.6504 78.1738 -64.6973 C 83.0566 -59.2285 85.6934 -51.7578 85.6934 -43.6035 C 85.6934 -35.498 83.0566 -28.0273 78.1738 -22.5098 C 76.4648 -20.6055 75.9766 -18.3594 77.4902 -16.5527 Z M 35.3516 -27.9297 C 36.8164 -29.6875 36.2793 -31.8359 34.8633 -33.8867 C 33.0078 -36.377 31.8848 -40.0879 31.8848 -43.6035 C 31.8848 -47.168 33.0078 -50.8301 34.8633 -53.3691 C 36.2793 -55.4199 36.8164 -57.5684 35.3516 -59.3262 C 33.7891 -61.2793 30.7617 -61.377 28.8086 -59.082 C 25.5371 -55.0781 23.6816 -49.5117 23.6816 -43.6035 C 23.6816 -37.7441 25.5371 -32.1777 28.8086 -28.1738 C 30.7617 -25.8789 33.7891 -25.9766 35.3516 -27.9297 Z M 65.3809 -27.9297 C 66.9922 -25.9766 69.9707 -25.8789 71.9238 -28.1738 C 75.2441 -32.1777 77.0508 -37.7441 77.0508 -43.6035 C 77.0508 -49.5117 75.2441 -55.0781 71.9238 -59.082 C 69.9707 -61.377 66.9922 -61.2793 65.3809 -59.3262 C 63.916 -57.5684 64.4531 -55.4199 65.918 -53.3691 C 67.7246 -50.8301 68.8477 -47.168 68.8477 -43.6035 C 68.8477 -40.0879 67.7246 -36.377 65.918 -33.8867 C 64.4531 -31.8359 63.916 -29.6875 65.3809 -27.9297 Z M 50.3906 1.17188 C 52.7832 1.17188 54.2969 -0.537109 54.2969 -3.22266 L 54.2969 -36.4746 C 56.8359 -37.8418 58.5449 -40.5273 58.5449 -43.6035 C 58.5449 -48.1934 54.9316 -51.8555 50.3906 -51.8555 C 45.8496 -51.8555 42.1875 -48.1934 42.1875 -43.6035 C 42.1875 -40.5273 43.8965 -37.8418 46.4355 -36.4258 L 46.4355 -3.22266 C 46.4355 -0.634766 48.0469 1.17188 50.3906 1.17188 Z"/>
  </g>
  <g id="Medium-S" transform="matrix(1 0 0 1 1697.02 696)">
   <path d="M 22.8516 -16.7969 C 24.3164 -18.5059 23.8281 -20.6543 22.168 -22.5586 C 17.2852 -28.125 14.5996 -35.5469 14.5996 -43.7012 C 14.5996 -51.8066 17.2852 -59.2285 22.168 -64.7949 C 23.8281 -66.6992 24.3164 -68.8477 22.8516 -70.5566 C 21.2891 -72.3633 18.6523 -72.4609 16.6992 -70.3613 C 10.4004 -63.4766 6.83594 -53.8574 6.83594 -43.7012 C 6.83594 -33.4961 10.3027 -24.0234 16.6992 -17.041 C 18.6523 -14.9414 21.2891 -14.9902 22.8516 -16.7969 Z M 76.2695 -16.7969 C 77.7832 -14.9902 80.4199 -14.9414 82.373 -17.041 C 88.7695 -24.0234 92.2363 -33.4961 92.2363 -43.7012 C 92.2363 -53.8574 88.7207 -63.4766 82.373 -70.3613 C 80.4199 -72.4609 77.7832 -72.3633 76.2695 -70.5566 C 74.7559 -68.8477 75.2441 -66.6992 76.9043 -64.7949 C 81.8359 -59.2285 84.5215 -51.8066 84.5215 -43.7012 C 84.5215 -35.5469 81.8359 -28.125 76.9043 -22.5586 C 75.2441 -20.6543 74.7559 -18.5059 76.2695 -16.7969 Z M 64.3066 -28.0273 C 65.8203 -26.2207 68.6523 -26.1719 70.4102 -28.3203 C 73.7305 -32.4219 75.5859 -37.8906 75.5859 -43.7012 C 75.5859 -49.5117 73.7305 -54.9805 70.4102 -59.082 C 68.6523 -61.2305 65.8203 -61.1816 64.3066 -59.375 C 62.8418 -57.666 63.4277 -55.6152 64.8438 -53.6133 C 66.748 -50.9766 67.8711 -47.3633 67.8711 -43.7012 C 67.8711 -40.0391 66.748 -36.4258 64.8438 -33.7402 C 63.4277 -31.7871 62.8418 -29.7363 64.3066 -28.0273 Z M 34.8145 -28.0273 C 36.2305 -29.7363 35.6445 -31.7871 34.2773 -33.7402 C 32.3242 -36.4258 31.25 -40.0391 31.25 -43.7012 C 31.25 -47.3633 32.3242 -50.9766 34.2773 -53.6133 C 35.6445 -55.6152 36.2305 -57.666 34.8145 -59.375 C 33.252 -61.1816 30.4199 -61.2305 28.6621 -59.082 C 25.3418 -54.9805 23.4863 -49.5117 23.4863 -43.7012 C 23.4863 -37.8906 25.3418 -32.4219 28.6621 -28.3203 C 30.4199 -26.1719 33.252 -26.2207 34.8145 -28.0273 Z M 49.5605 0.830078 C 51.8066 0.830078 53.2227 -0.78125 53.2227 -3.27148 L 53.2227 -36.7676 C 55.6641 -38.0859 57.373 -40.7227 57.373 -43.7012 C 57.373 -48.0469 53.9062 -51.5625 49.5605 -51.5625 C 45.166 -51.5625 41.6992 -48.0469 41.6992 -43.7012 C 41.6992 -40.6738 43.4082 -38.0859 45.8984 -36.7676 L 45.8984 -3.27148 C 45.8984 -0.878906 47.3633 0.830078 49.5605 0.830078 Z"/>
  </g>
  <g id="Regular-S" transform="matrix(1 0 0 1 1401.38 696)">
   <path d="M 22.3145 -17.1387 C 23.6816 -18.75 23.291 -20.8008 21.6797 -22.6074 C 16.6992 -28.2715 13.9648 -35.6934 13.9648 -43.7988 C 13.9648 -51.8555 16.6992 -59.2773 21.6797 -64.9414 C 23.291 -66.7969 23.6816 -68.7988 22.3145 -70.4102 C 20.8984 -72.0215 18.457 -72.0215 16.748 -70.166 C 10.3516 -63.1348 6.83594 -53.8086 6.83594 -43.7988 C 6.83594 -33.7402 10.3516 -24.4141 16.748 -17.3828 C 18.457 -15.5273 20.8984 -15.5273 22.3145 -17.1387 Z M 74.6094 -17.1387 C 76.0254 -15.5273 78.4668 -15.5273 80.1758 -17.3828 C 86.5234 -24.4141 90.0879 -33.7402 90.0879 -43.7988 C 90.0879 -53.8086 86.5234 -63.1348 80.1758 -70.166 C 78.4668 -72.0215 76.0254 -72.0215 74.6094 -70.4102 C 73.1934 -68.7988 73.6328 -66.7969 75.2441 -64.9414 C 80.2246 -59.2773 82.959 -51.8555 82.959 -43.7988 C 82.959 -35.6934 80.2246 -28.2715 75.2441 -22.6074 C 73.6328 -20.8008 73.1934 -18.75 74.6094 -17.1387 Z M 34.082 -28.1738 C 35.4492 -29.7363 34.8633 -31.6895 33.4961 -33.5938 C 31.4453 -36.4258 30.3711 -39.9414 30.3711 -43.7988 C 30.3711 -47.6074 31.4453 -51.0742 33.4961 -53.9551 C 34.8633 -55.8594 35.4492 -57.8125 34.082 -59.375 C 32.6172 -61.0352 29.9805 -61.084 28.418 -59.082 C 25.1465 -54.7852 23.2422 -49.4629 23.2422 -43.7988 C 23.2422 -38.0859 25.1465 -32.7637 28.418 -28.4668 C 29.9805 -26.4648 32.6172 -26.5137 34.082 -28.1738 Z M 62.8418 -28.1738 C 64.3066 -26.5137 66.9434 -26.4648 68.457 -28.4668 C 71.7773 -32.7637 73.6816 -38.0859 73.6816 -43.7988 C 73.6816 -49.4629 71.7773 -54.7852 68.457 -59.082 C 66.9434 -61.084 64.3066 -61.0352 62.8418 -59.375 C 61.4258 -57.8125 62.0605 -55.8594 63.4277 -53.9551 C 65.4785 -51.0742 66.5527 -47.6074 66.5527 -43.7988 C 66.5527 -39.9414 65.4785 -36.4258 63.4277 -33.5938 C 62.0605 -31.6895 61.4258 -29.7363 62.8418 -28.1738 Z M 48.4375 0.390625 C 50.5371 0.390625 51.8066 -1.12305 51.8066 -3.36914 L 51.8066 -37.207 C 54.1992 -38.4277 55.8105 -40.918 55.8105 -43.7988 C 55.8105 -47.9004 52.5879 -51.1719 48.4375 -51.1719 C 44.3359 -51.1719 41.1133 -47.9004 41.1133 -43.7988 C 41.1133 -40.918 42.7246 -38.4277 45.1172 -37.207 L 45.1172 -3.36914 C 45.1172 -1.17188 46.4844 0.390625 48.4375 0.390625 Z"/>
  </g>
  <g id="Light-S" transform="matrix(1 0 0 1 1106.53 696)">
   <path d="M 21.0449 -18.1152 C 22.1191 -19.3359 21.7773 -20.9473 20.5566 -22.3145 C 15.2832 -28.0273 12.3047 -35.5957 12.3047 -43.9453 C 12.3047 -52.2949 15.2832 -59.8145 20.5566 -65.5273 C 21.7773 -66.9434 22.1191 -68.5059 21.0449 -69.7266 C 19.9707 -70.9961 18.0664 -70.9961 16.7969 -69.5801 C 10.4492 -62.793 6.83594 -53.7598 6.83594 -43.9453 C 6.83594 -34.082 10.4492 -25.0488 16.7969 -18.3105 C 18.0664 -16.8457 19.9707 -16.8457 21.0449 -18.1152 Z M 72.168 -18.1152 C 73.2422 -16.8457 75.1465 -16.8457 76.416 -18.3105 C 82.7637 -25.0488 86.377 -34.082 86.377 -43.9453 C 86.377 -53.7598 82.7637 -62.793 76.416 -69.5801 C 75.1465 -70.9961 73.2422 -70.9961 72.168 -69.7266 C 71.0938 -68.5059 71.4355 -66.9434 72.6562 -65.5273 C 77.9297 -59.8145 80.9082 -52.2949 80.9082 -43.9453 C 80.9082 -35.5957 77.9297 -28.0273 72.6562 -22.3145 C 71.4355 -20.9473 71.0938 -19.3359 72.168 -18.1152 Z M 60.9375 -28.9551 C 62.0605 -27.6855 64.0625 -27.6367 65.2344 -29.1504 C 68.6035 -33.2031 70.5566 -38.3789 70.5566 -43.9453 C 70.5566 -49.4629 68.6035 -54.6387 65.2344 -58.6914 C 64.0625 -60.2051 62.0605 -60.1562 60.9375 -58.8867 C 59.8633 -57.7148 60.3027 -56.2012 61.377 -54.7363 C 63.7207 -51.7578 65.0391 -48.0469 65.0391 -43.9453 C 65.0391 -39.7949 63.8184 -35.9863 61.377 -33.1055 C 60.3027 -31.6895 59.8633 -30.1758 60.9375 -28.9551 Z M 32.2754 -28.9551 C 33.3496 -30.1758 32.9102 -31.6895 31.8359 -33.1055 C 29.3945 -35.9863 28.1738 -39.7949 28.1738 -43.9453 C 28.1738 -48.0469 29.4922 -51.7578 31.8359 -54.7363 C 32.9102 -56.2012 33.3496 -57.7148 32.2754 -58.8867 C 31.1523 -60.1562 29.1504 -60.2051 27.9785 -58.6914 C 24.6094 -54.6387 22.6562 -49.4629 22.6562 -43.9453 C 22.6562 -38.3789 24.6094 -33.2031 27.9785 -29.1504 C 29.1504 -27.6367 31.1523 -27.6855 32.2754 -28.9551 Z M 46.6309 -0.292969 C 48.1934 -0.292969 49.2188 -1.41602 49.2188 -3.17383 L 49.2188 -37.9883 C 51.4648 -38.9648 53.0762 -41.2598 53.0762 -43.9453 C 53.0762 -47.5586 50.2441 -50.4395 46.6309 -50.4395 C 43.0176 -50.4395 40.1367 -47.5586 40.1367 -43.9453 C 40.1367 -41.2598 41.6992 -38.9648 44.043 -37.9883 L 44.043 -3.17383 C 44.043 -1.46484 45.0684 -0.292969 46.6309 -0.292969 Z"/>
  </g>
  <g id="Thin-S" transform="matrix(1 0 0 1 812.257 696)">
   <path d="M 68.9453 -19.3848 C 69.5801 -18.6523 70.752 -18.6523 71.5332 -19.4824 C 77.7832 -25.8789 81.4941 -34.5703 81.4941 -44.0918 C 81.4941 -53.6621 77.7832 -62.3535 71.5332 -68.75 C 70.752 -69.5801 69.5801 -69.5801 68.9453 -68.8477 C 68.3105 -68.1152 68.5547 -67.0898 69.2383 -66.3574 C 74.8535 -60.5469 78.1738 -52.7832 78.1738 -44.0918 C 78.1738 -35.4492 74.8535 -27.6855 69.2383 -21.875 C 68.5547 -21.0938 68.3105 -20.1172 68.9453 -19.3848 Z M 19.3848 -19.3848 C 20.0195 -20.1172 19.8242 -21.0938 19.0918 -21.875 C 13.4766 -27.6855 10.1562 -35.4492 10.1562 -44.0918 C 10.1562 -52.7832 13.4766 -60.5469 19.0918 -66.3574 C 19.8242 -67.0898 20.0195 -68.1152 19.3848 -68.8477 C 18.75 -69.5801 17.5781 -69.5801 16.7969 -68.75 C 10.5469 -62.3535 6.83594 -53.6621 6.83594 -44.0918 C 6.83594 -34.5703 10.5469 -25.8789 16.7969 -19.4824 C 17.5781 -18.6523 18.75 -18.6523 19.3848 -19.3848 Z M 58.3984 -29.9805 C 59.082 -29.1992 60.2539 -29.1992 60.9863 -30.0293 C 64.4531 -33.7402 66.4062 -38.7207 66.4062 -44.0918 C 66.4062 -49.5117 64.4531 -54.4922 60.9863 -58.2031 C 60.2539 -59.0332 59.082 -59.0332 58.3984 -58.252 C 57.7637 -57.5684 58.0566 -56.5918 58.6914 -55.7617 C 61.377 -52.5879 63.0859 -48.6328 63.0859 -44.0918 C 63.0859 -39.5996 61.6699 -35.3516 58.6914 -32.4707 C 58.0078 -31.6406 57.7637 -30.6641 58.3984 -29.9805 Z M 29.9316 -29.9805 C 30.5664 -30.6641 30.3223 -31.6406 29.6387 -32.4707 C 26.6602 -35.3516 25.2441 -39.5996 25.2441 -44.0918 C 25.2441 -48.6328 26.9531 -52.5879 29.6387 -55.7617 C 30.3223 -56.5918 30.5664 -57.5684 29.9316 -58.252 C 29.2969 -59.0332 28.0762 -59.0332 27.3438 -58.2031 C 23.877 -54.4922 21.9238 -49.5117 21.9238 -44.0918 C 21.9238 -38.7207 23.877 -33.7402 27.3438 -30.0293 C 28.0762 -29.1992 29.2969 -29.1992 29.9316 -29.9805 Z M 44.1895 -1.12305 C 45.166 -1.12305 45.752 -1.85547 45.752 -2.92969 L 45.752 -39.0625 C 47.9004 -39.7461 49.4629 -41.748 49.4629 -44.0918 C 49.4629 -47.0703 47.1191 -49.4141 44.1895 -49.4141 C 41.2109 -49.4141 38.8672 -47.0703 38.8672 -44.0918 C 38.8672 -41.748 40.4297 -39.7461 42.5781 -39.0625 L 42.5781 -2.92969 C 42.5781 -1.85547 43.2129 -1.12305 44.1895 -1.12305 Z"/>
  </g>
  <g id="Ultralight-S" transform="matrix(1 0 0 1 516.791 696)">
   <path d="M 67.2852 -20.0684 C 67.7246 -19.5801 68.5059 -19.5801 68.9941 -20.0684 C 75.1953 -26.3184 79.0039 -34.8145 79.0039 -44.2383 C 79.0039 -53.6133 75.1953 -62.1094 68.9941 -68.3594 C 68.5059 -68.8477 67.7246 -68.8477 67.2852 -68.3594 C 66.8945 -67.9199 67.041 -67.2363 67.4805 -66.748 C 73.291 -60.8887 76.8066 -53.0762 76.8066 -44.2383 C 76.8066 -35.3516 73.291 -27.5391 67.4805 -21.6797 C 67.041 -21.2402 66.8945 -20.5078 67.2852 -20.0684 Z M 18.5547 -20.0684 C 18.9453 -20.5078 18.7988 -21.2402 18.3594 -21.6797 C 12.5 -27.5391 9.0332 -35.3516 9.0332 -44.2383 C 9.0332 -53.0762 12.5 -60.8887 18.3594 -66.748 C 18.7988 -67.2363 18.9453 -67.9199 18.5547 -68.3594 C 18.1152 -68.8477 17.334 -68.8477 16.8457 -68.3594 C 10.6445 -62.1094 6.83594 -53.6133 6.83594 -44.2383 C 6.83594 -34.8145 10.6445 -26.3184 16.8457 -20.0684 C 17.334 -19.5801 18.1152 -19.5801 18.5547 -20.0684 Z M 57.0801 -30.5176 C 57.5195 -29.9805 58.3008 -29.9805 58.7891 -30.5176 C 62.3047 -34.082 64.3066 -38.916 64.3066 -44.2383 C 64.3066 -49.5117 62.3047 -54.3457 58.7891 -57.9102 C 58.3008 -58.4473 57.5195 -58.4473 57.0801 -57.959 C 56.6895 -57.4707 56.8848 -56.8359 57.2754 -56.2988 C 60.2051 -53.0273 62.1094 -48.9746 62.1094 -44.2383 C 62.1094 -39.502 60.5469 -35.0098 57.2754 -32.1289 C 56.8359 -31.6406 56.6895 -30.957 57.0801 -30.5176 Z M 28.7598 -30.5176 C 29.1504 -30.957 29.0039 -31.6406 28.5156 -32.1289 C 25.293 -35.0098 23.7305 -39.502 23.7305 -44.2383 C 23.7305 -48.9746 25.6348 -53.0273 28.5156 -56.2988 C 28.9551 -56.8359 29.1504 -57.4707 28.7598 -57.959 C 28.3203 -58.4473 27.5391 -58.4473 27.002 -57.9102 C 23.5352 -54.3457 21.5332 -49.5117 21.5332 -44.2383 C 21.5332 -38.916 23.5352 -34.082 27.002 -30.5176 C 27.5391 -29.9805 28.3203 -29.9805 28.7598 -30.5176 Z M 42.9199 -1.5625 C 43.5547 -1.5625 43.9941 -2.05078 43.9941 -2.7832 L 43.9941 -39.6484 C 46.0938 -40.1367 47.6074 -41.9922 47.6074 -44.2383 C 47.6074 -46.8262 45.5078 -48.877 42.9199 -48.877 C 40.2832 -48.877 38.2324 -46.8262 38.2324 -44.2383 C 38.2324 -41.9922 39.7461 -40.1367 41.8457 -39.6484 L 41.8457 -2.7832 C 41.8457 -2.05078 42.2363 -1.5625 42.9199 -1.5625 Z"/>
  </g>
 </g>
</svg>
