<?xml version="1.0" encoding="UTF-8"?>
<!--Generator: Apple Native CoreSVG 123-->
<!DOCTYPE svg
PUBLIC "-//W3C//DTD SVG 1.1//EN"
       "http://www.w3.org/Graphics/SVG/1.1/DTD/svg11.dtd">
<svg version="1.1" xmlns="http://www.w3.org/2000/svg" xmlns:xlink="http://www.w3.org/1999/xlink" width="3300" height="2200">
 <!--glyph: "uni10007F.medium", point size: 100.000000, font version: "Version 15.0d7e11", template writer version: "5"-->
 <g id="Notes">
  <rect height="2200" id="artboard" style="fill:white;opacity:1" width="3300" x="0" y="0"/>
  <line id="" style="fill:none;stroke:black;opacity:1;stroke-width:0.5;" x1="263" x2="3036" y1="292" y2="292"/>
  <text style="stroke:none;fill:black;font-family:-apple-system,&quot;SF Pro Display&quot;,&quot;SF Pro Text&quot;,Helvetica,sans-serif;font-weight:bold;" transform="matrix(1 0 0 1 263 322)">Weight/Scale Variations</text>
  <text style="stroke:none;fill:black;font-family:-apple-system,&quot;SF Pro Display&quot;,&quot;SF Pro Text&quot;,Helvetica,sans-serif;text-anchor:middle;" transform="matrix(1 0 0 1 559.711 322)">Ultralight</text>
  <text style="stroke:none;fill:black;font-family:-apple-system,&quot;SF Pro Display&quot;,&quot;SF Pro Text&quot;,Helvetica,sans-serif;text-anchor:middle;" transform="matrix(1 0 0 1 856.422 322)">Thin</text>
  <text style="stroke:none;fill:black;font-family:-apple-system,&quot;SF Pro Display&quot;,&quot;SF Pro Text&quot;,Helvetica,sans-serif;text-anchor:middle;" transform="matrix(1 0 0 1 1153.13 322)">Light</text>
  <text style="stroke:none;fill:black;font-family:-apple-system,&quot;SF Pro Display&quot;,&quot;SF Pro Text&quot;,Helvetica,sans-serif;text-anchor:middle;" transform="matrix(1 0 0 1 1449.84 322)">Regular</text>
  <text style="stroke:none;fill:black;font-family:-apple-system,&quot;SF Pro Display&quot;,&quot;SF Pro Text&quot;,Helvetica,sans-serif;text-anchor:middle;" transform="matrix(1 0 0 1 1746.56 322)">Medium</text>
  <text style="stroke:none;fill:black;font-family:-apple-system,&quot;SF Pro Display&quot;,&quot;SF Pro Text&quot;,Helvetica,sans-serif;text-anchor:middle;" transform="matrix(1 0 0 1 2043.27 322)">Semibold</text>
  <text style="stroke:none;fill:black;font-family:-apple-system,&quot;SF Pro Display&quot;,&quot;SF Pro Text&quot;,Helvetica,sans-serif;text-anchor:middle;" transform="matrix(1 0 0 1 2339.98 322)">Bold</text>
  <text style="stroke:none;fill:black;font-family:-apple-system,&quot;SF Pro Display&quot;,&quot;SF Pro Text&quot;,Helvetica,sans-serif;text-anchor:middle;" transform="matrix(1 0 0 1 2636.69 322)">Heavy</text>
  <text style="stroke:none;fill:black;font-family:-apple-system,&quot;SF Pro Display&quot;,&quot;SF Pro Text&quot;,Helvetica,sans-serif;text-anchor:middle;" transform="matrix(1 0 0 1 2933.4 322)">Black</text>
  <line id="" style="fill:none;stroke:black;opacity:1;stroke-width:0.5;" x1="263" x2="3036" y1="1903" y2="1903"/>
  <g id="" transform="matrix(1 0 0 1 263 1933)">
   <path d="M 9.24805 0.830078 C 13.5547 0.830078 17.1387 -2.74414 17.1387 -7.05078 C 17.1387 -11.3574 13.5449 -14.9316 9.23828 -14.9316 C 4.94141 -14.9316 1.36719 -11.3574 1.36719 -7.05078 C 1.36719 -2.74414 4.95117 0.830078 9.24805 0.830078 Z M 9.24805 -0.654297 C 5.70312 -0.654297 2.87109 -3.49609 2.87109 -7.05078 C 2.87109 -10.6055 5.69336 -13.4473 9.23828 -13.4473 C 12.793 -13.4473 15.6348 -10.6055 15.6445 -7.05078 C 15.6543 -3.49609 12.8027 -0.654297 9.24805 -0.654297 Z M 9.22852 -3.42773 C 9.69727 -3.42773 9.9707 -3.74023 9.9707 -4.25781 L 9.9707 -6.31836 L 12.1973 -6.31836 C 12.6953 -6.31836 13.0371 -6.57227 13.0371 -7.04102 C 13.0371 -7.51953 12.7148 -7.7832 12.1973 -7.7832 L 9.9707 -7.7832 L 9.9707 -10.0098 C 9.9707 -10.5273 9.69727 -10.8496 9.22852 -10.8496 C 8.75977 -10.8496 8.50586 -10.5078 8.50586 -10.0098 L 8.50586 -7.7832 L 6.29883 -7.7832 C 5.78125 -7.7832 5.44922 -7.51953 5.44922 -7.04102 C 5.44922 -6.57227 5.80078 -6.31836 6.29883 -6.31836 L 8.50586 -6.31836 L 8.50586 -4.25781 C 8.50586 -3.75977 8.75977 -3.42773 9.22852 -3.42773 Z"/>
  </g>
  <g id="" transform="matrix(1 0 0 1 281.506 1933)">
   <path d="M 11.709 2.91016 C 17.1582 2.91016 21.6699 -1.60156 21.6699 -7.05078 C 21.6699 -12.4902 17.1484 -17.0117 11.6992 -17.0117 C 6.25977 -17.0117 1.74805 -12.4902 1.74805 -7.05078 C 1.74805 -1.60156 6.26953 2.91016 11.709 2.91016 Z M 11.709 1.25 C 7.09961 1.25 3.41797 -2.44141 3.41797 -7.05078 C 3.41797 -11.6504 7.08984 -15.3516 11.6992 -15.3516 C 16.3086 -15.3516 20 -11.6504 20.0098 -7.05078 C 20.0195 -2.44141 16.3184 1.25 11.709 1.25 Z M 11.6895 -2.41211 C 12.207 -2.41211 12.5195 -2.77344 12.5195 -3.33984 L 12.5195 -6.23047 L 15.5762 -6.23047 C 16.123 -6.23047 16.5039 -6.51367 16.5039 -7.03125 C 16.5039 -7.55859 16.1426 -7.86133 15.5762 -7.86133 L 12.5195 -7.86133 L 12.5195 -10.9277 C 12.5195 -11.5039 12.207 -11.8555 11.6895 -11.8555 C 11.1719 -11.8555 10.8789 -11.4844 10.8789 -10.9277 L 10.8789 -7.86133 L 7.83203 -7.86133 C 7.26562 -7.86133 6.89453 -7.55859 6.89453 -7.03125 C 6.89453 -6.51367 7.28516 -6.23047 7.83203 -6.23047 L 10.8789 -6.23047 L 10.8789 -3.33984 C 10.8789 -2.79297 11.1719 -2.41211 11.6895 -2.41211 Z"/>
  </g>
  <g id="" transform="matrix(1 0 0 1 304.924 1933)">
   <path d="M 14.9707 5.67383 C 21.9336 5.67383 27.6953 -0.078125 27.6953 -7.04102 C 27.6953 -14.0039 21.9238 -19.7559 14.9609 -19.7559 C 8.00781 -19.7559 2.25586 -14.0039 2.25586 -7.04102 C 2.25586 -0.078125 8.01758 5.67383 14.9707 5.67383 Z M 14.9707 3.85742 C 8.93555 3.85742 4.08203 -1.00586 4.08203 -7.04102 C 4.08203 -13.0762 8.92578 -17.9395 14.9609 -17.9395 C 21.0059 -17.9395 25.8594 -13.0762 25.8691 -7.04102 C 25.8789 -1.00586 21.0156 3.85742 14.9707 3.85742 Z M 14.9512 -1.06445 C 15.5176 -1.06445 15.8691 -1.45508 15.8691 -2.06055 L 15.8691 -6.13281 L 20.1074 -6.13281 C 20.6934 -6.13281 21.1133 -6.46484 21.1133 -7.02148 C 21.1133 -7.59766 20.7227 -7.93945 20.1074 -7.93945 L 15.8691 -7.93945 L 15.8691 -12.1875 C 15.8691 -12.8027 15.5176 -13.1934 14.9512 -13.1934 C 14.3848 -13.1934 14.0625 -12.7832 14.0625 -12.1875 L 14.0625 -7.93945 L 9.83398 -7.93945 C 9.21875 -7.93945 8.80859 -7.59766 8.80859 -7.02148 C 8.80859 -6.46484 9.23828 -6.13281 9.83398 -6.13281 L 14.0625 -6.13281 L 14.0625 -2.06055 C 14.0625 -1.47461 14.3848 -1.06445 14.9512 -1.06445 Z"/>
  </g>
  <text style="stroke:none;fill:black;font-family:-apple-system,&quot;SF Pro Display&quot;,&quot;SF Pro Text&quot;,Helvetica,sans-serif;font-weight:bold;" transform="matrix(1 0 0 1 263 1953)">Design Variations</text>
  <text style="stroke:none;fill:black;font-family:-apple-system,&quot;SF Pro Display&quot;,&quot;SF Pro Text&quot;,Helvetica,sans-serif;" transform="matrix(1 0 0 1 263 1971)">Symbols are supported in up to nine weights and three scales.</text>
  <text style="stroke:none;fill:black;font-family:-apple-system,&quot;SF Pro Display&quot;,&quot;SF Pro Text&quot;,Helvetica,sans-serif;" transform="matrix(1 0 0 1 263 1989)">For optimal layout with text and other symbols, vertically align</text>
  <text style="stroke:none;fill:black;font-family:-apple-system,&quot;SF Pro Display&quot;,&quot;SF Pro Text&quot;,Helvetica,sans-serif;" transform="matrix(1 0 0 1 263 2007)">symbols with the adjacent text.</text>
  <rect height="14" id="" style="fill:#00AEEF;stroke:none;opacity:0.4;" width="3" x="776" y="1919"/>
  <g id="" transform="matrix(1 0 0 1 779 1933)">
   <path d="M 10.5273 0 L 12.373 0 L 7.17773 -14.0918 L 5.43945 -14.0918 L 0.244141 0 L 2.08984 0 L 3.50586 -4.0332 L 9.11133 -4.0332 Z M 6.2793 -11.9531 L 6.33789 -11.9531 L 8.59375 -5.52734 L 4.02344 -5.52734 Z"/>
  </g>
  <rect height="14" id="" style="fill:#00AEEF;stroke:none;opacity:0.4;" width="3" x="791.617" y="1919"/>
  <text style="stroke:none;fill:black;font-family:-apple-system,&quot;SF Pro Display&quot;,&quot;SF Pro Text&quot;,Helvetica,sans-serif;font-weight:bold;" transform="matrix(1 0 0 1 776 1953)">Margins</text>
  <text style="stroke:none;fill:black;font-family:-apple-system,&quot;SF Pro Display&quot;,&quot;SF Pro Text&quot;,Helvetica,sans-serif;" transform="matrix(1 0 0 1 776 1971)">Leading and trailing margins on the left and right side of each symbol</text>
  <text style="stroke:none;fill:black;font-family:-apple-system,&quot;SF Pro Display&quot;,&quot;SF Pro Text&quot;,Helvetica,sans-serif;" transform="matrix(1 0 0 1 776 1989)">can be adjusted by modifying the width of the blue rectangles.</text>
  <text style="stroke:none;fill:black;font-family:-apple-system,&quot;SF Pro Display&quot;,&quot;SF Pro Text&quot;,Helvetica,sans-serif;" transform="matrix(1 0 0 1 776 2007)">Modifications are automatically applied proportionally to all</text>
  <text style="stroke:none;fill:black;font-family:-apple-system,&quot;SF Pro Display&quot;,&quot;SF Pro Text&quot;,Helvetica,sans-serif;" transform="matrix(1 0 0 1 776 2025)">scales and weights.</text>
  <g id="" transform="matrix(1 0 0 1 1289 1933)">
   <path d="M 2.83203 3.11523 L 4.375 4.6582 C 5.22461 5.48828 6.19141 5.41992 7.06055 4.46289 L 17.2754 -6.66016 C 17.7051 -6.36719 18.0957 -6.37695 18.5645 -6.47461 L 19.6094 -6.68945 L 20.3027 -5.99609 L 20.2539 -5.47852 C 20.1855 -4.95117 20.3516 -4.53125 20.8496 -4.0332 L 21.6602 -3.22266 C 22.168 -2.71484 22.8223 -2.68555 23.3008 -3.16406 L 26.5527 -6.41602 C 27.0312 -6.89453 27.0117 -7.54883 26.5039 -8.05664 L 25.6836 -8.87695 C 25.1855 -9.375 24.7754 -9.55078 24.2383 -9.47266 L 23.7109 -9.41406 L 23.0566 -10.0781 L 23.3398 -11.2207 C 23.4863 -11.7871 23.3398 -12.2559 22.7148 -12.8613 L 20.3027 -15.2539 C 16.7578 -18.7793 12.2266 -18.6719 9.11133 -15.5371 C 8.69141 -15.1074 8.64258 -14.5215 8.91602 -14.0918 C 9.15039 -13.7207 9.62891 -13.4961 10.2734 -13.6621 C 11.7871 -14.043 13.3008 -13.9258 14.7852 -12.9199 L 14.1602 -11.3379 C 13.9258 -10.752 13.9453 -10.2734 14.1797 -9.83398 L 3.01758 0.439453 C 2.08008 1.30859 1.97266 2.25586 2.83203 3.11523 Z M 10.6738 -15.1465 C 13.3398 -17.1387 16.6504 -16.8262 19.0527 -14.4141 L 21.6797 -11.8066 C 21.9141 -11.5723 21.9434 -11.3867 21.8848 -11.0938 L 21.5039 -9.53125 L 23.0762 -7.95898 L 24.043 -8.04688 C 24.3262 -8.07617 24.4141 -8.05664 24.6387 -7.83203 L 25.2637 -7.20703 L 22.5098 -4.46289 L 21.8848 -5.07812 C 21.6602 -5.30273 21.6406 -5.40039 21.6699 -5.68359 L 21.7578 -6.64062 L 20.1953 -8.20312 L 18.5742 -7.89062 C 18.291 -7.83203 18.1445 -7.83203 17.9102 -8.07617 L 15.7324 -10.2539 C 15.5078 -10.4883 15.4785 -10.625 15.6055 -10.9473 L 16.5527 -13.2227 C 14.9512 -14.7559 12.8418 -15.6055 10.8008 -14.9512 C 10.7129 -14.9219 10.6445 -14.9414 10.6152 -14.9805 C 10.5859 -15.0293 10.5859 -15.0781 10.6738 -15.1465 Z M 4.10156 2.41211 C 3.61328 1.91406 3.78906 1.61133 4.12109 1.30859 L 15.0781 -8.80859 L 16.3086 -7.57812 L 6.15234 3.34961 C 5.84961 3.68164 5.46875 3.7793 5.06836 3.37891 Z"/>
  </g>
  <text style="stroke:none;fill:black;font-family:-apple-system,&quot;SF Pro Display&quot;,&quot;SF Pro Text&quot;,Helvetica,sans-serif;font-weight:bold;" transform="matrix(1 0 0 1 1289 1953)">Exporting</text>
  <text style="stroke:none;fill:black;font-family:-apple-system,&quot;SF Pro Display&quot;,&quot;SF Pro Text&quot;,Helvetica,sans-serif;" transform="matrix(1 0 0 1 1289 1971)">Symbols should be outlined when exporting to ensure the</text>
  <text style="stroke:none;fill:black;font-family:-apple-system,&quot;SF Pro Display&quot;,&quot;SF Pro Text&quot;,Helvetica,sans-serif;" transform="matrix(1 0 0 1 1289 1989)">design is preserved when submitting to Xcode.</text>
  <text id="template-version" style="stroke:none;fill:black;font-family:-apple-system,&quot;SF Pro Display&quot;,&quot;SF Pro Text&quot;,Helvetica,sans-serif;text-anchor:end;" transform="matrix(1 0 0 1 3036 1933)">Template v.1.0</text>
  <text style="stroke:none;fill:black;font-family:-apple-system,&quot;SF Pro Display&quot;,&quot;SF Pro Text&quot;,Helvetica,sans-serif;text-anchor:end;" transform="matrix(1 0 0 1 3036 1951)">Generated from arrow.up.arrow.down.circle.fill</text>
  <text style="stroke:none;fill:black;font-family:-apple-system,&quot;SF Pro Display&quot;,&quot;SF Pro Text&quot;,Helvetica,sans-serif;text-anchor:end;" transform="matrix(1 0 0 1 3036 1969)">Typeset at 100 points</text>
  <text style="stroke:none;fill:black;font-family:-apple-system,&quot;SF Pro Display&quot;,&quot;SF Pro Text&quot;,Helvetica,sans-serif;" transform="matrix(1 0 0 1 263 726)">Small</text>
  <text style="stroke:none;fill:black;font-family:-apple-system,&quot;SF Pro Display&quot;,&quot;SF Pro Text&quot;,Helvetica,sans-serif;" transform="matrix(1 0 0 1 263 1156)">Medium</text>
  <text style="stroke:none;fill:black;font-family:-apple-system,&quot;SF Pro Display&quot;,&quot;SF Pro Text&quot;,Helvetica,sans-serif;" transform="matrix(1 0 0 1 263 1586)">Large</text>
 </g>
 <g id="Guides">
  <g id="H-reference" style="fill:#27AAE1;stroke:none;" transform="matrix(1 0 0 1 339 696)">
   <path d="M 54.9316 0 L 57.666 0 L 30.5664 -70.459 L 28.0762 -70.459 L 0.976562 0 L 3.66211 0 L 12.9395 -24.4629 L 45.7031 -24.4629 Z M 29.1992 -67.0898 L 29.4434 -67.0898 L 44.8242 -26.709 L 13.8184 -26.709 Z"/>
  </g>
  <line id="Baseline-S" style="fill:none;stroke:#27AAE1;opacity:1;stroke-width:0.577;" x1="263" x2="3036" y1="696" y2="696"/>
  <line id="Capline-S" style="fill:none;stroke:#27AAE1;opacity:1;stroke-width:0.577;" x1="263" x2="3036" y1="625.541" y2="625.541"/>
  <g id="H-reference" style="fill:#27AAE1;stroke:none;" transform="matrix(1 0 0 1 339 1126)">
   <path d="M 54.9316 0 L 57.666 0 L 30.5664 -70.459 L 28.0762 -70.459 L 0.976562 0 L 3.66211 0 L 12.9395 -24.4629 L 45.7031 -24.4629 Z M 29.1992 -67.0898 L 29.4434 -67.0898 L 44.8242 -26.709 L 13.8184 -26.709 Z"/>
  </g>
  <line id="Baseline-M" style="fill:none;stroke:#27AAE1;opacity:1;stroke-width:0.577;" x1="263" x2="3036" y1="1126" y2="1126"/>
  <line id="Capline-M" style="fill:none;stroke:#27AAE1;opacity:1;stroke-width:0.577;" x1="263" x2="3036" y1="1055.54" y2="1055.54"/>
  <g id="H-reference" style="fill:#27AAE1;stroke:none;" transform="matrix(1 0 0 1 339 1556)">
   <path d="M 54.9316 0 L 57.666 0 L 30.5664 -70.459 L 28.0762 -70.459 L 0.976562 0 L 3.66211 0 L 12.9395 -24.4629 L 45.7031 -24.4629 Z M 29.1992 -67.0898 L 29.4434 -67.0898 L 44.8242 -26.709 L 13.8184 -26.709 Z"/>
  </g>
  <line id="Baseline-L" style="fill:none;stroke:#27AAE1;opacity:1;stroke-width:0.577;" x1="263" x2="3036" y1="1556" y2="1556"/>
  <line id="Capline-L" style="fill:none;stroke:#27AAE1;opacity:1;stroke-width:0.577;" x1="263" x2="3036" y1="1485.54" y2="1485.54"/>
  <rect height="119.336" id="left-margin" style="fill:#00AEEF;stroke:none;opacity:0.4;" width="8.74023" x="1391.3" y="1030.79"/>
  <rect height="119.336" id="right-margin" style="fill:#00AEEF;stroke:none;opacity:0.4;" width="8.74023" x="1499.65" y="1030.79"/>
 </g>
 <g id="Symbols">
  <g id="Black-L" transform="matrix(1 0 0 1 2854.05 1556)">
   <path d="M 79.3457 32.8613 C 116.748 32.8613 147.412 2.19727 147.412 -35.2051 C 147.412 -72.6074 116.748 -103.271 79.2969 -103.271 C 41.8945 -103.271 11.2793 -72.6074 11.2793 -35.2051 C 11.2793 2.19727 41.9434 32.8613 79.3457 32.8613 Z M 57.4707 -4.29688 C 53.3203 -4.29688 50.1953 -7.08008 50.1953 -11.2305 L 50.1953 -38.916 L 51.4648 -47.7051 L 47.7539 -41.8457 L 45.5078 -38.9648 C 44.4336 -37.5488 42.627 -36.9629 40.7715 -36.9629 C 37.207 -36.9629 34.8145 -39.5508 34.8145 -43.2129 C 34.8145 -44.9707 35.5469 -46.5332 36.7188 -47.8027 L 51.8066 -64.2578 C 53.3203 -65.9668 55.2246 -66.6504 57.4707 -66.6504 C 59.7168 -66.6504 61.6699 -65.918 63.1836 -64.2578 L 78.2227 -47.8027 C 79.4434 -46.5332 80.1758 -44.9707 80.1758 -43.2129 C 80.1758 -39.5508 77.7832 -36.9629 74.1699 -36.9629 C 72.2656 -36.9629 70.5078 -37.5488 69.4336 -38.9648 L 67.1875 -41.8457 L 63.4766 -47.7051 L 64.7949 -38.916 L 64.7949 -11.2305 C 64.7949 -7.08008 61.6699 -4.29688 57.4707 -4.29688 Z M 101.27 -4.29688 C 98.9746 -4.29688 97.1191 -5.0293 95.5566 -6.68945 L 80.4688 -23.1445 C 79.248 -24.4629 78.5645 -25.9766 78.5645 -27.7344 C 78.5645 -31.4453 80.9082 -34.0332 84.5703 -34.0332 C 86.4746 -34.0332 88.1836 -33.4473 89.3066 -31.9824 L 91.5527 -29.1504 L 95.2148 -23.291 L 93.8965 -32.0312 L 93.8965 -59.7168 C 93.8965 -63.9648 97.0215 -66.6504 101.27 -66.6504 C 105.371 -66.6504 108.545 -63.9648 108.545 -59.7168 L 108.545 -32.0312 L 107.227 -23.2422 L 110.986 -29.1504 L 113.184 -31.9824 C 114.258 -33.4473 116.064 -34.0332 117.92 -34.0332 C 121.484 -34.0332 123.877 -31.4453 123.877 -27.7344 C 123.877 -25.9766 123.193 -24.4629 121.973 -23.1445 L 106.934 -6.68945 C 105.469 -4.98047 103.516 -4.29688 101.27 -4.29688 Z"/>
  </g>
  <g id="Heavy-L" transform="matrix(1 0 0 1 2558.39 1556)">
   <path d="M 78.2715 31.7871 C 115.088 31.7871 145.312 1.61133 145.312 -35.2051 C 145.312 -72.0215 115.039 -102.197 78.2715 -102.197 C 41.4551 -102.197 11.2793 -72.0215 11.2793 -35.2051 C 11.2793 1.61133 41.5039 31.7871 78.2715 31.7871 Z M 56.543 -4.05273 C 52.832 -4.05273 50.0488 -6.54297 50.0488 -10.3027 L 50.0488 -40.6738 L 51.123 -49.8047 L 46.6797 -43.457 L 43.4082 -39.5996 C 42.3828 -38.2812 40.7715 -37.7441 39.1113 -37.7441 C 35.8398 -37.7441 33.5938 -40.1367 33.5938 -43.5059 C 33.5938 -45.1172 34.2285 -46.4844 35.3516 -47.6562 L 51.4648 -64.9902 C 52.832 -66.5527 54.5898 -67.1875 56.543 -67.1875 C 58.5938 -67.1875 60.3516 -66.5039 61.7676 -64.9902 L 77.832 -47.6562 C 78.9551 -46.4844 79.5898 -45.1172 79.5898 -43.5059 C 79.5898 -40.1367 77.3926 -37.7441 74.0723 -37.7441 C 72.3145 -37.7441 70.752 -38.2812 69.7754 -39.5996 L 66.5527 -43.457 L 62.0605 -49.8535 L 63.1348 -40.6738 L 63.1348 -10.3027 C 63.1348 -6.54297 60.3516 -4.05273 56.543 -4.05273 Z M 100 -4.05273 C 97.998 -4.05273 96.2891 -4.6875 94.873 -6.20117 L 78.7109 -23.584 C 77.5879 -24.7559 77.002 -26.123 77.002 -27.7344 C 77.002 -31.1035 79.1992 -33.4961 82.5195 -33.4961 C 84.2285 -33.4961 85.791 -32.9102 86.8164 -31.6406 L 90.0879 -27.7832 L 94.5312 -21.4355 L 93.4082 -30.5664 L 93.4082 -60.9375 C 93.4082 -64.7461 96.1914 -67.1875 100 -67.1875 C 103.711 -67.1875 106.494 -64.7461 106.494 -60.9375 L 106.494 -30.5664 L 105.42 -21.3867 L 109.961 -27.7832 L 113.184 -31.6406 C 114.16 -32.9102 115.771 -33.4961 117.48 -33.4961 C 120.752 -33.4961 122.949 -31.1035 122.949 -27.7344 C 122.949 -26.123 122.314 -24.7559 121.24 -23.584 L 105.176 -6.20117 C 103.809 -4.6875 102.002 -4.05273 100 -4.05273 Z"/>
  </g>
  <g id="Bold-L" transform="matrix(1 0 0 1 2262.88 1556)">
   <path d="M 77.0996 30.6152 C 113.232 30.6152 142.92 0.878906 142.92 -35.2051 C 142.92 -71.3379 113.184 -101.025 77.0508 -101.025 C 40.9668 -101.025 11.2793 -71.3379 11.2793 -35.2051 C 11.2793 0.878906 41.0156 30.6152 77.0996 30.6152 Z M 55.5664 -3.71094 C 52.2949 -3.71094 49.9023 -5.95703 49.9023 -9.22852 L 49.9023 -42.627 L 50.7324 -52.1484 L 45.4102 -45.2637 L 41.0156 -40.2832 C 40.0879 -39.1602 38.7207 -38.623 37.207 -38.623 C 34.2773 -38.623 32.2266 -40.8203 32.2266 -43.75 C 32.2266 -45.2148 32.7637 -46.4355 33.7402 -47.4609 L 51.0742 -65.8203 C 52.3438 -67.2363 53.8574 -67.7734 55.5664 -67.7734 C 57.3242 -67.7734 58.8867 -67.1875 60.1562 -65.8203 L 77.3926 -47.4609 C 78.418 -46.4355 78.9551 -45.2148 78.9551 -43.75 C 78.9551 -40.8203 76.9043 -38.623 73.9258 -38.623 C 72.4121 -38.623 70.9961 -39.1602 70.166 -40.2832 L 65.8203 -45.2637 L 60.4492 -52.1973 L 61.2793 -42.627 L 61.2793 -9.22852 C 61.2793 -5.95703 58.8867 -3.71094 55.5664 -3.71094 Z M 98.584 -3.71094 C 96.875 -3.71094 95.3613 -4.29688 94.043 -5.71289 L 76.7578 -24.0234 C 75.7812 -25.0488 75.293 -26.3184 75.293 -27.7344 C 75.293 -30.7129 77.2949 -32.8613 80.2246 -32.8613 C 81.7383 -32.8613 83.0566 -32.373 83.9844 -31.25 L 88.4277 -26.2207 L 93.75 -19.3848 L 92.8711 -28.8574 L 92.8711 -62.2559 C 92.8711 -65.625 95.3125 -67.7734 98.584 -67.7734 C 101.855 -67.7734 104.248 -65.625 104.248 -62.2559 L 104.248 -28.8574 L 103.418 -19.2871 L 108.789 -26.2207 L 113.135 -31.25 C 114.014 -32.373 115.43 -32.8613 116.943 -32.8613 C 119.873 -32.8613 121.924 -30.7129 121.924 -27.7344 C 121.924 -26.3184 121.387 -25.0977 120.41 -24.0234 L 103.174 -5.71289 C 101.953 -4.29688 100.342 -3.71094 98.584 -3.71094 Z"/>
  </g>
  <g id="Semibold-L" transform="matrix(1 0 0 1 1966.97 1556)">
   <path d="M 76.2695 29.7852 C 111.914 29.7852 141.309 0.439453 141.309 -35.2051 C 141.309 -70.8496 111.865 -100.244 76.2695 -100.244 C 40.625 -100.244 11.2793 -70.8496 11.2793 -35.2051 C 11.2793 0.439453 40.6738 29.7852 76.2695 29.7852 Z M 54.834 -3.51562 C 51.9043 -3.51562 49.8047 -5.51758 49.8047 -8.49609 L 49.8047 -43.9941 L 50.4395 -53.7598 L 44.5801 -46.5332 L 39.3555 -40.7227 C 38.5254 -39.7461 37.3047 -39.2578 35.9375 -39.2578 C 33.252 -39.2578 31.2988 -41.2598 31.2988 -43.9453 C 31.2988 -45.3125 31.7871 -46.3867 32.666 -47.3633 L 50.8301 -66.4062 C 52.002 -67.6758 53.3691 -68.1641 54.834 -68.1641 C 56.3965 -68.1641 57.8613 -67.6758 59.082 -66.4062 L 77.0996 -47.3633 C 78.0273 -46.4355 78.4668 -45.3125 78.4668 -43.9453 C 78.4668 -41.2598 76.5625 -39.2578 73.877 -39.2578 C 72.4609 -39.2578 71.1914 -39.7461 70.459 -40.7227 L 65.332 -46.5332 L 59.3262 -53.8574 L 60.0098 -43.9941 L 60.0098 -8.49609 C 60.0098 -5.51758 57.8613 -3.51562 54.834 -3.51562 Z M 97.6562 -3.51562 C 96.1426 -3.51562 94.7266 -4.05273 93.5059 -5.32227 L 75.4395 -24.3652 C 74.5117 -25.293 74.0723 -26.416 74.0723 -27.7344 C 74.0723 -30.4199 75.9277 -32.4707 78.6621 -32.4707 C 80.0293 -32.4707 81.2012 -31.9824 82.0801 -30.957 L 87.3047 -25.1953 L 93.1641 -17.9199 L 92.4805 -27.6855 L 92.4805 -63.1836 C 92.4805 -66.2109 94.6777 -68.1641 97.6562 -68.1641 C 100.586 -68.1641 102.734 -66.2109 102.734 -63.1836 L 102.734 -27.6855 L 102.051 -17.8711 L 108.008 -25.1953 L 113.135 -30.957 C 113.916 -31.9824 115.186 -32.4707 116.602 -32.4707 C 119.287 -32.4707 121.191 -30.4199 121.191 -27.7344 C 121.191 -26.416 120.752 -25.293 119.824 -24.3652 L 101.807 -5.32227 C 100.635 -4.05273 99.1699 -3.51562 97.6562 -3.51562 Z"/>
  </g>
  <g id="Medium-L" transform="matrix(1 0 0 1 1670.87 1556)">
   <path d="M 75.6836 29.1992 C 110.938 29.1992 140.088 0.0488281 140.088 -35.2051 C 140.088 -70.459 110.889 -99.6094 75.6348 -99.6094 C 40.3809 -99.6094 11.2793 -70.459 11.2793 -35.2051 C 11.2793 0.0488281 40.3809 29.1992 75.6836 29.1992 Z M 54.3457 -3.36914 C 51.6113 -3.36914 49.707 -5.22461 49.707 -7.95898 L 49.707 -45.0195 L 50.2441 -55.0293 L 43.9453 -47.4609 L 38.1348 -41.1133 C 37.3047 -40.1855 36.2305 -39.6973 34.9121 -39.6973 C 32.4219 -39.6973 30.6152 -41.6504 30.6152 -44.0918 C 30.6152 -45.3613 31.0547 -46.3867 31.8359 -47.2656 L 50.5859 -66.7969 C 51.709 -68.0176 52.9785 -68.5059 54.3457 -68.5059 C 55.7617 -68.5059 57.1289 -68.0176 58.252 -66.7969 L 76.8555 -47.2656 C 77.7344 -46.3867 78.125 -45.3613 78.125 -44.0918 C 78.125 -41.6504 76.3184 -39.6973 73.7793 -39.6973 C 72.5098 -39.6973 71.3379 -40.1855 70.6543 -41.1133 L 64.9414 -47.4609 L 58.4473 -55.0781 L 59.0332 -45.0195 L 59.0332 -7.95898 C 59.0332 -5.22461 57.0801 -3.36914 54.3457 -3.36914 Z M 96.9238 -3.36914 C 95.5566 -3.36914 94.2383 -3.85742 93.0664 -5.07812 L 74.4141 -24.6094 C 73.5352 -25.4883 73.1934 -26.5137 73.1934 -27.7344 C 73.1934 -30.2246 74.9512 -32.1289 77.4414 -32.1289 C 78.7598 -32.1289 79.834 -31.6895 80.6152 -30.7617 L 86.4258 -24.4141 L 92.7734 -16.8457 L 92.1875 -26.8066 L 92.1875 -63.916 C 92.1875 -66.6504 94.1895 -68.5059 96.9238 -68.5059 C 99.6094 -68.5059 101.514 -66.6504 101.514 -63.916 L 101.514 -26.8066 L 101.025 -16.7969 L 107.422 -24.4141 L 113.135 -30.7617 C 113.818 -31.6895 115.039 -32.1289 116.357 -32.1289 C 118.848 -32.1289 120.654 -30.2246 120.654 -27.7344 C 120.654 -26.5137 120.215 -25.4883 119.385 -24.6094 L 100.732 -5.07812 C 99.6582 -3.85742 98.291 -3.36914 96.9238 -3.36914 Z"/>
  </g>
  <g id="Regular-L" transform="matrix(1 0 0 1 1374.97 1556)">
   <path d="M 74.8535 28.3691 C 109.668 28.3691 138.477 -0.390625 138.477 -35.2051 C 138.477 -70.0195 109.619 -98.7793 74.8047 -98.7793 C 40.0391 -98.7793 11.2793 -70.0195 11.2793 -35.2051 C 11.2793 -0.390625 40.0879 28.3691 74.8535 28.3691 Z M 53.6621 -3.17383 C 51.2695 -3.17383 49.6094 -4.78516 49.6094 -7.22656 L 49.6094 -46.3867 L 49.9512 -56.5918 L 43.1152 -48.6816 L 36.5234 -41.5527 C 35.7422 -40.7715 34.8633 -40.332 33.6426 -40.332 C 31.3965 -40.332 29.6875 -42.0898 29.6875 -44.2871 C 29.6875 -45.4102 30.0293 -46.3379 30.8105 -47.168 L 50.3418 -67.3828 C 51.3672 -68.5059 52.4902 -68.8965 53.6621 -68.8965 C 54.8828 -68.8965 56.1035 -68.457 57.1777 -67.3828 L 76.5625 -47.168 C 77.3438 -46.3867 77.6855 -45.4102 77.6855 -44.2871 C 77.6855 -42.0898 76.0254 -40.332 73.7305 -40.332 C 72.5586 -40.332 71.5332 -40.7715 70.8984 -41.5527 L 64.4531 -48.6816 L 57.373 -56.6895 L 57.7637 -46.3867 L 57.7637 -7.22656 C 57.7637 -4.78516 56.1035 -3.17383 53.6621 -3.17383 Z M 95.9473 -3.17383 C 94.7754 -3.17383 93.6035 -3.56445 92.5293 -4.6875 L 73.0957 -24.9023 C 72.3145 -25.6836 71.9727 -26.6113 71.9727 -27.7344 C 71.9727 -29.9805 73.6328 -31.7383 75.9277 -31.7383 C 77.0508 -31.7383 77.9785 -31.2988 78.7109 -30.5176 L 85.3027 -23.3398 L 92.2363 -15.4785 L 91.7969 -25.6836 L 91.7969 -64.8438 C 91.7969 -67.2852 93.5547 -68.8965 95.9473 -68.8965 C 98.3398 -68.8965 100 -67.2852 100 -64.8438 L 100 -25.6836 L 99.6582 -15.3809 L 106.641 -23.3398 L 113.135 -30.5176 C 113.77 -31.2988 114.795 -31.7383 115.967 -31.7383 C 118.213 -31.7383 119.971 -29.9805 119.971 -27.7344 C 119.971 -26.6113 119.58 -25.7324 118.848 -24.9023 L 99.3652 -4.6875 C 98.3887 -3.61328 97.168 -3.17383 95.9473 -3.17383 Z"/>
  </g>
  <g id="Light-L" transform="matrix(1 0 0 1 1079.18 1556)">
   <path d="M 73.9258 27.4902 C 108.301 27.4902 136.621 -0.830078 136.621 -35.1562 C 136.621 -69.5312 108.252 -97.8516 73.9258 -97.8516 C 39.5508 -97.8516 11.2793 -69.5312 11.2793 -35.1562 C 11.2793 -0.830078 39.5996 27.4902 73.9258 27.4902 Z M 52.8809 -2.7832 C 50.9766 -2.7832 49.6582 -4.05273 49.6582 -6.00586 L 49.6582 -49.6582 L 49.9512 -59.4727 L 42.334 -51.2207 L 33.9844 -42.4805 C 33.3008 -41.8457 32.666 -41.4551 31.6895 -41.4551 C 29.9316 -41.4551 28.5645 -42.8711 28.5645 -44.5801 C 28.5645 -45.459 28.8574 -46.1426 29.4922 -46.7773 L 50.3906 -68.1641 C 51.123 -68.9453 52.002 -69.2871 52.8809 -69.2871 C 53.8086 -69.2871 54.7363 -68.9941 55.5664 -68.1641 L 76.3672 -46.7773 C 76.9531 -46.1914 77.2461 -45.459 77.2461 -44.5801 C 77.2461 -42.8711 75.9277 -41.4551 74.1211 -41.4551 C 73.2422 -41.4551 72.5098 -41.8457 71.9727 -42.4805 L 63.623 -51.2207 L 55.8105 -59.5215 L 56.1523 -49.6582 L 56.1523 -6.00586 C 56.1523 -4.05273 54.834 -2.7832 52.8809 -2.7832 Z M 95.0195 -2.7832 C 94.0918 -2.7832 93.1641 -3.125 92.3828 -3.90625 L 71.5332 -25.293 C 70.9473 -25.8789 70.7031 -26.6113 70.7031 -27.4902 C 70.7031 -29.1992 71.9727 -30.6152 73.7793 -30.6152 C 74.6582 -30.6152 75.3418 -30.2246 75.9766 -29.5898 L 84.3262 -20.8496 L 92.041 -12.5977 L 91.6504 -22.4121 L 91.6504 -66.0645 C 91.6504 -68.0176 93.0664 -69.2871 95.0195 -69.2871 C 96.875 -69.2871 98.1934 -68.0176 98.1934 -66.0645 L 98.1934 -22.4121 L 97.9004 -12.5488 L 105.615 -20.8496 L 113.965 -29.5898 C 114.551 -30.2246 115.283 -30.6152 116.211 -30.6152 C 118.018 -30.6152 119.336 -29.1992 119.336 -27.4902 C 119.336 -26.6113 119.043 -25.9277 118.457 -25.293 L 97.6074 -3.90625 C 96.8262 -3.07617 95.8984 -2.7832 95.0195 -2.7832 Z"/>
  </g>
  <g id="Thin-L" transform="matrix(1 0 0 1 783.693 1556)">
   <path d="M 72.7051 26.3184 C 106.494 26.3184 134.18 -1.36719 134.18 -35.1074 C 134.18 -68.8965 106.494 -96.582 72.7051 -96.582 C 38.9648 -96.582 11.2793 -68.8965 11.2793 -35.1074 C 11.2793 -1.36719 38.9648 26.3184 72.7051 26.3184 Z M 51.8555 -2.29492 C 50.6348 -2.29492 49.7559 -3.02734 49.7559 -4.39453 L 49.7559 -54.0039 L 49.9512 -63.2324 L 41.3574 -54.4922 L 30.5664 -43.7012 C 30.0781 -43.2129 29.7363 -42.9688 29.1016 -42.9688 C 27.9785 -42.9688 27.0996 -43.8477 27.0996 -44.9219 C 27.0996 -45.459 27.2949 -45.8984 27.7344 -46.3379 L 50.4395 -69.1895 C 50.8301 -69.5801 51.3184 -69.7754 51.8555 -69.7754 C 52.4414 -69.7754 52.9297 -69.6777 53.418 -69.1895 L 76.0742 -46.3379 C 76.4648 -45.9473 76.6602 -45.459 76.6602 -44.9219 C 76.6602 -43.8477 75.8789 -42.9688 74.6582 -42.9688 C 74.1699 -42.9688 73.8281 -43.2129 73.3398 -43.7012 L 62.5488 -54.4922 L 53.8086 -63.2812 L 54.0039 -54.0039 L 54.0039 -4.39453 C 54.0039 -3.02734 53.2227 -2.29492 51.8555 -2.29492 Z M 93.7012 -2.29492 C 93.1641 -2.29492 92.5781 -2.49023 92.1387 -2.88086 L 69.5312 -25.7324 C 69.1895 -26.123 68.9941 -26.6113 68.9941 -27.1484 C 68.9941 -28.2227 69.7754 -29.0527 70.9961 -29.0527 C 71.4844 -29.0527 71.8262 -28.8574 72.3145 -28.3691 L 83.1055 -17.5781 L 91.748 -8.83789 L 91.5039 -18.0664 L 91.5039 -67.6758 C 91.5039 -69.043 92.4316 -69.7754 93.7012 -69.7754 C 95.0195 -69.7754 95.8008 -69.043 95.8008 -67.6758 L 95.8008 -18.0664 L 95.6055 -8.74023 L 104.297 -17.5781 L 115.039 -28.3691 C 115.576 -28.8574 115.918 -29.0527 116.553 -29.0527 C 117.676 -29.0527 118.555 -28.2227 118.555 -27.1484 C 118.555 -26.6113 118.359 -26.1719 117.92 -25.7324 L 95.2148 -2.88086 C 94.7266 -2.39258 94.2383 -2.29492 93.7012 -2.29492 Z"/>
  </g>
  <g id="Ultralight-L" transform="matrix(1 0 0 1 487.616 1556)">
   <path d="M 72.1191 25.7324 C 105.566 25.7324 132.91 -1.61133 132.91 -35.1074 C 132.91 -68.5547 105.566 -95.8984 72.1191 -95.8984 C 38.623 -95.8984 11.2793 -68.5547 11.2793 -35.1074 C 11.2793 -1.61133 38.623 25.7324 72.1191 25.7324 Z M 51.3184 -2.00195 C 50.4395 -2.00195 49.8047 -2.53906 49.8047 -3.56445 L 49.8047 -56.2012 L 49.9512 -65.1367 L 40.8691 -56.2012 L 28.8574 -44.3359 C 28.418 -43.8965 28.2715 -43.75 27.7832 -43.75 C 26.9531 -43.75 26.3672 -44.3848 26.3672 -45.0684 C 26.3672 -45.5078 26.5137 -45.752 26.8555 -46.0938 L 50.4395 -69.6777 C 50.6836 -69.9219 51.0254 -70.0684 51.3184 -70.0684 C 51.709 -70.0684 52.002 -70.0195 52.3438 -69.6777 L 75.9277 -46.0938 C 76.2207 -45.8008 76.3672 -45.5078 76.3672 -45.0684 C 76.3672 -44.3848 75.8301 -43.75 74.9512 -43.75 C 74.6094 -43.75 74.5117 -43.8965 74.0234 -44.3359 L 62.0117 -56.2012 L 52.7344 -65.2344 L 52.8809 -56.2012 L 52.8809 -3.56445 C 52.8809 -2.53906 52.3926 -2.00195 51.3184 -2.00195 Z M 93.0664 -2.00195 C 92.6758 -2.00195 92.2852 -2.14844 92.041 -2.34375 L 68.5059 -25.9766 C 68.2617 -26.2207 68.1152 -26.5625 68.1152 -27.002 C 68.1152 -27.6855 68.6523 -28.3203 69.5312 -28.3203 C 69.8242 -28.3203 70.0195 -28.1738 70.459 -27.7344 L 82.4707 -15.8691 L 91.6504 -6.93359 L 91.4062 -15.8691 L 91.4062 -68.457 C 91.4062 -69.5312 92.0898 -70.0684 93.0664 -70.0684 C 94.043 -70.0684 94.5801 -69.5312 94.5801 -68.457 L 94.5801 -15.8691 L 94.4336 -6.83594 L 103.613 -15.8691 L 115.625 -27.7344 C 116.064 -28.1738 116.211 -28.3203 116.699 -28.3203 C 117.529 -28.3203 118.115 -27.6855 118.115 -27.002 C 118.115 -26.5625 117.969 -26.3184 117.627 -25.9766 L 93.9941 -2.34375 C 93.7012 -2.05078 93.3594 -2.00195 93.0664 -2.00195 Z"/>
  </g>
  <g id="Black-M" transform="matrix(1 0 0 1 2870.97 1126)">
   <path d="M 62.4023 18.457 C 91.9922 18.457 116.113 -5.61523 116.113 -35.2051 C 116.113 -64.7949 91.9922 -88.8672 62.4023 -88.8672 C 32.8125 -88.8672 8.74023 -64.7949 8.74023 -35.2051 C 8.74023 -5.61523 32.8125 18.457 62.4023 18.457 Z M 45.3125 -11.4258 C 41.7969 -11.4258 39.1113 -13.7207 39.1113 -17.2363 L 39.1113 -37.4512 L 40.3809 -43.5547 L 38.1348 -39.502 L 36.7676 -37.793 C 35.8887 -36.5234 34.3262 -36.084 32.8125 -36.084 C 29.8828 -36.084 28.0273 -38.1348 28.0273 -41.2109 C 28.0273 -42.6758 28.6621 -43.8965 29.6387 -44.9707 L 40.625 -57.1289 C 41.7969 -58.5449 43.3594 -59.082 45.3125 -59.082 C 47.2656 -59.082 48.8281 -58.4473 50 -57.1289 L 61.084 -44.9707 C 62.0605 -43.8965 62.6953 -42.6758 62.6953 -41.2109 C 62.6953 -38.1348 60.8398 -36.084 57.8125 -36.084 C 56.25 -36.084 54.834 -36.5234 53.8574 -37.793 L 52.5391 -39.502 L 50.3418 -43.5547 L 51.6113 -37.4512 L 51.6113 -17.2363 C 51.6113 -13.7207 48.9258 -11.4258 45.3125 -11.4258 Z M 79.6387 -11.4258 C 77.6855 -11.4258 76.123 -12.0117 74.9512 -13.3301 L 63.916 -25.4883 C 62.8906 -26.5625 62.2559 -27.832 62.2559 -29.248 C 62.2559 -32.3242 64.1602 -34.375 67.1387 -34.375 C 68.7012 -34.375 70.166 -33.9844 71.0938 -32.7148 L 72.4121 -31.0059 L 74.6094 -26.9043 L 73.3398 -33.0566 L 73.3398 -53.2715 C 73.3398 -56.8359 76.0742 -59.082 79.6387 -59.082 C 83.1543 -59.082 85.8398 -56.8359 85.8398 -53.2715 L 85.8398 -33.0566 L 84.5703 -26.9043 L 86.8164 -31.0059 L 88.1836 -32.7148 C 89.1113 -33.9844 90.625 -34.375 92.1387 -34.375 C 95.0684 -34.375 96.9238 -32.3242 96.9238 -29.248 C 96.9238 -27.832 96.3379 -26.5625 95.3125 -25.4883 L 84.3262 -13.3301 C 83.1543 -11.9629 81.5918 -11.4258 79.6387 -11.4258 Z"/>
  </g>
  <g id="Heavy-M" transform="matrix(1 0 0 1 2575.19 1126)">
   <path d="M 61.5234 17.5781 C 90.5273 17.5781 114.258 -6.15234 114.258 -35.2051 C 114.258 -64.2578 90.5273 -87.9883 61.4746 -87.9883 C 32.4707 -87.9883 8.74023 -64.2578 8.74023 -35.2051 C 8.74023 -6.15234 32.4707 17.5781 61.5234 17.5781 Z M 44.5312 -11.2305 C 41.3574 -11.2305 38.9648 -13.3301 38.9648 -16.5527 L 38.9648 -38.5254 L 39.9902 -45.1172 L 37.1094 -40.625 L 35.1074 -38.2324 C 34.2773 -37.1094 32.9102 -36.6699 31.4941 -36.6699 C 28.7598 -36.6699 27.002 -38.623 27.002 -41.4551 C 27.002 -42.7734 27.5391 -43.9453 28.4668 -44.9219 L 40.2344 -57.7637 C 41.3574 -59.0332 42.8223 -59.5703 44.5312 -59.5703 C 46.2891 -59.5703 47.7539 -58.9844 48.877 -57.7637 L 60.6934 -44.9219 C 61.6211 -43.9453 62.1582 -42.7734 62.1582 -41.4551 C 62.1582 -38.623 60.4004 -36.6699 57.6172 -36.6699 C 56.1523 -36.6699 54.834 -37.1094 54.0039 -38.2324 L 52.002 -40.625 L 49.1699 -45.1172 L 50.1953 -38.5254 L 50.1953 -16.5527 C 50.1953 -13.3301 47.8027 -11.2305 44.5312 -11.2305 Z M 78.5156 -11.2305 C 76.8066 -11.2305 75.3418 -11.7676 74.2188 -13.0371 L 62.4023 -25.8789 C 61.4746 -26.8555 60.8887 -28.0273 60.8887 -29.3457 C 60.8887 -32.1777 62.6953 -34.1309 65.4785 -34.1309 C 66.8945 -34.1309 68.2129 -33.6914 69.0918 -32.5684 L 71.0449 -30.1758 L 73.9258 -25.6348 L 72.8516 -32.2266 L 72.8516 -54.248 C 72.8516 -57.4707 75.293 -59.5703 78.5156 -59.5703 C 81.6895 -59.5703 84.1309 -57.4707 84.1309 -54.248 L 84.1309 -32.2266 L 83.0566 -25.6348 L 85.9863 -30.1758 L 87.9395 -32.5684 C 88.7695 -33.6914 90.1855 -34.1309 91.5527 -34.1309 C 94.2871 -34.1309 96.0938 -32.1777 96.0938 -29.3457 C 96.0938 -28.0273 95.5078 -26.8555 94.6289 -25.8789 L 82.8613 -13.0371 C 81.7383 -11.7188 80.2734 -11.2305 78.5156 -11.2305 Z"/>
  </g>
  <g id="Bold-M" transform="matrix(1 0 0 1 2279.5 1126)">
   <path d="M 60.498 16.5039 C 88.8672 16.5039 112.207 -6.78711 112.207 -35.2051 C 112.207 -63.623 88.8672 -86.9629 60.4492 -86.9629 C 32.0312 -86.9629 8.74023 -63.623 8.74023 -35.2051 C 8.74023 -6.78711 32.0801 16.5039 60.498 16.5039 Z M 43.6523 -10.9863 C 40.8691 -10.9863 38.7695 -12.8906 38.7695 -15.7227 L 38.7695 -39.7461 L 39.5508 -46.875 L 35.9863 -41.8945 L 33.252 -38.7207 C 32.4707 -37.7441 31.2988 -37.3047 30.0293 -37.3047 C 27.5391 -37.3047 25.8301 -39.1602 25.8301 -41.6504 C 25.8301 -42.9199 26.3184 -43.9453 27.1484 -44.8242 L 39.7949 -58.4473 C 40.8691 -59.6191 42.1875 -60.1074 43.6523 -60.1074 C 45.2148 -60.1074 46.5332 -59.5703 47.6074 -58.4473 L 60.2539 -44.8242 C 61.084 -43.9453 61.5723 -42.9199 61.5723 -41.6504 C 61.5723 -39.1602 59.8633 -37.3047 57.373 -37.3047 C 56.0547 -37.3047 54.834 -37.7441 54.1016 -38.7207 L 51.4648 -41.8945 L 47.8516 -46.9238 L 48.6328 -39.7461 L 48.6328 -15.7227 C 48.6328 -12.8906 46.5332 -10.9863 43.6523 -10.9863 Z M 77.2949 -10.9863 C 75.7812 -10.9863 74.4629 -11.5234 73.3887 -12.6953 L 60.6934 -26.2695 C 59.8633 -27.1484 59.375 -28.2227 59.375 -29.4434 C 59.375 -31.9824 61.084 -33.7891 63.5742 -33.7891 C 64.8926 -33.7891 66.0645 -33.3496 66.8457 -32.4219 L 69.5312 -29.248 L 73.0957 -24.2188 L 72.2656 -31.3477 L 72.2656 -55.3711 C 72.2656 -58.252 74.4141 -60.1074 77.2949 -60.1074 C 80.0781 -60.1074 82.1777 -58.252 82.1777 -55.3711 L 82.1777 -31.3477 L 81.3965 -24.1699 L 85.0098 -29.248 L 87.6953 -32.4219 C 88.4277 -33.3496 89.6484 -33.7891 90.918 -33.7891 C 93.4082 -33.7891 95.1172 -31.9824 95.1172 -29.4434 C 95.1172 -28.2227 94.6289 -27.1484 93.7988 -26.2695 L 81.2012 -12.6953 C 80.127 -11.4746 78.8086 -10.9863 77.2949 -10.9863 Z"/>
  </g>
  <g id="Semibold-M" transform="matrix(1 0 0 1 1983.5 1126)">
   <path d="M 59.7656 15.8203 C 87.7441 15.8203 110.791 -7.22656 110.791 -35.2051 C 110.791 -63.1836 87.6953 -86.2793 59.7656 -86.2793 C 31.7871 -86.2793 8.74023 -63.1836 8.74023 -35.2051 C 8.74023 -7.22656 31.7871 15.8203 59.7656 15.8203 Z M 43.0664 -10.8398 C 40.4785 -10.8398 38.623 -12.5977 38.623 -15.1855 L 38.623 -40.5762 L 39.2578 -48.0957 L 35.2051 -42.7246 L 31.9824 -39.0137 C 31.25 -38.1836 30.1758 -37.7441 29.0039 -37.7441 C 26.6602 -37.7441 25.0488 -39.502 25.0488 -41.8457 C 25.0488 -42.9688 25.4395 -43.9453 26.2207 -44.7754 L 39.502 -58.8867 C 40.5273 -60.0098 41.748 -60.4492 43.0664 -60.4492 C 44.4336 -60.4492 45.7031 -59.9609 46.7285 -58.8867 L 59.9609 -44.7754 C 60.7422 -43.9453 61.1816 -42.9688 61.1816 -41.8457 C 61.1816 -39.502 59.5215 -37.7441 57.1777 -37.7441 C 56.0059 -37.7441 54.8828 -38.1836 54.1992 -39.0137 L 51.0742 -42.7246 L 46.9238 -48.1445 L 47.5586 -40.5762 L 47.5586 -15.1855 C 47.5586 -12.5977 45.6543 -10.8398 43.0664 -10.8398 Z M 76.416 -10.8398 C 75.0488 -10.8398 73.877 -11.3281 72.8027 -12.4512 L 59.5215 -26.5625 C 58.7402 -27.3438 58.3496 -28.3203 58.3496 -29.4922 C 58.3496 -31.8359 59.9609 -33.5449 62.3047 -33.5449 C 63.5254 -33.5449 64.5508 -33.1543 65.2832 -32.2754 L 68.457 -28.5645 L 72.5586 -23.2422 L 71.875 -30.7617 L 71.875 -56.1523 C 71.875 -58.7402 73.8281 -60.4492 76.416 -60.4492 C 78.9551 -60.4492 80.8594 -58.7402 80.8594 -56.1523 L 80.8594 -30.7617 L 80.2246 -23.1934 L 84.375 -28.5645 L 87.5 -32.2754 C 88.1836 -33.1543 89.3066 -33.5449 90.5273 -33.5449 C 92.8223 -33.5449 94.4824 -31.8359 94.4824 -29.4922 C 94.4824 -28.3203 94.043 -27.3926 93.2617 -26.5625 L 80.0293 -12.4512 C 79.0527 -11.3281 77.7832 -10.8398 76.416 -10.8398 Z"/>
  </g>
  <g id="Medium-M" transform="matrix(1 0 0 1 1687.3 1126)">
   <path d="M 59.2285 15.2832 C 86.9141 15.2832 109.766 -7.56836 109.766 -35.2051 C 109.766 -62.8906 86.8652 -85.7422 59.1797 -85.7422 C 31.543 -85.7422 8.74023 -62.8906 8.74023 -35.2051 C 8.74023 -7.56836 31.5918 15.2832 59.2285 15.2832 Z M 42.627 -10.7422 C 40.2344 -10.7422 38.5254 -12.3535 38.5254 -14.7949 L 38.5254 -41.2109 L 39.0137 -48.9746 L 34.5703 -43.4082 L 31.0059 -39.3066 C 30.3223 -38.5254 29.3457 -38.0859 28.2227 -38.0859 C 26.0254 -38.0859 24.4141 -39.7461 24.4141 -41.9434 C 24.4141 -43.0664 24.8047 -43.9453 25.5371 -44.7266 L 39.3066 -59.2285 C 40.2832 -60.3516 41.4062 -60.7422 42.627 -60.7422 C 43.8477 -60.7422 45.0684 -60.3027 46.0938 -59.2285 L 59.7168 -44.7266 C 60.498 -43.9453 60.8398 -43.0664 60.8398 -41.9434 C 60.8398 -39.7461 59.2773 -38.0859 57.0801 -38.0859 C 55.9082 -38.0859 54.8828 -38.5254 54.2969 -39.3066 L 50.7812 -43.4082 L 46.2402 -49.0234 L 46.7773 -41.2109 L 46.7773 -14.7949 C 46.7773 -12.3535 45.0195 -10.7422 42.627 -10.7422 Z M 75.7812 -10.7422 C 74.5605 -10.7422 73.3887 -11.1816 72.3633 -12.2559 L 58.6426 -26.7578 C 57.9102 -27.5391 57.5684 -28.4668 57.5684 -29.541 C 57.5684 -31.7383 59.1309 -33.3984 61.3281 -33.3984 C 62.4512 -33.3984 63.4277 -32.959 64.1113 -32.1777 L 67.6758 -28.0762 L 72.168 -22.5098 L 71.582 -30.2734 L 71.582 -56.6895 C 71.582 -59.1309 73.3398 -60.7422 75.7812 -60.7422 C 78.125 -60.7422 79.834 -59.1309 79.834 -56.6895 L 79.834 -30.2734 L 79.3457 -22.4609 L 83.8867 -28.0762 L 87.3535 -32.1777 C 87.9883 -32.959 89.0137 -33.3984 90.1855 -33.3984 C 92.3828 -33.3984 93.9453 -31.7383 93.9453 -29.541 C 93.9453 -28.4668 93.6035 -27.5391 92.8711 -26.7578 L 79.1504 -12.2559 C 78.2227 -11.1816 77.002 -10.7422 75.7812 -10.7422 Z"/>
  </g>
  <g id="Regular-M" transform="matrix(1 0 0 1 1391.3 1126)">
   <path d="M 58.5449 14.5508 C 85.791 14.5508 108.35 -8.00781 108.35 -35.2539 C 108.35 -62.4512 85.7422 -85.0586 58.4961 -85.0586 C 31.2988 -85.0586 8.74023 -62.4512 8.74023 -35.2539 C 8.74023 -8.00781 31.3477 14.5508 58.5449 14.5508 Z M 41.9922 -10.5957 C 39.8926 -10.5957 38.3789 -12.0605 38.3789 -14.2578 L 38.3789 -42.041 L 38.7207 -50.1953 L 33.8379 -44.2383 L 29.7363 -39.5996 C 29.1016 -38.9648 28.2715 -38.5254 27.1973 -38.5254 C 25.1953 -38.5254 23.6328 -40.1367 23.6328 -42.1387 C 23.6328 -43.1152 23.9746 -43.9453 24.6094 -44.6777 L 39.0137 -59.7168 C 39.9414 -60.7422 40.9668 -61.084 41.9922 -61.084 C 43.1152 -61.084 44.2383 -60.6934 45.2148 -59.7168 L 59.4238 -44.6777 C 60.1562 -43.9941 60.4492 -43.1152 60.4492 -42.1387 C 60.4492 -40.1367 58.9355 -38.5254 56.8848 -38.5254 C 55.8594 -38.5254 54.8828 -38.9648 54.3945 -39.5996 L 50.3906 -44.2383 L 45.3125 -50.2441 L 45.7031 -42.041 L 45.7031 -14.2578 C 45.7031 -12.0605 44.1895 -10.5957 41.9922 -10.5957 Z M 74.9023 -10.5957 C 73.877 -10.5957 72.8027 -10.9863 71.8262 -12.0117 L 57.4707 -27.0508 C 56.7871 -27.7344 56.543 -28.5645 56.543 -29.5898 C 56.543 -31.5918 58.0078 -33.1543 60.0586 -33.1543 C 61.084 -33.1543 61.9629 -32.7637 62.5488 -32.0801 L 66.6504 -27.4414 L 71.582 -21.5332 L 71.2402 -29.6875 L 71.2402 -57.4707 C 71.2402 -59.6191 72.7539 -61.084 74.9023 -61.084 C 77.002 -61.084 78.5156 -59.6191 78.5156 -57.4707 L 78.5156 -29.6875 L 78.2227 -21.4844 L 83.2031 -27.4414 L 87.207 -32.0801 C 87.6953 -32.7637 88.6719 -33.1543 89.7461 -33.1543 C 91.748 -33.1543 93.3105 -31.5918 93.3105 -29.5898 C 93.3105 -28.5645 92.9688 -27.7344 92.334 -27.0508 L 78.0273 -12.0117 C 77.1484 -11.0352 76.0254 -10.5957 74.9023 -10.5957 Z"/>
  </g>
  <g id="Light-M" transform="matrix(1 0 0 1 1095.42 1126)">
   <path d="M 57.7148 13.7695 C 84.5215 13.7695 106.689 -8.39844 106.689 -35.2051 C 106.689 -62.0117 84.5215 -84.1797 57.666 -84.1797 C 30.8594 -84.1797 8.74023 -62.0117 8.74023 -35.2051 C 8.74023 -8.39844 30.9082 13.7695 57.7148 13.7695 Z M 41.3086 -10.2539 C 39.6484 -10.2539 38.4766 -11.4258 38.4766 -13.1348 L 38.4766 -44.9707 L 38.7207 -52.7344 L 33.1543 -46.4844 L 27.4414 -40.4297 C 26.9043 -39.8926 26.2695 -39.5508 25.4395 -39.5508 C 23.8281 -39.5508 22.6562 -40.7715 22.6562 -42.334 C 22.6562 -43.1641 22.9004 -43.7988 23.4375 -44.3359 L 39.0137 -60.4004 C 39.7461 -61.1816 40.5273 -61.4258 41.3086 -61.4258 C 42.1875 -61.4258 43.0176 -61.1816 43.75 -60.4004 L 59.2773 -44.3359 C 59.8145 -43.7988 60.0586 -43.1641 60.0586 -42.334 C 60.0586 -40.7715 58.8867 -39.5508 57.2754 -39.5508 C 56.4941 -39.5508 55.7617 -39.8926 55.3223 -40.4297 L 49.6582 -46.4844 L 43.9453 -52.7832 L 44.2383 -44.9707 L 44.2383 -13.1348 C 44.2383 -11.4258 43.0664 -10.2539 41.3086 -10.2539 Z M 74.0723 -10.2539 C 73.2422 -10.2539 72.4121 -10.5469 71.6797 -11.3281 L 56.1523 -27.3438 C 55.6152 -27.8809 55.3711 -28.5645 55.3711 -29.3457 C 55.3711 -30.9082 56.4941 -32.1289 58.1543 -32.1289 C 58.9355 -32.1289 59.5703 -31.8359 60.1074 -31.25 L 65.7715 -25.1953 L 71.4355 -18.9941 L 71.0938 -26.7578 L 71.0938 -58.5449 C 71.0938 -60.3027 72.3145 -61.4258 74.0723 -61.4258 C 75.7324 -61.4258 76.9043 -60.3027 76.9043 -58.5449 L 76.9043 -26.7578 L 76.6602 -18.8965 L 82.3242 -25.1953 L 87.9395 -31.25 C 88.4277 -31.8359 89.1113 -32.1289 89.9902 -32.1289 C 91.5527 -32.1289 92.7734 -30.9082 92.7734 -29.3457 C 92.7734 -28.5645 92.4805 -27.9297 91.9434 -27.3438 L 76.416 -11.3281 C 75.7324 -10.5469 74.8535 -10.2539 74.0723 -10.2539 Z"/>
  </g>
  <g id="Thin-M" transform="matrix(1 0 0 1 799.806 1126)">
   <path d="M 56.6406 12.7441 C 82.9102 12.7441 104.492 -8.83789 104.492 -35.1562 C 104.492 -61.4746 82.9102 -83.0566 56.5918 -83.0566 C 30.3223 -83.0566 8.74023 -61.4746 8.74023 -35.1562 C 8.74023 -8.83789 30.3223 12.7441 56.6406 12.7441 Z M 40.3809 -9.81445 C 39.3066 -9.81445 38.5742 -10.498 38.5742 -11.7188 L 38.5742 -48.8281 L 38.7207 -56.1035 L 32.2754 -49.4629 L 24.4141 -41.5527 C 24.0234 -41.1133 23.6816 -40.918 23.0957 -40.918 C 22.0703 -40.918 21.3379 -41.6992 21.3379 -42.6758 C 21.3379 -43.1641 21.4844 -43.5547 21.875 -43.9453 L 39.0625 -61.3281 C 39.4531 -61.7188 39.9414 -61.9141 40.3809 -61.9141 C 40.918 -61.9141 41.4062 -61.7676 41.8457 -61.3281 L 59.0332 -43.9453 C 59.375 -43.6035 59.5215 -43.1641 59.5215 -42.6758 C 59.5215 -41.6992 58.8379 -40.918 57.7637 -40.918 C 57.2754 -40.918 56.9336 -41.1133 56.543 -41.5527 L 48.7305 -49.4629 L 42.1387 -56.1523 L 42.2852 -48.8281 L 42.2852 -11.7188 C 42.2852 -10.498 41.6016 -9.81445 40.3809 -9.81445 Z M 72.9004 -9.81445 C 72.4121 -9.81445 71.875 -9.96094 71.4844 -10.4004 L 54.3457 -27.7832 C 54.0039 -28.125 53.8574 -28.5156 53.8574 -29.0527 C 53.8574 -30.0293 54.541 -30.8105 55.6152 -30.8105 C 56.0547 -30.8105 56.3965 -30.6152 56.8359 -30.1758 L 64.6484 -22.2656 L 71.1914 -15.5762 L 70.9473 -22.9004 L 70.9473 -60.0098 C 70.9473 -61.1816 71.7773 -61.9141 72.9004 -61.9141 C 74.0234 -61.9141 74.7559 -61.1816 74.7559 -60.0098 L 74.7559 -22.9004 L 74.6094 -15.5273 L 81.1035 -22.2656 L 88.916 -30.1758 C 89.3066 -30.6152 89.6973 -30.8105 90.2344 -30.8105 C 91.2598 -30.8105 92.041 -30.0293 92.041 -29.0527 C 92.041 -28.5156 91.8457 -28.1738 91.5039 -27.7832 L 74.3164 -10.4004 C 73.877 -9.91211 73.3887 -9.81445 72.9004 -9.81445 Z"/>
  </g>
  <g id="Ultralight-M" transform="matrix(1 0 0 1 503.656 1126)">
   <path d="M 56.0547 12.207 C 82.0801 12.207 103.369 -9.08203 103.369 -35.1562 C 103.369 -61.1816 82.0801 -82.4707 56.0547 -82.4707 C 30.0293 -82.4707 8.74023 -61.1816 8.74023 -35.1562 C 8.74023 -9.08203 30.0293 12.207 56.0547 12.207 Z M 39.9414 -9.57031 C 39.1602 -9.57031 38.5742 -10.0586 38.5742 -10.9375 L 38.5742 -50.8301 L 38.7207 -57.8613 L 31.8359 -50.9766 L 22.9004 -42.0898 C 22.5098 -41.748 22.3633 -41.6016 21.9238 -41.6016 C 21.1914 -41.6016 20.6543 -42.1387 20.6543 -42.8223 C 20.6543 -43.1641 20.752 -43.4082 21.0938 -43.7012 L 39.1113 -61.7676 C 39.3066 -62.0117 39.6484 -62.1582 39.9414 -62.1582 C 40.2832 -62.1582 40.5762 -62.1094 40.8691 -61.7676 L 58.8867 -43.7012 C 59.1309 -43.457 59.2773 -43.1641 59.2773 -42.8223 C 59.2773 -42.1387 58.7891 -41.6016 58.0078 -41.6016 C 57.7148 -41.6016 57.5195 -41.748 57.1777 -42.0898 L 48.1934 -50.9766 L 41.2109 -57.9102 L 41.3086 -50.8301 L 41.3086 -10.9375 C 41.3086 -10.0586 40.8203 -9.57031 39.9414 -9.57031 Z M 72.3145 -9.57031 C 71.9727 -9.57031 71.582 -9.66797 71.3867 -9.91211 L 53.418 -27.9785 C 53.1738 -28.2227 53.0273 -28.5156 53.0273 -28.9062 C 53.0273 -29.541 53.5156 -30.0781 54.2969 -30.0781 C 54.6387 -30.0781 54.7852 -29.9805 55.1758 -29.5898 L 64.1113 -20.752 L 71.0449 -13.8672 L 70.8496 -20.8984 L 70.8496 -60.7422 C 70.8496 -61.6699 71.4844 -62.1582 72.3145 -62.1582 C 73.1934 -62.1582 73.6328 -61.6699 73.6328 -60.7422 L 73.6328 -20.8984 L 73.5352 -13.8184 L 80.4688 -20.752 L 89.4531 -29.5898 C 89.7949 -29.9805 89.9902 -30.0781 90.3809 -30.0781 C 91.1133 -30.0781 91.6504 -29.541 91.6504 -28.9062 C 91.6504 -28.5156 91.5527 -28.2715 91.2598 -27.9785 L 73.2422 -9.91211 C 72.9004 -9.61914 72.6074 -9.57031 72.3145 -9.57031 Z"/>
  </g>
  <g id="Black-S" transform="matrix(1 0 0 1 2884.57 696)">
   <path d="M 48.8281 6.78711 C 71.9727 6.78711 90.8203 -12.0605 90.8203 -35.2051 C 90.8203 -58.3496 71.9727 -77.1973 48.8281 -77.1973 C 25.6836 -77.1973 6.83594 -58.3496 6.83594 -35.2051 C 6.83594 -12.0605 25.6836 6.78711 48.8281 6.78711 Z M 35.4492 -16.5527 C 32.7148 -16.5527 30.6152 -18.3594 30.6152 -21.0938 L 30.6152 -37.0117 L 31.5918 -41.8457 L 29.7852 -38.623 L 28.7109 -37.2559 C 28.0273 -36.2793 26.8066 -35.9375 25.6348 -35.9375 C 23.3398 -35.9375 21.875 -37.5488 21.875 -39.9414 C 21.875 -41.0645 22.3633 -42.041 23.1445 -42.8711 L 31.7871 -52.4414 C 32.7148 -53.5156 33.9355 -53.9551 35.4492 -53.9551 C 36.9629 -53.9551 38.1836 -53.4668 39.1113 -52.4414 L 47.8027 -42.8711 C 48.584 -42.041 49.0723 -41.0645 49.0723 -39.9414 C 49.0723 -37.5488 47.6074 -35.9375 45.2637 -35.9375 C 44.043 -35.9375 42.9199 -36.2793 42.1875 -37.2559 L 41.1133 -38.623 L 39.3555 -41.8457 L 40.332 -37.0117 L 40.332 -21.0938 C 40.332 -18.3594 38.2324 -16.5527 35.4492 -16.5527 Z M 62.3047 -16.5527 C 60.791 -16.5527 59.5703 -17.041 58.6426 -18.0664 L 49.9512 -27.6367 C 49.1699 -28.4668 48.6816 -29.4434 48.6816 -30.5664 C 48.6816 -32.959 50.1465 -34.5703 52.4902 -34.5703 C 53.7109 -34.5703 54.834 -34.2285 55.5664 -33.252 L 56.6406 -31.8848 L 58.3984 -28.6621 L 57.4219 -33.4961 L 57.4219 -49.4141 C 57.4219 -52.1973 59.5215 -53.9551 62.3047 -53.9551 C 65.0391 -53.9551 67.1387 -52.1973 67.1387 -49.4141 L 67.1387 -33.4961 L 66.1621 -28.6621 L 67.9688 -31.8848 L 69.043 -33.252 C 69.7754 -34.2285 70.9473 -34.5703 72.1191 -34.5703 C 74.4141 -34.5703 75.8789 -32.959 75.8789 -30.5664 C 75.8789 -29.4434 75.3906 -28.4668 74.6094 -27.6367 L 65.9668 -18.0664 C 65.0391 -16.9922 63.8184 -16.5527 62.3047 -16.5527 Z"/>
  </g>
  <g id="Heavy-S" transform="matrix(1 0 0 1 2588.47 696)">
   <path d="M 48.2422 6.15234 C 70.9961 6.15234 89.5996 -12.4512 89.5996 -35.2051 C 89.5996 -57.959 70.9961 -76.6113 48.1934 -76.6113 C 25.4395 -76.6113 6.83594 -57.959 6.83594 -35.2051 C 6.83594 -12.4512 25.4395 6.15234 48.2422 6.15234 Z M 34.9121 -16.4551 C 32.373 -16.4551 30.4688 -18.1152 30.4688 -20.6543 L 30.4688 -37.5 L 31.2988 -42.7734 L 29.1016 -39.2578 L 27.6855 -37.5 C 27.0508 -36.6211 25.9277 -36.2793 24.8047 -36.2793 C 22.6562 -36.2793 21.1914 -37.8418 21.1914 -40.0879 C 21.1914 -41.1621 21.6309 -42.0898 22.3633 -42.8711 L 31.4941 -52.832 C 32.373 -53.8574 33.5449 -54.2969 34.9121 -54.2969 C 36.3281 -54.2969 37.5 -53.8086 38.3789 -52.832 L 47.5098 -42.8711 C 48.291 -42.0898 48.7305 -41.1621 48.7305 -40.0879 C 48.7305 -37.8418 47.2656 -36.2793 45.0684 -36.2793 C 43.8965 -36.2793 42.8223 -36.6211 42.1875 -37.5 L 40.8203 -39.2578 L 38.623 -42.7734 L 39.4043 -37.5 L 39.4043 -20.6543 C 39.4043 -18.1152 37.5 -16.4551 34.9121 -16.4551 Z M 61.5234 -16.4551 C 60.1562 -16.4551 59.0332 -16.8945 58.1055 -17.9199 L 48.9258 -27.8809 C 48.1934 -28.6621 47.7539 -29.5898 47.7539 -30.6641 C 47.7539 -32.9102 49.2188 -34.4727 51.416 -34.4727 C 52.5879 -34.4727 53.6133 -34.1309 54.2969 -33.252 L 55.6641 -31.4941 L 57.8613 -27.9785 L 57.0312 -33.2031 L 57.0312 -50.0488 C 57.0312 -52.6367 58.9844 -54.2969 61.5234 -54.2969 C 64.0625 -54.2969 66.0156 -52.6367 66.0156 -50.0488 L 66.0156 -33.2031 L 65.1855 -27.9785 L 67.4316 -31.4941 L 68.7988 -33.252 C 69.4336 -34.1309 70.5566 -34.4727 71.6797 -34.4727 C 73.8281 -34.4727 75.293 -32.9102 75.293 -30.6641 C 75.293 -29.5898 74.8535 -28.6621 74.1211 -27.8809 L 64.9902 -17.9199 C 64.1113 -16.8945 62.9395 -16.4551 61.5234 -16.4551 Z"/>
  </g>
  <g id="Bold-S" transform="matrix(1 0 0 1 2292.44 696)">
   <path d="M 47.5586 5.46875 C 69.873 5.46875 88.2324 -12.8906 88.2324 -35.2051 C 88.2324 -57.5684 69.873 -75.9277 47.5098 -75.9277 C 25.1953 -75.9277 6.83594 -57.5684 6.83594 -35.2051 C 6.83594 -12.8906 25.1953 5.46875 47.5586 5.46875 Z M 34.3262 -16.3086 C 32.0312 -16.3086 30.3223 -17.8711 30.3223 -20.2148 L 30.3223 -38.0859 L 30.957 -43.7988 L 28.2715 -39.9414 L 26.5625 -37.7441 C 25.9277 -36.9629 24.9512 -36.6211 23.877 -36.6211 C 21.8262 -36.6211 20.4102 -38.1348 20.4102 -40.2344 C 20.4102 -41.2598 20.8008 -42.0898 21.4844 -42.8223 L 31.1523 -53.2715 C 32.0312 -54.248 33.1055 -54.6387 34.3262 -54.6387 C 35.5957 -54.6387 36.7188 -54.1992 37.5977 -53.2715 L 47.2168 -42.8223 C 47.9004 -42.0898 48.291 -41.2598 48.291 -40.2344 C 48.291 -38.1348 46.875 -36.6211 44.8242 -36.6211 C 43.75 -36.6211 42.7246 -36.9629 42.1387 -37.7441 L 40.4785 -39.9414 L 37.7441 -43.7988 L 38.4277 -38.0859 L 38.4277 -20.2148 C 38.4277 -17.8711 36.6699 -16.3086 34.3262 -16.3086 Z M 60.6934 -16.3086 C 59.4727 -16.3086 58.3984 -16.748 57.4707 -17.7246 L 47.8027 -28.1738 C 47.1191 -28.8574 46.7773 -29.7363 46.7773 -30.7617 C 46.7773 -32.8125 48.1445 -34.3262 50.1953 -34.3262 C 51.3184 -34.3262 52.2461 -33.9844 52.8809 -33.2031 L 54.6387 -31.0547 L 57.2754 -27.1973 L 56.6406 -32.9102 L 56.6406 -50.7812 C 56.6406 -53.125 58.3496 -54.6387 60.6934 -54.6387 C 62.9883 -54.6387 64.6973 -53.125 64.6973 -50.7812 L 64.6973 -32.9102 L 64.1113 -27.1484 L 66.7969 -31.0547 L 68.5059 -33.2031 C 69.0918 -33.9844 70.1172 -34.3262 71.1426 -34.3262 C 73.1934 -34.3262 74.6094 -32.8125 74.6094 -30.7617 C 74.6094 -29.7363 74.2188 -28.8574 73.5352 -28.1738 L 63.916 -17.7246 C 63.0859 -16.748 61.9629 -16.3086 60.6934 -16.3086 Z"/>
  </g>
  <g id="Semibold-S" transform="matrix(1 0 0 1 1996.2 696)">
   <path d="M 47.0703 4.98047 C 69.0918 4.98047 87.3047 -13.1836 87.3047 -35.2539 C 87.3047 -57.2754 69.0918 -75.4883 47.0215 -75.4883 C 25 -75.4883 6.83594 -57.2754 6.83594 -35.2539 C 6.83594 -13.1836 25.0488 4.98047 47.0703 4.98047 Z M 33.9355 -16.2598 C 31.7871 -16.2598 30.2246 -17.7246 30.2246 -19.873 L 30.2246 -38.4766 L 30.7129 -44.4824 L 27.7344 -40.3809 L 25.7812 -37.9395 C 25.1465 -37.2559 24.2676 -36.8652 23.2422 -36.8652 C 21.2891 -36.8652 19.9219 -38.3301 19.9219 -40.332 C 19.9219 -41.3086 20.2637 -42.1387 20.8984 -42.8223 L 30.9082 -53.5645 C 31.7871 -54.541 32.8125 -54.8828 33.9355 -54.8828 C 35.1074 -54.8828 36.1816 -54.4922 37.0605 -53.5645 L 47.0215 -42.8223 C 47.7051 -42.1387 48.0469 -41.3086 48.0469 -40.332 C 48.0469 -38.3301 46.6309 -36.8652 44.6777 -36.8652 C 43.6523 -36.8652 42.6758 -37.2559 42.1387 -37.9395 L 40.2344 -40.3809 L 37.1582 -44.5312 L 37.6953 -38.4766 L 37.6953 -19.873 C 37.6953 -17.7246 36.1328 -16.2598 33.9355 -16.2598 Z M 60.1074 -16.2598 C 58.9844 -16.2598 57.959 -16.6504 57.0801 -17.5781 L 47.0215 -28.3203 C 46.3867 -29.0039 46.0449 -29.834 46.0449 -30.8105 C 46.0449 -32.7637 47.4121 -34.2773 49.4141 -34.2773 C 50.4395 -34.2773 51.3184 -33.8867 51.9043 -33.2031 L 53.9062 -30.7617 L 56.8848 -26.6602 L 56.3477 -32.666 L 56.3477 -51.2695 C 56.3477 -53.418 57.959 -54.8828 60.1074 -54.8828 C 62.2559 -54.8828 63.8184 -53.418 63.8184 -51.2695 L 63.8184 -32.666 L 63.3301 -26.6113 L 66.3574 -30.7617 L 68.3105 -33.2031 C 68.7988 -33.8867 69.7754 -34.2773 70.8008 -34.2773 C 72.7539 -34.2773 74.1699 -32.7637 74.1699 -30.8105 C 74.1699 -29.834 73.8281 -29.0039 73.1934 -28.3203 L 63.1836 -17.5781 C 62.3535 -16.6504 61.2793 -16.2598 60.1074 -16.2598 Z"/>
  </g>
  <g id="Medium-S" transform="matrix(1 0 0 1 1699.83 696)">
   <path d="M 46.7285 4.63867 C 68.5547 4.63867 86.6211 -13.4277 86.6211 -35.2539 C 86.6211 -57.0312 68.5059 -75.1465 46.6797 -75.1465 C 24.8535 -75.1465 6.83594 -57.0312 6.83594 -35.2539 C 6.83594 -13.4277 24.9023 4.63867 46.7285 4.63867 Z M 33.6426 -16.2109 C 31.5918 -16.2109 30.127 -17.5781 30.127 -19.6289 L 30.127 -38.7695 L 30.5664 -45.0195 L 27.3438 -40.7715 L 25.1953 -38.0859 C 24.6094 -37.4512 23.7305 -37.0605 22.7539 -37.0605 C 20.8984 -37.0605 19.4824 -38.5254 19.4824 -40.4297 C 19.4824 -41.3574 19.8242 -42.1387 20.4102 -42.7734 L 30.7617 -53.7598 C 31.5918 -54.7363 32.6172 -55.0781 33.6426 -55.0781 C 34.7168 -55.0781 35.791 -54.6875 36.6699 -53.7598 L 46.875 -42.7734 C 47.5098 -42.1387 47.8027 -41.3574 47.8027 -40.4297 C 47.8027 -38.5254 46.4355 -37.0605 44.5312 -37.0605 C 43.5547 -37.0605 42.627 -37.4512 42.1387 -38.0859 L 40.0391 -40.7715 L 36.7188 -45.0684 L 37.207 -38.7695 L 37.207 -19.6289 C 37.207 -17.5781 35.6934 -16.2109 33.6426 -16.2109 Z M 59.668 -16.2109 C 58.6426 -16.2109 57.6172 -16.5527 56.7383 -17.4805 L 46.4355 -28.4668 C 45.8008 -29.1504 45.5078 -29.9316 45.5078 -30.8594 C 45.5078 -32.7637 46.875 -34.1797 48.7793 -34.1797 C 49.7559 -34.1797 50.5859 -33.8379 51.1719 -33.2031 L 53.3203 -30.5176 L 56.5918 -26.2695 L 56.1035 -32.5195 L 56.1035 -51.6113 C 56.1035 -53.6621 57.6172 -55.0781 59.668 -55.0781 C 61.6699 -55.0781 63.1836 -53.6621 63.1836 -51.6113 L 63.1836 -32.5195 L 62.7441 -26.2207 L 66.0645 -30.5176 L 68.1152 -33.2031 C 68.6035 -33.8379 69.5801 -34.1797 70.5566 -34.1797 C 72.4121 -34.1797 73.8281 -32.7637 73.8281 -30.8594 C 73.8281 -29.9316 73.4863 -29.1504 72.9004 -28.4668 L 62.6465 -17.4805 C 61.8164 -16.5527 60.7422 -16.2109 59.668 -16.2109 Z"/>
  </g>
  <g id="Regular-S" transform="matrix(1 0 0 1 1403.58 696)">
   <path d="M 46.2402 4.15039 C 67.7734 4.15039 85.6934 -13.7207 85.6934 -35.2539 C 85.6934 -56.7871 67.7246 -74.6582 46.1914 -74.6582 C 24.707 -74.6582 6.83594 -56.7871 6.83594 -35.2539 C 6.83594 -13.7207 24.7559 4.15039 46.2402 4.15039 Z M 33.252 -16.1133 C 31.3477 -16.1133 30.0293 -17.4316 30.0293 -19.3359 L 30.0293 -39.1113 L 30.3223 -45.7031 L 26.8066 -41.2109 L 24.4141 -38.2812 C 23.8281 -37.6953 23.0957 -37.3047 22.1191 -37.3047 C 20.3613 -37.3047 18.9941 -38.7207 18.9941 -40.5273 C 18.9941 -41.4062 19.2871 -42.1387 19.8242 -42.7734 L 30.5176 -54.0527 C 31.3477 -54.9805 32.3242 -55.3223 33.252 -55.3223 C 34.2285 -55.3223 35.2539 -54.9316 36.084 -54.0527 L 46.6309 -42.7734 C 47.2656 -42.1387 47.5586 -41.4062 47.5586 -40.5273 C 47.5586 -38.7207 46.1914 -37.3047 44.3848 -37.3047 C 43.457 -37.3047 42.5781 -37.6953 42.1387 -38.2812 L 39.8438 -41.2109 L 36.1816 -45.752 L 36.4746 -39.1113 L 36.4746 -19.3359 C 36.4746 -17.4316 35.1074 -16.1133 33.252 -16.1133 Z M 59.082 -16.1133 C 58.1543 -16.1133 57.2266 -16.4551 56.3477 -17.3828 L 45.7031 -28.6621 C 45.0684 -29.2969 44.8242 -30.0293 44.8242 -30.9082 C 44.8242 -32.7148 46.1426 -34.1309 47.9492 -34.1309 C 48.877 -34.1309 49.6582 -33.7402 50.1953 -33.1543 L 52.5879 -30.2246 L 56.1523 -25.7324 L 55.8594 -32.3242 L 55.8594 -52.0996 C 55.8594 -54.0039 57.2266 -55.3223 59.082 -55.3223 C 60.9375 -55.3223 62.3047 -54.0039 62.3047 -52.0996 L 62.3047 -32.3242 L 62.0117 -25.6836 L 65.625 -30.2246 L 67.9199 -33.1543 C 68.3594 -33.7402 69.2383 -34.1309 70.2148 -34.1309 C 71.9727 -34.1309 73.3398 -32.7148 73.3398 -30.9082 C 73.3398 -30.0293 73.0469 -29.2969 72.5098 -28.6621 L 61.9141 -17.3828 C 61.1328 -16.5039 60.0586 -16.1133 59.082 -16.1133 Z"/>
  </g>
  <g id="Light-S" transform="matrix(1 0 0 1 1107.6 696)">
   <path d="M 45.5078 3.4668 C 66.6992 3.4668 84.2285 -14.0625 84.2285 -35.2051 C 84.2285 -56.3965 66.6504 -73.9258 45.5078 -73.9258 C 24.3164 -73.9258 6.83594 -56.3965 6.83594 -35.2051 C 6.83594 -14.0625 24.3652 3.4668 45.5078 3.4668 Z M 32.6172 -15.8203 C 31.1523 -15.8203 30.0781 -16.8457 30.0781 -18.3594 L 30.0781 -41.6992 L 30.3223 -47.9492 L 26.2207 -43.2129 L 22.3633 -39.0137 C 21.875 -38.5254 21.3379 -38.2324 20.6055 -38.2324 C 19.1895 -38.2324 18.1152 -39.3066 18.1152 -40.7227 C 18.1152 -41.4062 18.3105 -41.9922 18.7988 -42.4805 L 30.5664 -54.6875 C 31.2012 -55.3711 31.8848 -55.6152 32.6172 -55.6152 C 33.3984 -55.6152 34.1797 -55.3711 34.8145 -54.6875 L 46.4844 -42.4805 C 46.9727 -41.9922 47.2168 -41.4062 47.2168 -40.7227 C 47.2168 -39.3066 46.1426 -38.2324 44.7266 -38.2324 C 43.9941 -38.2324 43.3594 -38.5254 42.9688 -39.0137 L 39.1602 -43.2129 L 34.9609 -47.998 L 35.2051 -41.6992 L 35.2051 -18.3594 C 35.2051 -16.8457 34.1309 -15.8203 32.6172 -15.8203 Z M 58.3496 -15.8203 C 57.6172 -15.8203 56.8848 -16.0645 56.2012 -16.748 L 44.4824 -28.9551 C 43.9941 -29.4434 43.7988 -30.0293 43.7988 -30.7129 C 43.7988 -32.1289 44.8242 -33.2031 46.2402 -33.2031 C 46.9727 -33.2031 47.5586 -32.9102 47.998 -32.4219 L 51.8555 -28.2227 L 56.0059 -23.4863 L 55.7617 -29.7363 L 55.7617 -53.0762 C 55.7617 -54.5898 56.8359 -55.6152 58.3496 -55.6152 C 59.8145 -55.6152 60.8398 -54.5898 60.8398 -53.0762 L 60.8398 -29.7363 L 60.6445 -23.4375 L 64.8438 -28.2227 L 68.6035 -32.4219 C 68.9941 -32.9102 69.6289 -33.2031 70.4102 -33.2031 C 71.7773 -33.2031 72.8516 -32.1289 72.8516 -30.7129 C 72.8516 -30.0293 72.6562 -29.4434 72.168 -28.9551 L 60.498 -16.748 C 59.8633 -16.0645 59.082 -15.8203 58.3496 -15.8203 Z"/>
  </g>
  <g id="Thin-S" transform="matrix(1 0 0 1 811.867 696)">
   <path d="M 44.5801 2.53906 C 65.2832 2.53906 82.2754 -14.4531 82.2754 -35.2051 C 82.2754 -55.9082 65.2344 -72.9004 44.5312 -72.9004 C 23.8281 -72.9004 6.83594 -55.9082 6.83594 -35.2051 C 6.83594 -14.4531 23.877 2.53906 44.5801 2.53906 Z M 31.8359 -15.3809 C 30.8594 -15.3809 30.1758 -16.0156 30.1758 -17.0898 L 30.1758 -45.166 L 30.3223 -50.9277 L 25.4395 -45.8008 L 19.7266 -39.9414 C 19.3359 -39.5996 19.043 -39.4043 18.5547 -39.4043 C 17.627 -39.4043 16.9434 -40.1367 16.9434 -40.9668 C 16.9434 -41.4551 17.0898 -41.7969 17.4316 -42.1387 L 30.5664 -55.4688 C 30.957 -55.8594 31.3965 -56.0547 31.8359 -56.0547 C 32.2754 -56.0547 32.7637 -55.9082 33.1543 -55.4688 L 46.2891 -42.1387 C 46.582 -41.8457 46.7285 -41.4551 46.7285 -40.9668 C 46.7285 -40.1367 46.0938 -39.4043 45.1172 -39.4043 C 44.7266 -39.4043 44.3848 -39.5996 44.043 -39.9414 L 38.3301 -45.8008 L 33.3496 -50.9766 L 33.4961 -45.166 L 33.4961 -17.0898 C 33.4961 -16.0156 32.8613 -15.3809 31.8359 -15.3809 Z M 57.3242 -15.3809 C 56.8848 -15.3809 56.3965 -15.5762 56.0059 -15.9668 L 42.9199 -29.2969 C 42.5781 -29.5898 42.4805 -29.9805 42.4805 -30.4688 C 42.4805 -31.2988 43.1152 -32.0312 44.043 -32.0312 C 44.4824 -32.0312 44.7754 -31.8359 45.1172 -31.4941 L 50.8789 -25.6348 L 55.8105 -20.5078 L 55.6152 -26.2695 L 55.6152 -54.3457 C 55.6152 -55.4199 56.3477 -56.0547 57.3242 -56.0547 C 58.3008 -56.0547 58.9844 -55.4199 58.9844 -54.3457 L 58.9844 -26.2695 L 58.8379 -20.459 L 63.7695 -25.6348 L 69.4824 -31.4941 C 69.7754 -31.8359 70.1172 -32.0312 70.6543 -32.0312 C 71.5332 -32.0312 72.2168 -31.2988 72.2168 -30.4688 C 72.2168 -29.9805 72.0703 -29.6387 71.7773 -29.2969 L 58.5938 -15.9668 C 58.2031 -15.5273 57.7637 -15.3809 57.3242 -15.3809 Z"/>
  </g>
  <g id="Ultralight-S" transform="matrix(1 0 0 1 515.644 696)">
   <path d="M 44.043 2.05078 C 64.502 2.05078 81.2988 -14.6973 81.2988 -35.1562 C 81.2988 -55.6152 64.502 -72.3633 44.043 -72.3633 C 23.584 -72.3633 6.83594 -55.6152 6.83594 -35.1562 C 6.83594 -14.6973 23.584 2.05078 44.043 2.05078 Z M 31.3965 -15.1855 C 30.7129 -15.1855 30.2246 -15.625 30.2246 -16.4062 L 30.2246 -46.9238 L 30.3223 -52.4902 L 25.0488 -47.168 L 18.3105 -40.4785 C 18.0176 -40.1367 17.8711 -40.0391 17.4805 -40.0391 C 16.8457 -40.0391 16.3574 -40.5273 16.3574 -41.1133 C 16.3574 -41.4551 16.4551 -41.6992 16.6992 -41.9434 L 30.6152 -55.9082 C 30.8594 -56.1523 31.1035 -56.25 31.3965 -56.25 C 31.7383 -56.25 31.9824 -56.2012 32.2754 -55.9082 L 46.1914 -41.9434 C 46.3867 -41.6992 46.4844 -41.4551 46.4844 -41.1133 C 46.4844 -40.5273 46.0449 -40.0391 45.3613 -40.0391 C 45.0684 -40.0391 44.9219 -40.1367 44.5801 -40.4785 L 37.8906 -47.168 L 32.5195 -52.5391 L 32.6172 -46.9238 L 32.6172 -16.4062 C 32.6172 -15.625 32.1777 -15.1855 31.3965 -15.1855 Z M 56.7871 -15.1855 C 56.4941 -15.1855 56.1523 -15.2832 55.9082 -15.5273 L 42.0898 -29.4922 C 41.8457 -29.7363 41.748 -29.9805 41.748 -30.3223 C 41.748 -30.9082 42.1875 -31.3965 42.8711 -31.3965 C 43.1641 -31.3965 43.3594 -31.2988 43.6523 -30.957 L 50.3418 -24.2676 L 55.7129 -18.9453 L 55.5176 -24.5117 L 55.5176 -55.0293 C 55.5176 -55.8105 56.0547 -56.25 56.7871 -56.25 C 57.5684 -56.25 58.0078 -55.8105 58.0078 -55.0293 L 58.0078 -24.5117 L 57.8613 -18.8965 L 63.2324 -24.2676 L 69.9219 -30.957 C 70.2148 -31.2988 70.4102 -31.3965 70.752 -31.3965 C 71.4355 -31.3965 71.9238 -30.9082 71.9238 -30.3223 C 71.9238 -29.9805 71.7773 -29.7363 71.5332 -29.4922 L 57.666 -15.5273 C 57.373 -15.2344 57.0801 -15.1855 56.7871 -15.1855 Z"/>
  </g>
 </g>
</svg>
